<mxfile host="65bd71144e">
    <diagram name="Page-1" id="PW_Xwww3jzRoY5vNUY2A">
        <mxGraphModel dx="20000" dy="18620" grid="1" gridSize="10" guides="1" tooltips="1" connect="1" arrows="1" fold="1" page="0" pageScale="1" pageWidth="850" pageHeight="1100" background="#ffffff" math="0" shadow="0">
            <root>
                <mxCell id="0"/>
                <mxCell id="1" parent="0"/>
                <mxCell id="bpIo6Ib_cnQscoKgqGLR-4" value="MVC Component diagram" style="swimlane;fontSize=16;labelBackgroundColor=none;" parent="1" vertex="1">
                    <mxGeometry x="806" y="-1065" width="964" height="528" as="geometry"/>
                </mxCell>
                <mxCell id="86GTZeO0Hbs-Rhm0ISFX-48" value="" style="ellipse;whiteSpace=wrap;html=1;align=center;aspect=fixed;fillColor=none;resizable=0;perimeter=centerPerimeter;rotatable=0;allowArrows=0;points=[];outlineConnect=1;shadow=0;labelBackgroundColor=none;" parent="bpIo6Ib_cnQscoKgqGLR-4" vertex="1">
                    <mxGeometry x="231" y="153" width="10" height="10" as="geometry"/>
                </mxCell>
                <mxCell id="XZn1DH3PBJOx24A4Sl1q-560" value="Model" style="swimlane;whiteSpace=wrap;html=1;fontSize=16;labelBackgroundColor=none;" parent="bpIo6Ib_cnQscoKgqGLR-4" vertex="1">
                    <mxGeometry x="257" y="58" width="322" height="400" as="geometry"/>
                </mxCell>
                <mxCell id="86GTZeO0Hbs-Rhm0ISFX-92" value="Game state" style="shape=module;align=left;spacingLeft=20;align=center;verticalAlign=middle;whiteSpace=wrap;html=1;labelBackgroundColor=none;" parent="XZn1DH3PBJOx24A4Sl1q-560" vertex="1">
                    <mxGeometry x="104" y="30" width="90" height="37.5" as="geometry"/>
                </mxCell>
                <mxCell id="XZn1DH3PBJOx24A4Sl1q-571" value="" style="endArrow=none;html=1;rounded=0;fontSize=12;startSize=8;endSize=8;curved=1;exitX=0;exitY=0.25;exitDx=0;exitDy=0;labelBackgroundColor=none;fontColor=default;" parent="XZn1DH3PBJOx24A4Sl1q-560" source="XZn1DH3PBJOx24A4Sl1q-560" edge="1">
                    <mxGeometry width="50" height="50" relative="1" as="geometry">
                        <mxPoint x="52" y="129" as="sourcePoint"/>
                        <mxPoint x="60" y="100" as="targetPoint"/>
                    </mxGeometry>
                </mxCell>
                <mxCell id="XZn1DH3PBJOx24A4Sl1q-573" value="" style="endArrow=classic;html=1;rounded=0;fontSize=12;startSize=8;endSize=8;entryX=-0.019;entryY=0.307;entryDx=0;entryDy=0;entryPerimeter=0;labelBackgroundColor=none;fontColor=default;" parent="XZn1DH3PBJOx24A4Sl1q-560" target="86GTZeO0Hbs-Rhm0ISFX-92" edge="1">
                    <mxGeometry width="50" height="50" relative="1" as="geometry">
                        <mxPoint x="60" y="100" as="sourcePoint"/>
                        <mxPoint x="120" y="70" as="targetPoint"/>
                        <Array as="points">
                            <mxPoint x="60" y="40"/>
                        </Array>
                    </mxGeometry>
                </mxCell>
                <mxCell id="XZn1DH3PBJOx24A4Sl1q-593" value="Entities geometry" style="edgeStyle=none;rounded=0;orthogonalLoop=1;jettySize=auto;html=1;fontSize=12;startSize=8;endSize=8;labelBackgroundColor=none;fontColor=default;" parent="XZn1DH3PBJOx24A4Sl1q-560" source="86GTZeO0Hbs-Rhm0ISFX-34" target="86GTZeO0Hbs-Rhm0ISFX-5" edge="1">
                    <mxGeometry relative="1" as="geometry"/>
                </mxCell>
                <mxCell id="86GTZeO0Hbs-Rhm0ISFX-34" value="Entites" style="shape=module;align=left;spacingLeft=20;align=center;verticalAlign=middle;whiteSpace=wrap;html=1;labelBackgroundColor=none;" parent="XZn1DH3PBJOx24A4Sl1q-560" vertex="1">
                    <mxGeometry x="219.04" y="141" width="70" height="45" as="geometry"/>
                </mxCell>
                <mxCell id="86GTZeO0Hbs-Rhm0ISFX-33" value="Inventory system" style="shape=module;align=left;spacingLeft=20;align=center;verticalAlign=middle;whiteSpace=wrap;html=1;labelBackgroundColor=none;" parent="XZn1DH3PBJOx24A4Sl1q-560" vertex="1">
                    <mxGeometry x="103" y="80" width="90" height="45" as="geometry"/>
                </mxCell>
                <mxCell id="XZn1DH3PBJOx24A4Sl1q-590" value="Sprites" style="edgeStyle=none;rounded=0;orthogonalLoop=1;jettySize=auto;html=1;fontSize=12;startSize=8;endSize=8;entryX=0;entryY=0;entryDx=0;entryDy=35;entryPerimeter=0;labelBackgroundColor=none;fontColor=default;" parent="XZn1DH3PBJOx24A4Sl1q-560" source="86GTZeO0Hbs-Rhm0ISFX-28" target="86GTZeO0Hbs-Rhm0ISFX-34" edge="1">
                    <mxGeometry x="-0.0581" y="4" relative="1" as="geometry">
                        <Array as="points">
                            <mxPoint x="172" y="220"/>
                            <mxPoint x="172" y="178"/>
                        </Array>
                        <mxPoint as="offset"/>
                    </mxGeometry>
                </mxCell>
                <mxCell id="86GTZeO0Hbs-Rhm0ISFX-28" value="Animation manager" style="shape=module;align=left;spacingLeft=20;align=center;verticalAlign=middle;whiteSpace=wrap;html=1;labelBackgroundColor=none;" parent="XZn1DH3PBJOx24A4Sl1q-560" vertex="1">
                    <mxGeometry x="45" y="195" width="90" height="50" as="geometry"/>
                </mxCell>
                <mxCell id="86GTZeO0Hbs-Rhm0ISFX-32" value="World generator" style="shape=module;align=left;spacingLeft=20;align=center;verticalAlign=middle;whiteSpace=wrap;html=1;labelBackgroundColor=none;" parent="XZn1DH3PBJOx24A4Sl1q-560" vertex="1">
                    <mxGeometry x="45" y="312" width="90" height="45" as="geometry"/>
                </mxCell>
                <mxCell id="86GTZeO0Hbs-Rhm0ISFX-5" value="World simulation" style="shape=module;align=left;spacingLeft=20;align=center;verticalAlign=middle;whiteSpace=wrap;html=1;labelBackgroundColor=none;" parent="XZn1DH3PBJOx24A4Sl1q-560" vertex="1">
                    <mxGeometry x="214.04" y="312" width="80" height="45" as="geometry"/>
                </mxCell>
                <mxCell id="XZn1DH3PBJOx24A4Sl1q-592" value="Chunks" style="edgeStyle=none;curved=1;rounded=0;orthogonalLoop=1;jettySize=auto;html=1;fontSize=12;startSize=8;endSize=8;labelBackgroundColor=none;fontColor=default;" parent="XZn1DH3PBJOx24A4Sl1q-560" source="86GTZeO0Hbs-Rhm0ISFX-32" target="86GTZeO0Hbs-Rhm0ISFX-5" edge="1">
                    <mxGeometry relative="1" as="geometry"/>
                </mxCell>
                <mxCell id="86GTZeO0Hbs-Rhm0ISFX-46" value="" style="rounded=0;orthogonalLoop=1;jettySize=auto;html=1;endArrow=halfCircle;endFill=0;endSize=6;strokeWidth=1;exitX=0;exitY=0.25;exitDx=0;exitDy=0;shadow=0;labelBackgroundColor=none;fontColor=default;" parent="bpIo6Ib_cnQscoKgqGLR-4" source="XZn1DH3PBJOx24A4Sl1q-560" target="86GTZeO0Hbs-Rhm0ISFX-48" edge="1">
                    <mxGeometry relative="1" as="geometry">
                        <mxPoint x="411" y="-156" as="sourcePoint"/>
                        <mxPoint x="177" y="149" as="targetPoint"/>
                    </mxGeometry>
                </mxCell>
                <mxCell id="XZn1DH3PBJOx24A4Sl1q-572" style="edgeStyle=none;curved=1;rounded=0;orthogonalLoop=1;jettySize=auto;html=1;exitX=0;exitY=0;exitDx=0;exitDy=0;fontSize=12;startSize=8;endSize=8;labelBackgroundColor=none;fontColor=default;" parent="bpIo6Ib_cnQscoKgqGLR-4" source="XZn1DH3PBJOx24A4Sl1q-560" target="XZn1DH3PBJOx24A4Sl1q-560" edge="1">
                    <mxGeometry relative="1" as="geometry"/>
                </mxCell>
                <mxCell id="XZn1DH3PBJOx24A4Sl1q-574" value="" style="endArrow=classic;html=1;rounded=0;fontSize=12;startSize=8;endSize=8;labelBackgroundColor=none;fontColor=default;" parent="bpIo6Ib_cnQscoKgqGLR-4" target="86GTZeO0Hbs-Rhm0ISFX-33" edge="1">
                    <mxGeometry width="50" height="50" relative="1" as="geometry">
                        <mxPoint x="317" y="158" as="sourcePoint"/>
                        <mxPoint x="421" y="140" as="targetPoint"/>
                        <Array as="points"/>
                    </mxGeometry>
                </mxCell>
                <mxCell id="XZn1DH3PBJOx24A4Sl1q-575" value="" style="endArrow=classic;html=1;rounded=0;fontSize=12;startSize=8;endSize=8;entryX=0;entryY=0;entryDx=0;entryDy=15;entryPerimeter=0;labelBackgroundColor=none;fontColor=default;" parent="bpIo6Ib_cnQscoKgqGLR-4" target="86GTZeO0Hbs-Rhm0ISFX-34" edge="1">
                    <mxGeometry width="50" height="50" relative="1" as="geometry">
                        <mxPoint x="317" y="158" as="sourcePoint"/>
                        <mxPoint x="411" y="185" as="targetPoint"/>
                        <Array as="points">
                            <mxPoint x="317" y="213"/>
                        </Array>
                    </mxGeometry>
                </mxCell>
                <mxCell id="XZn1DH3PBJOx24A4Sl1q-577" value="View" style="swimlane;whiteSpace=wrap;html=1;fontSize=16;labelBackgroundColor=none;" parent="bpIo6Ib_cnQscoKgqGLR-4" vertex="1">
                    <mxGeometry x="697" y="58" width="220" height="270" as="geometry"/>
                </mxCell>
                <mxCell id="XZn1DH3PBJOx24A4Sl1q-587" value="Raw image" style="edgeStyle=none;rounded=0;orthogonalLoop=1;jettySize=auto;html=1;fontSize=12;startSize=8;endSize=8;entryX=0;entryY=0;entryDx=0;entryDy=35;entryPerimeter=0;labelBackgroundColor=none;fontColor=default;" parent="XZn1DH3PBJOx24A4Sl1q-577" source="86GTZeO0Hbs-Rhm0ISFX-14" target="86GTZeO0Hbs-Rhm0ISFX-106" edge="1">
                    <mxGeometry x="-0.4158" y="2" relative="1" as="geometry">
                        <Array as="points">
                            <mxPoint x="81" y="159"/>
                        </Array>
                        <mxPoint as="offset"/>
                    </mxGeometry>
                </mxCell>
                <mxCell id="86GTZeO0Hbs-Rhm0ISFX-14" value="World renderer" style="shape=module;align=left;spacingLeft=20;align=center;verticalAlign=middle;whiteSpace=wrap;html=1;labelBackgroundColor=none;" parent="XZn1DH3PBJOx24A4Sl1q-577" vertex="1">
                    <mxGeometry x="39" y="210" width="80" height="50" as="geometry"/>
                </mxCell>
                <mxCell id="XZn1DH3PBJOx24A4Sl1q-585" value="Processed image" style="edgeStyle=none;rounded=0;orthogonalLoop=1;jettySize=auto;html=1;fontSize=12;startSize=8;endSize=8;endArrow=none;endFill=0;startArrow=classic;startFill=1;entryX=0;entryY=0;entryDx=0;entryDy=15;entryPerimeter=0;labelBackgroundColor=none;fontColor=default;" parent="XZn1DH3PBJOx24A4Sl1q-577" source="86GTZeO0Hbs-Rhm0ISFX-15" target="86GTZeO0Hbs-Rhm0ISFX-106" edge="1">
                    <mxGeometry x="-0.3543" y="-1" relative="1" as="geometry">
                        <Array as="points">
                            <mxPoint x="70" y="138"/>
                        </Array>
                        <mxPoint as="offset"/>
                    </mxGeometry>
                </mxCell>
                <mxCell id="86GTZeO0Hbs-Rhm0ISFX-15" value="GUI" style="shape=module;align=left;spacingLeft=20;align=center;verticalAlign=middle;whiteSpace=wrap;html=1;labelBackgroundColor=none;" parent="XZn1DH3PBJOx24A4Sl1q-577" vertex="1">
                    <mxGeometry x="32" y="28" width="70.5" height="52" as="geometry"/>
                </mxCell>
                <mxCell id="86GTZeO0Hbs-Rhm0ISFX-106" value="Shader system" style="shape=module;align=left;spacingLeft=20;align=center;verticalAlign=middle;whiteSpace=wrap;html=1;labelBackgroundColor=none;" parent="XZn1DH3PBJOx24A4Sl1q-577" vertex="1">
                    <mxGeometry x="119" y="123" width="81" height="40" as="geometry"/>
                </mxCell>
                <mxCell id="86GTZeO0Hbs-Rhm0ISFX-100" value="" style="ellipse;whiteSpace=wrap;html=1;align=center;aspect=fixed;fillColor=none;resizable=0;perimeter=centerPerimeter;rotatable=0;allowArrows=0;points=[];outlineConnect=1;shadow=0;labelBackgroundColor=none;" parent="bpIo6Ib_cnQscoKgqGLR-4" vertex="1">
                    <mxGeometry x="637" y="96" width="10" height="10" as="geometry"/>
                </mxCell>
                <mxCell id="86GTZeO0Hbs-Rhm0ISFX-99" value="" style="rounded=0;orthogonalLoop=1;jettySize=auto;html=1;endArrow=oval;endFill=0;sourcePerimeterSpacing=0;targetPerimeterSpacing=0;endSize=10;exitX=0.999;exitY=0.342;exitDx=0;exitDy=0;exitPerimeter=0;edgeStyle=orthogonalEdgeStyle;shadow=0;labelBackgroundColor=none;fontColor=default;" parent="bpIo6Ib_cnQscoKgqGLR-4" source="86GTZeO0Hbs-Rhm0ISFX-92" target="86GTZeO0Hbs-Rhm0ISFX-100" edge="1">
                    <mxGeometry relative="1" as="geometry">
                        <mxPoint x="900" y="-451" as="sourcePoint"/>
                    </mxGeometry>
                </mxCell>
                <mxCell id="86GTZeO0Hbs-Rhm0ISFX-101" value="Player stats" style="edgeLabel;html=1;align=center;verticalAlign=middle;resizable=0;points=[];labelBackgroundColor=none;" parent="86GTZeO0Hbs-Rhm0ISFX-99" vertex="1" connectable="0">
                    <mxGeometry x="0.1098" relative="1" as="geometry">
                        <mxPoint x="-46" as="offset"/>
                    </mxGeometry>
                </mxCell>
                <mxCell id="86GTZeO0Hbs-Rhm0ISFX-98" value="" style="rounded=0;orthogonalLoop=1;jettySize=auto;html=1;endArrow=halfCircle;endFill=0;endSize=6;strokeWidth=1;exitX=0;exitY=0;exitDx=0;exitDy=15;exitPerimeter=0;shadow=0;startArrow=classic;startFill=1;labelBackgroundColor=none;fontColor=default;" parent="bpIo6Ib_cnQscoKgqGLR-4" source="86GTZeO0Hbs-Rhm0ISFX-15" target="86GTZeO0Hbs-Rhm0ISFX-100" edge="1">
                    <mxGeometry relative="1" as="geometry">
                        <mxPoint x="673.44" y="139" as="sourcePoint"/>
                        <mxPoint x="669" y="74" as="targetPoint"/>
                    </mxGeometry>
                </mxCell>
                <mxCell id="86GTZeO0Hbs-Rhm0ISFX-89" value="" style="ellipse;whiteSpace=wrap;html=1;align=center;aspect=fixed;fillColor=none;resizable=0;perimeter=centerPerimeter;rotatable=0;allowArrows=0;points=[];outlineConnect=1;shadow=0;labelBackgroundColor=none;" parent="bpIo6Ib_cnQscoKgqGLR-4" vertex="1">
                    <mxGeometry x="637" y="115" width="10" height="10" as="geometry"/>
                </mxCell>
                <mxCell id="86GTZeO0Hbs-Rhm0ISFX-88" value="" style="rounded=0;orthogonalLoop=1;jettySize=auto;html=1;endArrow=oval;endFill=0;sourcePerimeterSpacing=0;targetPerimeterSpacing=0;endSize=10;edgeStyle=orthogonalEdgeStyle;shadow=0;labelBackgroundColor=none;fontColor=default;" parent="bpIo6Ib_cnQscoKgqGLR-4" source="86GTZeO0Hbs-Rhm0ISFX-33" target="86GTZeO0Hbs-Rhm0ISFX-89" edge="1">
                    <mxGeometry relative="1" as="geometry">
                        <mxPoint x="860" y="-396" as="sourcePoint"/>
                        <Array as="points">
                            <mxPoint x="555" y="161"/>
                            <mxPoint x="555" y="120"/>
                            <mxPoint x="599" y="120"/>
                        </Array>
                    </mxGeometry>
                </mxCell>
                <mxCell id="86GTZeO0Hbs-Rhm0ISFX-91" value="Stored items" style="edgeLabel;html=1;align=center;verticalAlign=middle;resizable=0;points=[];labelBackgroundColor=none;" parent="86GTZeO0Hbs-Rhm0ISFX-88" vertex="1" connectable="0">
                    <mxGeometry x="-0.3974" relative="1" as="geometry">
                        <mxPoint x="-9" as="offset"/>
                    </mxGeometry>
                </mxCell>
                <mxCell id="86GTZeO0Hbs-Rhm0ISFX-87" value="" style="rounded=0;orthogonalLoop=1;jettySize=auto;html=1;endArrow=halfCircle;endFill=0;endSize=6;strokeWidth=1;exitX=0;exitY=0;exitDx=0;exitDy=35;exitPerimeter=0;shadow=0;startArrow=classic;startFill=1;labelBackgroundColor=none;fontColor=default;" parent="bpIo6Ib_cnQscoKgqGLR-4" source="86GTZeO0Hbs-Rhm0ISFX-15" target="86GTZeO0Hbs-Rhm0ISFX-89" edge="1">
                    <mxGeometry relative="1" as="geometry">
                        <mxPoint x="796.94" y="143" as="sourcePoint"/>
                        <mxPoint x="664" y="146" as="targetPoint"/>
                    </mxGeometry>
                </mxCell>
                <mxCell id="86GTZeO0Hbs-Rhm0ISFX-80" value="" style="ellipse;whiteSpace=wrap;html=1;align=center;aspect=fixed;fillColor=none;resizable=0;perimeter=centerPerimeter;rotatable=0;allowArrows=0;points=[];outlineConnect=1;shadow=0;labelBackgroundColor=none;" parent="bpIo6Ib_cnQscoKgqGLR-4" vertex="1">
                    <mxGeometry x="632.48" y="258" width="10" height="10" as="geometry"/>
                </mxCell>
                <mxCell id="86GTZeO0Hbs-Rhm0ISFX-78" value="" style="rounded=0;orthogonalLoop=1;jettySize=auto;html=1;endArrow=halfCircle;endFill=0;endSize=6;strokeWidth=1;exitX=0;exitY=0;exitDx=0;exitDy=15;exitPerimeter=0;shadow=0;startArrow=classic;startFill=1;labelBackgroundColor=none;fontColor=default;" parent="bpIo6Ib_cnQscoKgqGLR-4" source="86GTZeO0Hbs-Rhm0ISFX-14" target="86GTZeO0Hbs-Rhm0ISFX-80" edge="1">
                    <mxGeometry relative="1" as="geometry">
                        <mxPoint x="703.48" y="283" as="sourcePoint"/>
                        <mxPoint x="684.9200000000001" y="289" as="targetPoint"/>
                        <Array as="points">
                            <mxPoint x="637.48" y="283"/>
                        </Array>
                    </mxGeometry>
                </mxCell>
                <mxCell id="XZn1DH3PBJOx24A4Sl1q-600" value="" style="rounded=0;orthogonalLoop=1;jettySize=auto;html=1;endArrow=halfCircle;endFill=0;endSize=6;strokeWidth=1;sketch=0;fontSize=12;exitX=0;exitY=0;exitDx=0;exitDy=35;exitPerimeter=0;startArrow=classic;startFill=1;labelBackgroundColor=none;fontColor=default;" parent="bpIo6Ib_cnQscoKgqGLR-4" source="86GTZeO0Hbs-Rhm0ISFX-14" target="XZn1DH3PBJOx24A4Sl1q-602" edge="1">
                    <mxGeometry relative="1" as="geometry">
                        <mxPoint x="711" y="330" as="sourcePoint"/>
                        <Array as="points">
                            <mxPoint x="637" y="303"/>
                        </Array>
                    </mxGeometry>
                </mxCell>
                <mxCell id="XZn1DH3PBJOx24A4Sl1q-601" value="World textures" style="rounded=0;orthogonalLoop=1;jettySize=auto;html=1;endArrow=oval;endFill=0;sketch=0;sourcePerimeterSpacing=0;targetPerimeterSpacing=0;endSize=10;fontSize=12;exitX=1;exitY=0.5;exitDx=0;exitDy=0;labelBackgroundColor=none;fontColor=default;" parent="bpIo6Ib_cnQscoKgqGLR-4" source="86GTZeO0Hbs-Rhm0ISFX-5" target="XZn1DH3PBJOx24A4Sl1q-602" edge="1">
                    <mxGeometry x="0.4889" relative="1" as="geometry">
                        <mxPoint x="608" y="366" as="sourcePoint"/>
                        <Array as="points">
                            <mxPoint x="637" y="394"/>
                        </Array>
                        <mxPoint as="offset"/>
                    </mxGeometry>
                </mxCell>
                <mxCell id="XZn1DH3PBJOx24A4Sl1q-602" value="" style="ellipse;whiteSpace=wrap;html=1;align=center;aspect=fixed;fillColor=none;strokeColor=none;resizable=0;perimeter=centerPerimeter;rotatable=0;allowArrows=0;points=[];outlineConnect=1;fontSize=16;labelBackgroundColor=none;" parent="bpIo6Ib_cnQscoKgqGLR-4" vertex="1">
                    <mxGeometry x="632.48" y="338" width="10" height="10" as="geometry"/>
                </mxCell>
                <mxCell id="XZn1DH3PBJOx24A4Sl1q-604" value="Controller" style="swimlane;whiteSpace=wrap;html=1;fontSize=16;labelBackgroundColor=none;" parent="bpIo6Ib_cnQscoKgqGLR-4" vertex="1">
                    <mxGeometry x="27" y="96" width="170" height="110" as="geometry"/>
                </mxCell>
                <mxCell id="86GTZeO0Hbs-Rhm0ISFX-41" value="User Controller" style="shape=module;align=left;spacingLeft=20;align=center;verticalAlign=middle;whiteSpace=wrap;html=1;labelBackgroundColor=none;" parent="XZn1DH3PBJOx24A4Sl1q-604" vertex="1">
                    <mxGeometry x="40" y="39" width="90" height="45" as="geometry"/>
                </mxCell>
                <mxCell id="86GTZeO0Hbs-Rhm0ISFX-79" value="" style="rounded=0;orthogonalLoop=1;jettySize=auto;html=1;endArrow=oval;endFill=0;sourcePerimeterSpacing=0;targetPerimeterSpacing=0;endSize=10;exitX=1;exitY=0.75;exitDx=0;exitDy=0;shadow=0;edgeStyle=orthogonalEdgeStyle;labelBackgroundColor=none;fontColor=default;" parent="bpIo6Ib_cnQscoKgqGLR-4" source="86GTZeO0Hbs-Rhm0ISFX-34" target="86GTZeO0Hbs-Rhm0ISFX-80" edge="1">
                    <mxGeometry relative="1" as="geometry">
                        <mxPoint x="835" y="-331.5" as="sourcePoint"/>
                        <mxPoint x="975" y="-259" as="targetPoint"/>
                    </mxGeometry>
                </mxCell>
                <mxCell id="86GTZeO0Hbs-Rhm0ISFX-81" value="Entity textures" style="edgeLabel;html=1;align=center;verticalAlign=middle;resizable=0;points=[];labelBackgroundColor=none;" parent="86GTZeO0Hbs-Rhm0ISFX-79" vertex="1" connectable="0">
                    <mxGeometry x="0.0424" relative="1" as="geometry">
                        <mxPoint x="28" y="11" as="offset"/>
                    </mxGeometry>
                </mxCell>
                <mxCell id="86GTZeO0Hbs-Rhm0ISFX-47" value="" style="rounded=0;orthogonalLoop=1;jettySize=auto;html=1;endArrow=oval;endFill=0;sketch=0;sourcePerimeterSpacing=0;targetPerimeterSpacing=0;endSize=10;entryX=0.295;entryY=0.692;entryDx=0;entryDy=0;entryPerimeter=0;exitX=1;exitY=0.5;exitDx=0;exitDy=0;labelBackgroundColor=none;fontColor=default;" parent="bpIo6Ib_cnQscoKgqGLR-4" source="86GTZeO0Hbs-Rhm0ISFX-41" target="86GTZeO0Hbs-Rhm0ISFX-48" edge="1">
                    <mxGeometry relative="1" as="geometry">
                        <mxPoint x="250" y="-384" as="sourcePoint"/>
                    </mxGeometry>
                </mxCell>
                <mxCell id="86GTZeO0Hbs-Rhm0ISFX-55" value="Input" style="edgeLabel;html=1;align=center;verticalAlign=middle;resizable=0;points=[];labelBackgroundColor=none;" parent="86GTZeO0Hbs-Rhm0ISFX-47" vertex="1" connectable="0">
                    <mxGeometry x="-0.5444" relative="1" as="geometry">
                        <mxPoint x="2" as="offset"/>
                    </mxGeometry>
                </mxCell>
                <mxCell id="bpIo6Ib_cnQscoKgqGLR-6" value="Class diagram" style="swimlane;fontSize=16;labelBackgroundColor=none;" parent="1" vertex="1">
                    <mxGeometry x="795" y="-206.5" width="1080" height="667" as="geometry"/>
                </mxCell>
                <mxCell id="BmFelIo98mYdnS1mh0zc-1" value=":Game" style="shape=umlLifeline;perimeter=lifelinePerimeter;whiteSpace=wrap;html=1;container=1;collapsible=0;recursiveResize=0;outlineConnect=0;rounded=1;shadow=0;comic=0;labelBackgroundColor=none;strokeWidth=1;fontFamily=Verdana;fontSize=12;align=center;" parent="bpIo6Ib_cnQscoKgqGLR-6" vertex="1">
                    <mxGeometry x="252" y="40" width="100" height="580" as="geometry"/>
                </mxCell>
                <mxCell id="BmFelIo98mYdnS1mh0zc-2" value="" style="html=1;points=[];perimeter=orthogonalPerimeter;rounded=0;shadow=0;comic=0;labelBackgroundColor=none;strokeWidth=1;fontFamily=Verdana;fontSize=12;align=center;" parent="BmFelIo98mYdnS1mh0zc-1" vertex="1">
                    <mxGeometry x="45" y="130" width="10" height="100" as="geometry"/>
                </mxCell>
                <mxCell id="BmFelIo98mYdnS1mh0zc-25" value="updateState()" style="html=1;verticalAlign=bottom;endArrow=block;labelBackgroundColor=none;fontFamily=Verdana;fontSize=12;edgeStyle=elbowEdgeStyle;elbow=vertical;rounded=0;exitX=1.133;exitY=0.101;exitDx=0;exitDy=0;exitPerimeter=0;fontColor=default;" parent="BmFelIo98mYdnS1mh0zc-1" target="BmFelIo98mYdnS1mh0zc-4" edge="1">
                    <mxGeometry x="0.0059" relative="1" as="geometry">
                        <mxPoint x="54.99999999999993" y="210.11" as="sourcePoint"/>
                        <mxPoint x="204.67" y="210.00333333333344" as="targetPoint"/>
                        <mxPoint as="offset"/>
                    </mxGeometry>
                </mxCell>
                <mxCell id="BmFelIo98mYdnS1mh0zc-12" value="itemInteraction()" style="html=1;verticalAlign=bottom;endArrow=block;labelBackgroundColor=none;fontFamily=Verdana;fontSize=12;edgeStyle=elbowEdgeStyle;elbow=vertical;rounded=0;fontColor=default;" parent="BmFelIo98mYdnS1mh0zc-1" target="BmFelIo98mYdnS1mh0zc-11" edge="1">
                    <mxGeometry x="0.0026" relative="1" as="geometry">
                        <mxPoint x="55" y="179.71000000000004" as="sourcePoint"/>
                        <Array as="points">
                            <mxPoint x="220" y="179.71000000000004"/>
                        </Array>
                        <mxPoint x="345" y="179.71000000000004" as="targetPoint"/>
                        <mxPoint as="offset"/>
                    </mxGeometry>
                </mxCell>
                <mxCell id="BmFelIo98mYdnS1mh0zc-69" value="stored items" style="html=1;verticalAlign=bottom;endArrow=open;dashed=1;endSize=8;labelBackgroundColor=none;fontFamily=Verdana;fontSize=12;edgeStyle=elbowEdgeStyle;elbow=vertical;rounded=0;fontColor=default;" parent="BmFelIo98mYdnS1mh0zc-1" edge="1">
                    <mxGeometry relative="1" as="geometry">
                        <mxPoint x="-180.18965517241395" y="289.99655172413816" as="targetPoint"/>
                        <mxPoint x="264.9999999999998" y="289.99655172413816" as="sourcePoint"/>
                    </mxGeometry>
                </mxCell>
                <mxCell id="BmFelIo98mYdnS1mh0zc-3" value=":GameState" style="shape=umlLifeline;perimeter=lifelinePerimeter;whiteSpace=wrap;html=1;container=1;collapsible=0;recursiveResize=0;outlineConnect=0;rounded=1;shadow=0;comic=0;labelBackgroundColor=none;strokeWidth=1;fontFamily=Verdana;fontSize=12;align=center;" parent="bpIo6Ib_cnQscoKgqGLR-6" vertex="1">
                    <mxGeometry x="362" y="40" width="100" height="580" as="geometry"/>
                </mxCell>
                <mxCell id="BmFelIo98mYdnS1mh0zc-4" value="" style="html=1;points=[];perimeter=orthogonalPerimeter;rounded=0;shadow=0;comic=0;labelBackgroundColor=none;strokeWidth=1;fontFamily=Verdana;fontSize=12;align=center;" parent="BmFelIo98mYdnS1mh0zc-3" vertex="1">
                    <mxGeometry x="46" y="190" width="10" height="80" as="geometry"/>
                </mxCell>
                <mxCell id="BmFelIo98mYdnS1mh0zc-5" value=":InventorySystem" style="shape=umlLifeline;perimeter=lifelinePerimeter;whiteSpace=wrap;html=1;container=1;collapsible=0;recursiveResize=0;outlineConnect=0;rounded=1;shadow=0;comic=0;labelBackgroundColor=none;strokeWidth=1;fontFamily=Verdana;fontSize=12;align=center;" parent="bpIo6Ib_cnQscoKgqGLR-6" vertex="1">
                    <mxGeometry x="472" y="40" width="100" height="580" as="geometry"/>
                </mxCell>
                <mxCell id="BmFelIo98mYdnS1mh0zc-11" value="" style="html=1;points=[];perimeter=orthogonalPerimeter;rounded=0;shadow=0;comic=0;labelBackgroundColor=none;strokeWidth=1;fontFamily=Verdana;fontSize=12;align=center;" parent="BmFelIo98mYdnS1mh0zc-5" vertex="1">
                    <mxGeometry x="45" y="160" width="10" height="150" as="geometry"/>
                </mxCell>
                <mxCell id="BmFelIo98mYdnS1mh0zc-6" value=":EntitiyManager" style="shape=umlLifeline;perimeter=lifelinePerimeter;whiteSpace=wrap;html=1;container=1;collapsible=0;recursiveResize=0;outlineConnect=0;rounded=1;shadow=0;comic=0;labelBackgroundColor=none;strokeWidth=1;fontFamily=Verdana;fontSize=12;align=center;" parent="bpIo6Ib_cnQscoKgqGLR-6" vertex="1">
                    <mxGeometry x="583" y="40" width="100" height="580" as="geometry"/>
                </mxCell>
                <mxCell id="BmFelIo98mYdnS1mh0zc-13" value="" style="html=1;points=[];perimeter=orthogonalPerimeter;rounded=0;shadow=0;comic=0;labelBackgroundColor=none;strokeWidth=1;fontFamily=Verdana;fontSize=12;align=center;" parent="BmFelIo98mYdnS1mh0zc-6" vertex="1">
                    <mxGeometry x="45" y="130" width="10" height="350" as="geometry"/>
                </mxCell>
                <mxCell id="BmFelIo98mYdnS1mh0zc-42" value="updateVel()" style="html=1;verticalAlign=bottom;endArrow=block;labelBackgroundColor=none;fontFamily=Verdana;fontSize=12;elbow=vertical;edgeStyle=orthogonalEdgeStyle;rounded=1;fontColor=default;" parent="BmFelIo98mYdnS1mh0zc-6" source="BmFelIo98mYdnS1mh0zc-13" target="BmFelIo98mYdnS1mh0zc-41" edge="1">
                    <mxGeometry x="0.6211" y="-7" relative="1" as="geometry">
                        <mxPoint x="55" y="160" as="sourcePoint"/>
                        <mxPoint x="60.333333333333485" y="208.33333333333348" as="targetPoint"/>
                        <Array as="points">
                            <mxPoint x="136" y="197"/>
                            <mxPoint x="136" y="230"/>
                        </Array>
                        <mxPoint as="offset"/>
                    </mxGeometry>
                </mxCell>
                <mxCell id="BmFelIo98mYdnS1mh0zc-41" value="" style="html=1;points=[];perimeter=orthogonalPerimeter;rounded=0;shadow=0;comic=0;labelBackgroundColor=none;strokeWidth=1;fontFamily=Verdana;fontSize=12;align=center;" parent="BmFelIo98mYdnS1mh0zc-6" vertex="1">
                    <mxGeometry x="50" y="220" width="10" height="20" as="geometry"/>
                </mxCell>
                <mxCell id="BmFelIo98mYdnS1mh0zc-64" value="screen texture" style="html=1;verticalAlign=bottom;endArrow=open;dashed=1;endSize=8;labelBackgroundColor=none;fontFamily=Verdana;fontSize=12;edgeStyle=elbowEdgeStyle;elbow=vertical;rounded=0;fontColor=default;" parent="BmFelIo98mYdnS1mh0zc-6" edge="1">
                    <mxGeometry relative="1" as="geometry">
                        <mxPoint x="-511.18965517241395" y="500.0013793103451" as="targetPoint"/>
                        <mxPoint x="394" y="500.0013793103451" as="sourcePoint"/>
                    </mxGeometry>
                </mxCell>
                <mxCell id="BmFelIo98mYdnS1mh0zc-7" value=":WorldSimulation" style="shape=umlLifeline;perimeter=lifelinePerimeter;whiteSpace=wrap;html=1;container=1;collapsible=0;recursiveResize=0;outlineConnect=0;rounded=1;shadow=0;comic=0;labelBackgroundColor=none;strokeWidth=1;fontFamily=Verdana;fontSize=12;align=center;" parent="bpIo6Ib_cnQscoKgqGLR-6" vertex="1">
                    <mxGeometry x="702" y="40" width="100" height="580" as="geometry"/>
                </mxCell>
                <mxCell id="BmFelIo98mYdnS1mh0zc-45" value="" style="html=1;points=[];perimeter=orthogonalPerimeter;rounded=0;shadow=0;comic=0;labelBackgroundColor=none;strokeWidth=1;fontFamily=Verdana;fontSize=12;align=center;" parent="BmFelIo98mYdnS1mh0zc-7" vertex="1">
                    <mxGeometry x="45" y="220" width="10" height="220" as="geometry"/>
                </mxCell>
                <mxCell id="BmFelIo98mYdnS1mh0zc-50" value="update" style="html=1;verticalAlign=bottom;endArrow=block;labelBackgroundColor=none;fontFamily=Verdana;fontSize=12;elbow=vertical;edgeStyle=orthogonalEdgeStyle;rounded=1;fontColor=default;" parent="BmFelIo98mYdnS1mh0zc-7" source="BmFelIo98mYdnS1mh0zc-45" target="BmFelIo98mYdnS1mh0zc-51" edge="1">
                    <mxGeometry x="0.7185" y="-7" relative="1" as="geometry">
                        <mxPoint x="55" y="240" as="sourcePoint"/>
                        <mxPoint x="60.333333333333485" y="288.3333333333335" as="targetPoint"/>
                        <Array as="points">
                            <mxPoint x="110" y="260"/>
                            <mxPoint x="110" y="290"/>
                        </Array>
                        <mxPoint as="offset"/>
                    </mxGeometry>
                </mxCell>
                <mxCell id="BmFelIo98mYdnS1mh0zc-51" value="" style="html=1;points=[];perimeter=orthogonalPerimeter;rounded=0;shadow=0;comic=0;labelBackgroundColor=none;strokeWidth=1;fontFamily=Verdana;fontSize=12;align=center;" parent="BmFelIo98mYdnS1mh0zc-7" vertex="1">
                    <mxGeometry x="50" y="280" width="10" height="80" as="geometry"/>
                </mxCell>
                <mxCell id="BmFelIo98mYdnS1mh0zc-49" value="setActiveEntities()" style="html=1;verticalAlign=bottom;endArrow=block;labelBackgroundColor=none;fontFamily=Verdana;fontSize=12;rounded=0;fontColor=default;" parent="BmFelIo98mYdnS1mh0zc-7" source="BmFelIo98mYdnS1mh0zc-13" edge="1">
                    <mxGeometry relative="1" as="geometry">
                        <mxPoint x="-85" y="250" as="sourcePoint"/>
                        <mxPoint x="45" y="250" as="targetPoint"/>
                    </mxGeometry>
                </mxCell>
                <mxCell id="BmFelIo98mYdnS1mh0zc-8" value=":WorldGenerator" style="shape=umlLifeline;perimeter=lifelinePerimeter;whiteSpace=wrap;html=1;container=1;collapsible=0;recursiveResize=0;outlineConnect=0;rounded=1;shadow=0;comic=0;labelBackgroundColor=none;strokeWidth=1;fontFamily=Verdana;fontSize=12;align=center;" parent="bpIo6Ib_cnQscoKgqGLR-6" vertex="1">
                    <mxGeometry x="822" y="40" width="100" height="580" as="geometry"/>
                </mxCell>
                <mxCell id="BmFelIo98mYdnS1mh0zc-18" value="" style="html=1;points=[];perimeter=orthogonalPerimeter;rounded=0;shadow=0;comic=0;labelBackgroundColor=none;strokeWidth=1;fontFamily=Verdana;fontSize=12;align=center;" parent="BmFelIo98mYdnS1mh0zc-8" vertex="1">
                    <mxGeometry x="45" y="326" width="10" height="80" as="geometry"/>
                </mxCell>
                <mxCell id="BmFelIo98mYdnS1mh0zc-55" value="chunk at (x, y)" style="html=1;verticalAlign=bottom;endArrow=open;dashed=1;endSize=8;labelBackgroundColor=none;fontFamily=Verdana;fontSize=12;edgeStyle=elbowEdgeStyle;elbow=vertical;rounded=0;fontColor=default;" parent="BmFelIo98mYdnS1mh0zc-8" target="BmFelIo98mYdnS1mh0zc-45" edge="1">
                    <mxGeometry relative="1" as="geometry">
                        <mxPoint x="-85" y="390" as="targetPoint"/>
                        <mxPoint x="45" y="390" as="sourcePoint"/>
                    </mxGeometry>
                </mxCell>
                <mxCell id="BmFelIo98mYdnS1mh0zc-9" value=":UserController" style="shape=umlLifeline;perimeter=lifelinePerimeter;whiteSpace=wrap;html=1;container=1;collapsible=0;recursiveResize=0;outlineConnect=0;rounded=1;shadow=0;comic=0;labelBackgroundColor=none;strokeWidth=1;fontFamily=Verdana;fontSize=12;align=center;" parent="bpIo6Ib_cnQscoKgqGLR-6" vertex="1">
                    <mxGeometry x="142" y="40" width="100" height="580" as="geometry"/>
                </mxCell>
                <mxCell id="BmFelIo98mYdnS1mh0zc-10" value="" style="html=1;points=[];perimeter=orthogonalPerimeter;rounded=0;shadow=0;comic=0;labelBackgroundColor=none;strokeWidth=1;fontFamily=Verdana;fontSize=12;align=center;" parent="BmFelIo98mYdnS1mh0zc-9" vertex="1">
                    <mxGeometry x="45" y="100" width="10" height="100" as="geometry"/>
                </mxCell>
                <mxCell id="BmFelIo98mYdnS1mh0zc-53" value="&lt;div&gt;[out of borders]&lt;/div&gt;&lt;div&gt;newChunk(x, y)&lt;/div&gt;" style="html=1;verticalAlign=bottom;endArrow=block;labelBackgroundColor=none;fontFamily=Verdana;fontSize=12;elbow=vertical;edgeStyle=orthogonalEdgeStyle;curved=1;rounded=0;fontColor=default;" parent="bpIo6Ib_cnQscoKgqGLR-6" source="BmFelIo98mYdnS1mh0zc-51" target="BmFelIo98mYdnS1mh0zc-18" edge="1">
                    <mxGeometry x="-0.0019" relative="1" as="geometry">
                        <mxPoint x="917" y="400" as="sourcePoint"/>
                        <mxPoint x="922" y="450" as="targetPoint"/>
                        <Array as="points">
                            <mxPoint x="812" y="380"/>
                            <mxPoint x="812" y="380"/>
                        </Array>
                        <mxPoint as="offset"/>
                    </mxGeometry>
                </mxCell>
                <mxCell id="BmFelIo98mYdnS1mh0zc-56" value=":WorldRenderer" style="shape=umlLifeline;perimeter=lifelinePerimeter;whiteSpace=wrap;html=1;container=1;collapsible=0;recursiveResize=0;outlineConnect=0;rounded=1;shadow=0;comic=0;labelBackgroundColor=none;strokeWidth=1;fontFamily=Verdana;fontSize=12;align=center;" parent="bpIo6Ib_cnQscoKgqGLR-6" vertex="1">
                    <mxGeometry x="932" y="40" width="100" height="580" as="geometry"/>
                </mxCell>
                <mxCell id="BmFelIo98mYdnS1mh0zc-57" value="" style="html=1;points=[];perimeter=orthogonalPerimeter;rounded=0;shadow=0;comic=0;labelBackgroundColor=none;strokeWidth=1;fontFamily=Verdana;fontSize=12;align=center;" parent="BmFelIo98mYdnS1mh0zc-56" vertex="1">
                    <mxGeometry x="45" y="420" width="10" height="90" as="geometry"/>
                </mxCell>
                <mxCell id="BmFelIo98mYdnS1mh0zc-59" value="renderChunks()" style="html=1;verticalAlign=bottom;endArrow=block;labelBackgroundColor=none;fontFamily=Verdana;fontSize=12;elbow=vertical;edgeStyle=orthogonalEdgeStyle;curved=1;rounded=0;fontColor=default;" parent="bpIo6Ib_cnQscoKgqGLR-6" source="BmFelIo98mYdnS1mh0zc-45" target="BmFelIo98mYdnS1mh0zc-57" edge="1">
                    <mxGeometry relative="1" as="geometry">
                        <mxPoint x="902" y="460" as="sourcePoint"/>
                        <mxPoint x="1182" y="460" as="targetPoint"/>
                        <Array as="points">
                            <mxPoint x="922" y="470"/>
                            <mxPoint x="922" y="470"/>
                        </Array>
                    </mxGeometry>
                </mxCell>
                <mxCell id="BmFelIo98mYdnS1mh0zc-61" value="renderEntities()" style="html=1;verticalAlign=bottom;endArrow=block;labelBackgroundColor=none;fontFamily=Verdana;fontSize=12;elbow=vertical;edgeStyle=orthogonalEdgeStyle;curved=1;rounded=0;fontColor=default;" parent="bpIo6Ib_cnQscoKgqGLR-6" source="BmFelIo98mYdnS1mh0zc-13" target="BmFelIo98mYdnS1mh0zc-57" edge="1">
                    <mxGeometry relative="1" as="geometry">
                        <mxPoint x="747" y="500" as="sourcePoint"/>
                        <mxPoint x="1027" y="500" as="targetPoint"/>
                        <Array as="points">
                            <mxPoint x="812" y="500"/>
                            <mxPoint x="812" y="500"/>
                        </Array>
                    </mxGeometry>
                </mxCell>
                <mxCell id="BmFelIo98mYdnS1mh0zc-62" value=":GUI" style="shape=umlLifeline;perimeter=lifelinePerimeter;whiteSpace=wrap;html=1;container=1;collapsible=0;recursiveResize=0;outlineConnect=0;rounded=1;shadow=0;comic=0;labelBackgroundColor=none;strokeWidth=1;fontFamily=Verdana;fontSize=12;align=center;" parent="bpIo6Ib_cnQscoKgqGLR-6" vertex="1">
                    <mxGeometry x="22" y="40" width="100" height="580" as="geometry"/>
                </mxCell>
                <mxCell id="BmFelIo98mYdnS1mh0zc-63" value="" style="html=1;points=[];perimeter=orthogonalPerimeter;rounded=0;shadow=0;comic=0;labelBackgroundColor=none;strokeWidth=1;fontFamily=Verdana;fontSize=12;align=center;" parent="BmFelIo98mYdnS1mh0zc-62" vertex="1">
                    <mxGeometry x="45" y="60" width="10" height="140" as="geometry"/>
                </mxCell>
                <mxCell id="BmFelIo98mYdnS1mh0zc-24" value="processInput()" style="html=1;verticalAlign=bottom;endArrow=block;entryX=0;entryY=0;labelBackgroundColor=none;fontFamily=Verdana;fontSize=12;edgeStyle=elbowEdgeStyle;elbow=vertical;rounded=0;fontColor=default;" parent="bpIo6Ib_cnQscoKgqGLR-6" source="BmFelIo98mYdnS1mh0zc-10" edge="1">
                    <mxGeometry relative="1" as="geometry">
                        <mxPoint x="167" y="180.23809523809496" as="sourcePoint"/>
                        <mxPoint x="297" y="180" as="targetPoint"/>
                    </mxGeometry>
                </mxCell>
                <mxCell id="BmFelIo98mYdnS1mh0zc-67" value="render()" style="html=1;verticalAlign=bottom;endArrow=block;labelBackgroundColor=none;fontFamily=Verdana;fontSize=12;elbow=vertical;edgeStyle=orthogonalEdgeStyle;rounded=1;fontColor=default;" parent="bpIo6Ib_cnQscoKgqGLR-6" source="BmFelIo98mYdnS1mh0zc-63" target="BmFelIo98mYdnS1mh0zc-68" edge="1">
                    <mxGeometry x="0.6434" y="-4" relative="1" as="geometry">
                        <mxPoint x="27" y="110" as="sourcePoint"/>
                        <mxPoint x="32.333333333333485" y="138.33333333333348" as="targetPoint"/>
                        <Array as="points">
                            <mxPoint x="131" y="109"/>
                            <mxPoint x="131" y="135"/>
                        </Array>
                        <mxPoint as="offset"/>
                    </mxGeometry>
                </mxCell>
                <mxCell id="BmFelIo98mYdnS1mh0zc-68" value="" style="html=1;points=[];perimeter=orthogonalPerimeter;rounded=0;shadow=0;comic=0;labelBackgroundColor=none;strokeWidth=1;fontFamily=Verdana;fontSize=12;align=center;" parent="bpIo6Ib_cnQscoKgqGLR-6" vertex="1">
                    <mxGeometry x="72" y="120" width="10" height="29" as="geometry"/>
                </mxCell>
                <mxCell id="BmFelIo98mYdnS1mh0zc-70" value="player stats" style="html=1;verticalAlign=bottom;endArrow=open;dashed=1;endSize=8;labelBackgroundColor=none;fontFamily=Verdana;fontSize=12;edgeStyle=elbowEdgeStyle;elbow=vertical;rounded=0;fontColor=default;" parent="bpIo6Ib_cnQscoKgqGLR-6" source="BmFelIo98mYdnS1mh0zc-4" target="BmFelIo98mYdnS1mh0zc-62" edge="1">
                    <mxGeometry relative="1" as="geometry">
                        <mxPoint x="-118.07142857142856" y="290.00285714285735" as="targetPoint"/>
                        <mxPoint x="457.00000000000006" y="290.00285714285735" as="sourcePoint"/>
                        <Array as="points">
                            <mxPoint x="382" y="300"/>
                        </Array>
                    </mxGeometry>
                </mxCell>
                <mxCell id="BmFelIo98mYdnS1mh0zc-39" value="movePlayer()" style="html=1;verticalAlign=bottom;endArrow=block;labelBackgroundColor=none;fontFamily=Verdana;fontSize=12;edgeStyle=elbowEdgeStyle;elbow=vertical;rounded=0;fontColor=default;" parent="bpIo6Ib_cnQscoKgqGLR-6" source="BmFelIo98mYdnS1mh0zc-2" target="BmFelIo98mYdnS1mh0zc-13" edge="1">
                    <mxGeometry x="0.0026" relative="1" as="geometry">
                        <mxPoint x="307" y="150" as="sourcePoint"/>
                        <Array as="points">
                            <mxPoint x="422" y="190"/>
                            <mxPoint x="311" y="150"/>
                        </Array>
                        <mxPoint x="436" y="150" as="targetPoint"/>
                        <mxPoint as="offset"/>
                    </mxGeometry>
                </mxCell>
                <mxCell id="BmFelIo98mYdnS1mh0zc-65" style="edgeStyle=orthogonalEdgeStyle;rounded=0;orthogonalLoop=1;jettySize=auto;html=1;labelBackgroundColor=none;fontColor=default;" parent="bpIo6Ib_cnQscoKgqGLR-6" source="BmFelIo98mYdnS1mh0zc-63" target="BmFelIo98mYdnS1mh0zc-10" edge="1">
                    <mxGeometry relative="1" as="geometry">
                        <mxPoint x="27" y="180" as="sourcePoint"/>
                        <mxPoint x="187" y="181.0114942528735" as="targetPoint"/>
                        <Array as="points">
                            <mxPoint x="162" y="170"/>
                            <mxPoint x="162" y="170"/>
                        </Array>
                    </mxGeometry>
                </mxCell>
                <mxCell id="BmFelIo98mYdnS1mh0zc-66" value="processInput()" style="edgeLabel;html=1;align=center;verticalAlign=middle;resizable=0;points=[];labelBackgroundColor=none;" parent="BmFelIo98mYdnS1mh0zc-65" vertex="1" connectable="0">
                    <mxGeometry x="-0.096" y="-1" relative="1" as="geometry">
                        <mxPoint x="6" y="-11" as="offset"/>
                    </mxGeometry>
                </mxCell>
                <mxCell id="bpIo6Ib_cnQscoKgqGLR-150" value="Use case diagram" style="swimlane;fontSize=16;labelBackgroundColor=none;" parent="1" vertex="1">
                    <mxGeometry x="-1653" y="524" width="622" height="430" as="geometry"/>
                </mxCell>
                <mxCell id="bpIo6Ib_cnQscoKgqGLR-65" value="Player" style="shape=umlActor;verticalLabelPosition=bottom;verticalAlign=top;html=1;outlineConnect=0;fontSize=16;labelBackgroundColor=none;" parent="bpIo6Ib_cnQscoKgqGLR-150" vertex="1">
                    <mxGeometry x="25" y="235" width="30" height="60" as="geometry"/>
                </mxCell>
                <mxCell id="bpIo6Ib_cnQscoKgqGLR-67" value="Sandforge" style="swimlane;fontSize=16;labelBackgroundColor=none;" parent="bpIo6Ib_cnQscoKgqGLR-150" vertex="1">
                    <mxGeometry x="127" y="59" width="355" height="323" as="geometry"/>
                </mxCell>
                <mxCell id="bpIo6Ib_cnQscoKgqGLR-129" value="Explore world" style="ellipse;whiteSpace=wrap;html=1;fontSize=16;labelBackgroundColor=none;" parent="bpIo6Ib_cnQscoKgqGLR-67" vertex="1">
                    <mxGeometry x="38.5" y="33" width="120" height="45" as="geometry"/>
                </mxCell>
                <mxCell id="bpIo6Ib_cnQscoKgqGLR-130" value="Modify terrain" style="ellipse;whiteSpace=wrap;html=1;fontSize=16;labelBackgroundColor=none;" parent="bpIo6Ib_cnQscoKgqGLR-67" vertex="1">
                    <mxGeometry x="38.5" y="113" width="120" height="45" as="geometry"/>
                </mxCell>
                <mxCell id="bpIo6Ib_cnQscoKgqGLR-131" value="Use items" style="ellipse;whiteSpace=wrap;html=1;fontSize=16;labelBackgroundColor=none;" parent="bpIo6Ib_cnQscoKgqGLR-67" vertex="1">
                    <mxGeometry x="38.5" y="268" width="120" height="45" as="geometry"/>
                </mxCell>
                <mxCell id="bpIo6Ib_cnQscoKgqGLR-137" style="edgeStyle=none;curved=1;rounded=0;orthogonalLoop=1;jettySize=auto;html=1;fontSize=12;startSize=8;endSize=8;entryX=1;entryY=0.5;entryDx=0;entryDy=0;labelBackgroundColor=none;fontColor=default;" parent="bpIo6Ib_cnQscoKgqGLR-67" source="bpIo6Ib_cnQscoKgqGLR-135" target="bpIo6Ib_cnQscoKgqGLR-129" edge="1">
                    <mxGeometry relative="1" as="geometry"/>
                </mxCell>
                <mxCell id="bpIo6Ib_cnQscoKgqGLR-135" value="Generate unique world" style="ellipse;whiteSpace=wrap;html=1;fontSize=16;labelBackgroundColor=none;" parent="bpIo6Ib_cnQscoKgqGLR-67" vertex="1">
                    <mxGeometry x="199.5" y="33" width="120" height="45" as="geometry"/>
                </mxCell>
                <mxCell id="bpIo6Ib_cnQscoKgqGLR-69" value="Interact with UI" style="ellipse;whiteSpace=wrap;html=1;fontSize=16;labelBackgroundColor=none;" parent="bpIo6Ib_cnQscoKgqGLR-67" vertex="1">
                    <mxGeometry x="35.5" y="187" width="120" height="45" as="geometry"/>
                </mxCell>
                <mxCell id="bpIo6Ib_cnQscoKgqGLR-146" value="Attack player" style="ellipse;whiteSpace=wrap;html=1;fontSize=16;labelBackgroundColor=none;" parent="bpIo6Ib_cnQscoKgqGLR-67" vertex="1">
                    <mxGeometry x="199.5" y="113" width="120" height="45" as="geometry"/>
                </mxCell>
                <mxCell id="bpIo6Ib_cnQscoKgqGLR-147" value="Wander around" style="ellipse;whiteSpace=wrap;html=1;fontSize=16;labelBackgroundColor=none;" parent="bpIo6Ib_cnQscoKgqGLR-67" vertex="1">
                    <mxGeometry x="199.5" y="194" width="120" height="45" as="geometry"/>
                </mxCell>
                <mxCell id="bpIo6Ib_cnQscoKgqGLR-138" style="edgeStyle=none;curved=1;rounded=0;orthogonalLoop=1;jettySize=auto;html=1;fontSize=12;startSize=8;endSize=8;entryX=0;entryY=0.5;entryDx=0;entryDy=0;labelBackgroundColor=none;fontColor=default;" parent="bpIo6Ib_cnQscoKgqGLR-150" source="bpIo6Ib_cnQscoKgqGLR-65" target="bpIo6Ib_cnQscoKgqGLR-129" edge="1">
                    <mxGeometry relative="1" as="geometry"/>
                </mxCell>
                <mxCell id="bpIo6Ib_cnQscoKgqGLR-140" style="edgeStyle=none;curved=1;rounded=0;orthogonalLoop=1;jettySize=auto;html=1;fontSize=12;startSize=8;endSize=8;entryX=0;entryY=0.5;entryDx=0;entryDy=0;labelBackgroundColor=none;fontColor=default;" parent="bpIo6Ib_cnQscoKgqGLR-150" source="bpIo6Ib_cnQscoKgqGLR-65" target="bpIo6Ib_cnQscoKgqGLR-130" edge="1">
                    <mxGeometry relative="1" as="geometry"/>
                </mxCell>
                <mxCell id="bpIo6Ib_cnQscoKgqGLR-141" style="edgeStyle=none;curved=1;rounded=0;orthogonalLoop=1;jettySize=auto;html=1;fontSize=12;startSize=8;endSize=8;entryX=0;entryY=0.5;entryDx=0;entryDy=0;labelBackgroundColor=none;fontColor=default;" parent="bpIo6Ib_cnQscoKgqGLR-150" source="bpIo6Ib_cnQscoKgqGLR-65" target="bpIo6Ib_cnQscoKgqGLR-131" edge="1">
                    <mxGeometry relative="1" as="geometry"/>
                </mxCell>
                <mxCell id="bpIo6Ib_cnQscoKgqGLR-142" style="edgeStyle=none;curved=1;rounded=0;orthogonalLoop=1;jettySize=auto;html=1;fontSize=12;startSize=8;endSize=8;entryX=0;entryY=0.5;entryDx=0;entryDy=0;labelBackgroundColor=none;fontColor=default;" parent="bpIo6Ib_cnQscoKgqGLR-150" source="bpIo6Ib_cnQscoKgqGLR-65" target="bpIo6Ib_cnQscoKgqGLR-69" edge="1">
                    <mxGeometry relative="1" as="geometry"/>
                </mxCell>
                <mxCell id="bpIo6Ib_cnQscoKgqGLR-136" style="edgeStyle=none;curved=1;rounded=0;orthogonalLoop=1;jettySize=auto;html=1;fontSize=12;startSize=8;endSize=8;entryX=1;entryY=0.5;entryDx=0;entryDy=0;labelBackgroundColor=none;fontColor=default;" parent="bpIo6Ib_cnQscoKgqGLR-150" source="bpIo6Ib_cnQscoKgqGLR-133" target="bpIo6Ib_cnQscoKgqGLR-135" edge="1">
                    <mxGeometry relative="1" as="geometry"/>
                </mxCell>
                <mxCell id="bpIo6Ib_cnQscoKgqGLR-133" value="Game manager" style="shape=umlActor;verticalLabelPosition=bottom;verticalAlign=top;html=1;outlineConnect=0;fontSize=16;labelBackgroundColor=none;" parent="bpIo6Ib_cnQscoKgqGLR-150" vertex="1">
                    <mxGeometry x="535" y="72.5" width="30" height="60" as="geometry"/>
                </mxCell>
                <mxCell id="bpIo6Ib_cnQscoKgqGLR-148" style="edgeStyle=none;curved=1;rounded=0;orthogonalLoop=1;jettySize=auto;html=1;entryX=1;entryY=0.5;entryDx=0;entryDy=0;fontSize=12;startSize=8;endSize=8;labelBackgroundColor=none;fontColor=default;" parent="bpIo6Ib_cnQscoKgqGLR-150" source="bpIo6Ib_cnQscoKgqGLR-145" target="bpIo6Ib_cnQscoKgqGLR-146" edge="1">
                    <mxGeometry relative="1" as="geometry"/>
                </mxCell>
                <mxCell id="bpIo6Ib_cnQscoKgqGLR-149" style="edgeStyle=none;curved=1;rounded=0;orthogonalLoop=1;jettySize=auto;html=1;entryX=1;entryY=0.5;entryDx=0;entryDy=0;fontSize=12;startSize=8;endSize=8;labelBackgroundColor=none;fontColor=default;" parent="bpIo6Ib_cnQscoKgqGLR-150" source="bpIo6Ib_cnQscoKgqGLR-145" target="bpIo6Ib_cnQscoKgqGLR-147" edge="1">
                    <mxGeometry relative="1" as="geometry"/>
                </mxCell>
                <mxCell id="bpIo6Ib_cnQscoKgqGLR-145" value="Enemies" style="shape=umlActor;verticalLabelPosition=bottom;verticalAlign=top;html=1;outlineConnect=0;fontSize=16;labelBackgroundColor=none;" parent="bpIo6Ib_cnQscoKgqGLR-150" vertex="1">
                    <mxGeometry x="535" y="197" width="30" height="60" as="geometry"/>
                </mxCell>
                <mxCell id="XZn1DH3PBJOx24A4Sl1q-373" value="Class diagram" style="swimlane;whiteSpace=wrap;html=1;fontSize=16;labelBackgroundColor=none;" parent="1" vertex="1">
                    <mxGeometry x="-2359" y="-982" width="1717" height="1304" as="geometry"/>
                </mxCell>
                <mxCell id="XZn1DH3PBJOx24A4Sl1q-467" value="Chunk" style="swimlane;fontStyle=1;align=center;verticalAlign=top;childLayout=stackLayout;horizontal=1;startSize=26;horizontalStack=0;resizeParent=1;resizeLast=0;collapsible=1;marginBottom=0;rounded=0;shadow=0;strokeWidth=1;labelBackgroundColor=none;" parent="XZn1DH3PBJOx24A4Sl1q-373" vertex="1">
                    <mxGeometry x="1062" y="597" width="188" height="160" as="geometry">
                        <mxRectangle x="230" y="140" width="160" height="26" as="alternateBounds"/>
                    </mxGeometry>
                </mxCell>
                <mxCell id="XZn1DH3PBJOx24A4Sl1q-468" value="- cell_count: int" style="text;align=left;verticalAlign=top;spacingLeft=4;spacingRight=4;overflow=hidden;rotatable=0;points=[[0,0.5],[1,0.5]];portConstraint=eastwest;labelBackgroundColor=none;" parent="XZn1DH3PBJOx24A4Sl1q-467" vertex="1">
                    <mxGeometry y="26" width="188" height="21" as="geometry"/>
                </mxCell>
                <mxCell id="XZn1DH3PBJOx24A4Sl1q-469" value="" style="line;html=1;strokeWidth=1;align=left;verticalAlign=middle;spacingTop=-1;spacingLeft=3;spacingRight=3;rotatable=0;labelPosition=right;points=[];portConstraint=eastwest;labelBackgroundColor=none;" parent="XZn1DH3PBJOx24A4Sl1q-467" vertex="1">
                    <mxGeometry y="47" width="188" height="12" as="geometry"/>
                </mxCell>
                <mxCell id="XZn1DH3PBJOx24A4Sl1q-470" value="+ get_position(): ChunkPos&#10;+ update(World)+ get_cell(int, int): Cell&#10;+ set_cell(int, int, Cell) &#10;+ swap_cells(int, int, int, int)&#10;+ create_texture(): Texture&#10;+ create_colliders(): Collider[0..*]&#10;" style="text;align=left;verticalAlign=top;spacingLeft=4;spacingRight=4;overflow=hidden;rotatable=0;points=[[0,0.5],[1,0.5]];portConstraint=eastwest;labelBackgroundColor=none;" parent="XZn1DH3PBJOx24A4Sl1q-467" vertex="1">
                    <mxGeometry y="59" width="188" height="100" as="geometry"/>
                </mxCell>
                <mxCell id="XZn1DH3PBJOx24A4Sl1q-471" value="Cell" style="swimlane;fontStyle=1;align=center;verticalAlign=top;childLayout=stackLayout;horizontal=1;startSize=26;horizontalStack=0;resizeParent=1;resizeLast=0;collapsible=1;marginBottom=0;rounded=0;shadow=0;strokeWidth=1;labelBackgroundColor=none;" parent="XZn1DH3PBJOx24A4Sl1q-373" vertex="1">
                    <mxGeometry x="1076.5" y="835" width="159" height="144" as="geometry">
                        <mxRectangle x="230" y="140" width="160" height="26" as="alternateBounds"/>
                    </mxGeometry>
                </mxCell>
                <mxCell id="XZn1DH3PBJOx24A4Sl1q-472" value="+ ra: int&#10;+ rb: int&#10;+ clock: int" style="text;align=left;verticalAlign=top;spacingLeft=4;spacingRight=4;overflow=hidden;rotatable=0;points=[[0,0.5],[1,0.5]];portConstraint=eastwest;rounded=0;shadow=0;html=0;labelBackgroundColor=none;" parent="XZn1DH3PBJOx24A4Sl1q-471" vertex="1">
                    <mxGeometry y="26" width="159" height="50" as="geometry"/>
                </mxCell>
                <mxCell id="XZn1DH3PBJOx24A4Sl1q-473" value="" style="line;html=1;strokeWidth=1;align=left;verticalAlign=middle;spacingTop=-1;spacingLeft=3;spacingRight=3;rotatable=0;labelPosition=right;points=[];portConstraint=eastwest;labelBackgroundColor=none;" parent="XZn1DH3PBJOx24A4Sl1q-471" vertex="1">
                    <mxGeometry y="76" width="159" height="14" as="geometry"/>
                </mxCell>
                <mxCell id="XZn1DH3PBJOx24A4Sl1q-474" value="+ update(ChunkAPI)&#10;+ get_element(): Element&#10;+ get_simulation(): Simulation&#10;" style="text;align=left;verticalAlign=top;spacingLeft=4;spacingRight=4;overflow=hidden;rotatable=0;points=[[0,0.5],[1,0.5]];portConstraint=eastwest;labelBackgroundColor=none;" parent="XZn1DH3PBJOx24A4Sl1q-471" vertex="1">
                    <mxGeometry y="90" width="159" height="54" as="geometry"/>
                </mxCell>
                <mxCell id="XZn1DH3PBJOx24A4Sl1q-475" value="Element" style="swimlane;fontStyle=1;align=center;verticalAlign=top;childLayout=stackLayout;horizontal=1;startSize=26;horizontalStack=0;resizeParent=1;resizeLast=0;collapsible=1;marginBottom=0;rounded=0;shadow=0;strokeWidth=1;labelBackgroundColor=none;" parent="XZn1DH3PBJOx24A4Sl1q-373" vertex="1">
                    <mxGeometry x="1250" y="998" width="130" height="151" as="geometry">
                        <mxRectangle x="230" y="140" width="160" height="26" as="alternateBounds"/>
                    </mxGeometry>
                </mxCell>
                <mxCell id="XZn1DH3PBJOx24A4Sl1q-476" value="- name: String&#10;- color: int[4]&#10;- matter: Matter" style="text;align=left;verticalAlign=top;spacingLeft=4;spacingRight=4;overflow=hidden;rotatable=0;points=[[0,0.5],[1,0.5]];portConstraint=eastwest;rounded=0;shadow=0;html=0;labelBackgroundColor=none;" parent="XZn1DH3PBJOx24A4Sl1q-475" vertex="1">
                    <mxGeometry y="26" width="130" height="54" as="geometry"/>
                </mxCell>
                <mxCell id="XZn1DH3PBJOx24A4Sl1q-477" value="" style="line;html=1;strokeWidth=1;align=left;verticalAlign=middle;spacingTop=-1;spacingLeft=3;spacingRight=3;rotatable=0;labelPosition=right;points=[];portConstraint=eastwest;labelBackgroundColor=none;" parent="XZn1DH3PBJOx24A4Sl1q-475" vertex="1">
                    <mxGeometry y="80" width="130" height="14" as="geometry"/>
                </mxCell>
                <mxCell id="XZn1DH3PBJOx24A4Sl1q-478" value="get_name(): String&#10;get_color: int[4]&#10;get_matter: Matter&#10;" style="text;align=left;verticalAlign=top;spacingLeft=4;spacingRight=4;overflow=hidden;rotatable=0;points=[[0,0.5],[1,0.5]];portConstraint=eastwest;labelBackgroundColor=none;" parent="XZn1DH3PBJOx24A4Sl1q-475" vertex="1">
                    <mxGeometry y="94" width="130" height="54" as="geometry"/>
                </mxCell>
                <mxCell id="XZn1DH3PBJOx24A4Sl1q-479" value="Particle" style="swimlane;fontStyle=1;align=center;verticalAlign=top;childLayout=stackLayout;horizontal=1;startSize=58;horizontalStack=0;resizeParent=1;resizeLast=0;collapsible=1;marginBottom=0;rounded=0;shadow=0;strokeWidth=1;labelBackgroundColor=none;" parent="XZn1DH3PBJOx24A4Sl1q-373" vertex="1">
                    <mxGeometry x="826.5" y="837" width="83" height="30" as="geometry">
                        <mxRectangle x="230" y="140" width="160" height="26" as="alternateBounds"/>
                    </mxGeometry>
                </mxCell>
                <mxCell id="XZn1DH3PBJOx24A4Sl1q-480" value="" style="endArrow=block;dashed=1;endFill=0;endSize=12;html=1;rounded=0;exitX=0.5;exitY=1;exitDx=0;exitDy=0;labelBackgroundColor=none;fontColor=default;" parent="XZn1DH3PBJOx24A4Sl1q-373" source="XZn1DH3PBJOx24A4Sl1q-479" target="XZn1DH3PBJOx24A4Sl1q-481" edge="1">
                    <mxGeometry width="160" relative="1" as="geometry">
                        <mxPoint x="833" y="797" as="sourcePoint"/>
                        <mxPoint x="866" y="713" as="targetPoint"/>
                    </mxGeometry>
                </mxCell>
                <mxCell id="XZn1DH3PBJOx24A4Sl1q-481" value="&lt;&lt;Interface&gt;&gt;&#10;Simulation" style="swimlane;fontStyle=1;align=center;verticalAlign=top;childLayout=stackLayout;horizontal=1;startSize=44;horizontalStack=0;resizeParent=1;resizeLast=0;collapsible=1;marginBottom=0;rounded=0;shadow=0;strokeWidth=1;labelBackgroundColor=none;" parent="XZn1DH3PBJOx24A4Sl1q-373" vertex="1">
                    <mxGeometry x="793" y="925" width="150" height="70" as="geometry">
                        <mxRectangle x="230" y="140" width="160" height="26" as="alternateBounds"/>
                    </mxGeometry>
                </mxCell>
                <mxCell id="XZn1DH3PBJOx24A4Sl1q-482" value="# update(Cell)" style="text;align=left;verticalAlign=top;spacingLeft=4;spacingRight=4;overflow=hidden;rotatable=0;points=[[0,0.5],[1,0.5]];portConstraint=eastwest;labelBackgroundColor=none;" parent="XZn1DH3PBJOx24A4Sl1q-481" vertex="1">
                    <mxGeometry y="44" width="150" height="20" as="geometry"/>
                </mxCell>
                <mxCell id="XZn1DH3PBJOx24A4Sl1q-484" value="&lt;div&gt;&amp;lt;&amp;lt;Interface&amp;gt;&amp;gt;&lt;/div&gt;&lt;div&gt;Matter&lt;br&gt;&lt;/div&gt;" style="swimlane;fontStyle=1;align=center;verticalAlign=top;childLayout=stackLayout;horizontal=1;startSize=40;horizontalStack=0;resizeParent=1;resizeParentMax=0;resizeLast=0;collapsible=1;marginBottom=0;whiteSpace=wrap;html=1;labelBackgroundColor=none;" parent="XZn1DH3PBJOx24A4Sl1q-373" vertex="1">
                    <mxGeometry x="981.5" y="1038.5" width="120" height="70" as="geometry"/>
                </mxCell>
                <mxCell id="XZn1DH3PBJOx24A4Sl1q-485" value="# update(Cell) " style="text;strokeColor=none;fillColor=none;align=left;verticalAlign=top;spacingLeft=4;spacingRight=4;overflow=hidden;rotatable=0;points=[[0,0.5],[1,0.5]];portConstraint=eastwest;whiteSpace=wrap;html=1;labelBackgroundColor=none;" parent="XZn1DH3PBJOx24A4Sl1q-484" vertex="1">
                    <mxGeometry y="40" width="120" height="30" as="geometry"/>
                </mxCell>
                <mxCell id="XZn1DH3PBJOx24A4Sl1q-486" value="Static" style="whiteSpace=wrap;html=1;verticalAlign=top;fontStyle=1;startSize=40;labelBackgroundColor=none;" parent="XZn1DH3PBJOx24A4Sl1q-373" vertex="1">
                    <mxGeometry x="929.5" y="1155.5" width="70" height="30" as="geometry"/>
                </mxCell>
                <mxCell id="XZn1DH3PBJOx24A4Sl1q-487" value="" style="orthogonalLoop=1;jettySize=auto;html=1;endArrow=none;endFill=0;startArrow=block;startFill=0;rounded=0;dashed=1;endSize=12;startSize=12;labelBackgroundColor=none;fontColor=default;" parent="XZn1DH3PBJOx24A4Sl1q-373" source="XZn1DH3PBJOx24A4Sl1q-484" target="XZn1DH3PBJOx24A4Sl1q-488" edge="1">
                    <mxGeometry relative="1" as="geometry">
                        <mxPoint x="983" y="1133.3440514469453" as="sourcePoint"/>
                    </mxGeometry>
                </mxCell>
                <mxCell id="XZn1DH3PBJOx24A4Sl1q-488" value="Powder" style="whiteSpace=wrap;html=1;verticalAlign=top;fontStyle=1;startSize=40;labelBackgroundColor=none;" parent="XZn1DH3PBJOx24A4Sl1q-373" vertex="1">
                    <mxGeometry x="852.5" y="1155.5" width="70" height="30" as="geometry"/>
                </mxCell>
                <mxCell id="XZn1DH3PBJOx24A4Sl1q-489" value="" style="orthogonalLoop=1;jettySize=auto;html=1;endArrow=none;endFill=0;startArrow=block;startFill=0;rounded=0;dashed=1;endSize=12;startSize=12;labelBackgroundColor=none;fontColor=default;" parent="XZn1DH3PBJOx24A4Sl1q-373" source="XZn1DH3PBJOx24A4Sl1q-484" target="XZn1DH3PBJOx24A4Sl1q-490" edge="1">
                    <mxGeometry relative="1" as="geometry">
                        <mxPoint x="1042.1322314049587" y="1145" as="sourcePoint"/>
                    </mxGeometry>
                </mxCell>
                <mxCell id="XZn1DH3PBJOx24A4Sl1q-490" value="Liquid" style="whiteSpace=wrap;html=1;verticalAlign=top;fontStyle=1;startSize=40;labelBackgroundColor=none;" parent="XZn1DH3PBJOx24A4Sl1q-373" vertex="1">
                    <mxGeometry x="1006.5" y="1155.5" width="70" height="30" as="geometry"/>
                </mxCell>
                <mxCell id="XZn1DH3PBJOx24A4Sl1q-491" value="" style="orthogonalLoop=1;jettySize=auto;html=1;endArrow=none;endFill=0;startArrow=block;startFill=0;rounded=0;dashed=1;endSize=12;startSize=12;labelBackgroundColor=none;fontColor=default;" parent="XZn1DH3PBJOx24A4Sl1q-373" source="XZn1DH3PBJOx24A4Sl1q-484" target="XZn1DH3PBJOx24A4Sl1q-492" edge="1">
                    <mxGeometry relative="1" as="geometry">
                        <mxPoint x="1103" y="1133.8032786885246" as="sourcePoint"/>
                    </mxGeometry>
                </mxCell>
                <mxCell id="XZn1DH3PBJOx24A4Sl1q-492" value="Static" style="whiteSpace=wrap;html=1;verticalAlign=top;fontStyle=1;startSize=40;labelBackgroundColor=none;" parent="XZn1DH3PBJOx24A4Sl1q-373" vertex="1">
                    <mxGeometry x="1160.5" y="1155.5" width="70" height="30" as="geometry"/>
                </mxCell>
                <mxCell id="XZn1DH3PBJOx24A4Sl1q-493" value="" style="orthogonalLoop=1;jettySize=auto;html=1;endArrow=none;endFill=0;startArrow=block;startFill=0;rounded=0;dashed=1;endSize=12;startSize=12;labelBackgroundColor=none;fontColor=default;" parent="XZn1DH3PBJOx24A4Sl1q-373" source="XZn1DH3PBJOx24A4Sl1q-484" target="XZn1DH3PBJOx24A4Sl1q-494" edge="1">
                    <mxGeometry relative="1" as="geometry">
                        <mxPoint x="1086.099173553719" y="1145" as="sourcePoint"/>
                    </mxGeometry>
                </mxCell>
                <mxCell id="XZn1DH3PBJOx24A4Sl1q-494" value="Gas" style="whiteSpace=wrap;html=1;verticalAlign=top;fontStyle=1;startSize=40;labelBackgroundColor=none;" parent="XZn1DH3PBJOx24A4Sl1q-373" vertex="1">
                    <mxGeometry x="1082.5" y="1155.5" width="70" height="30" as="geometry"/>
                </mxCell>
                <mxCell id="XZn1DH3PBJOx24A4Sl1q-495" value="CA" style="swimlane;fontStyle=1;align=center;verticalAlign=top;childLayout=stackLayout;horizontal=1;startSize=58;horizontalStack=0;resizeParent=1;resizeLast=0;collapsible=1;marginBottom=0;rounded=0;shadow=0;strokeWidth=1;labelBackgroundColor=none;" parent="XZn1DH3PBJOx24A4Sl1q-373" vertex="1">
                    <mxGeometry x="924" y="837" width="83" height="30" as="geometry">
                        <mxRectangle x="230" y="140" width="160" height="26" as="alternateBounds"/>
                    </mxGeometry>
                </mxCell>
                <mxCell id="XZn1DH3PBJOx24A4Sl1q-496" value="Rigidbody" style="swimlane;fontStyle=1;align=center;verticalAlign=top;childLayout=stackLayout;horizontal=1;startSize=58;horizontalStack=0;resizeParent=1;resizeLast=0;collapsible=1;marginBottom=0;rounded=0;shadow=0;strokeWidth=1;labelBackgroundColor=none;" parent="XZn1DH3PBJOx24A4Sl1q-373" vertex="1">
                    <mxGeometry x="729" y="837" width="83" height="30" as="geometry">
                        <mxRectangle x="230" y="140" width="160" height="26" as="alternateBounds"/>
                    </mxGeometry>
                </mxCell>
                <mxCell id="XZn1DH3PBJOx24A4Sl1q-497" value="" style="endArrow=block;dashed=1;endFill=0;endSize=12;html=1;rounded=0;exitX=0.5;exitY=1;exitDx=0;exitDy=0;labelBackgroundColor=none;fontColor=default;" parent="XZn1DH3PBJOx24A4Sl1q-373" source="XZn1DH3PBJOx24A4Sl1q-496" target="XZn1DH3PBJOx24A4Sl1q-481" edge="1">
                    <mxGeometry width="160" relative="1" as="geometry">
                        <mxPoint x="878" y="878" as="sourcePoint"/>
                        <mxPoint x="878" y="935" as="targetPoint"/>
                    </mxGeometry>
                </mxCell>
                <mxCell id="XZn1DH3PBJOx24A4Sl1q-498" value="" style="endArrow=block;dashed=1;endFill=0;endSize=12;html=1;rounded=0;exitX=0.5;exitY=1;exitDx=0;exitDy=0;labelBackgroundColor=none;fontColor=default;" parent="XZn1DH3PBJOx24A4Sl1q-373" source="XZn1DH3PBJOx24A4Sl1q-495" target="XZn1DH3PBJOx24A4Sl1q-481" edge="1">
                    <mxGeometry width="160" relative="1" as="geometry">
                        <mxPoint x="888" y="888" as="sourcePoint"/>
                        <mxPoint x="888" y="945" as="targetPoint"/>
                    </mxGeometry>
                </mxCell>
                <mxCell id="XZn1DH3PBJOx24A4Sl1q-499" value="1" style="endArrow=open;html=1;endSize=12;startArrow=diamondThin;startSize=14;startFill=0;edgeStyle=orthogonalEdgeStyle;align=left;verticalAlign=bottom;rounded=0;entryX=0.5;entryY=0;entryDx=0;entryDy=0;labelBackgroundColor=none;fontColor=default;" parent="XZn1DH3PBJOx24A4Sl1q-373" source="XZn1DH3PBJOx24A4Sl1q-471" target="XZn1DH3PBJOx24A4Sl1q-475" edge="1">
                    <mxGeometry x="-0.7603" y="4" relative="1" as="geometry">
                        <mxPoint x="1266.5" y="973.5" as="sourcePoint"/>
                        <mxPoint x="1426.5" y="973.5" as="targetPoint"/>
                        <Array as="points">
                            <mxPoint x="1314.5" y="956.5"/>
                        </Array>
                        <mxPoint y="1" as="offset"/>
                    </mxGeometry>
                </mxCell>
                <mxCell id="XZn1DH3PBJOx24A4Sl1q-500" value="1" style="endArrow=open;html=1;endSize=12;startArrow=diamondThin;startSize=14;startFill=1;edgeStyle=orthogonalEdgeStyle;align=left;verticalAlign=bottom;rounded=0;labelBackgroundColor=none;fontColor=default;" parent="XZn1DH3PBJOx24A4Sl1q-373" source="XZn1DH3PBJOx24A4Sl1q-475" target="XZn1DH3PBJOx24A4Sl1q-484" edge="1">
                    <mxGeometry x="-0.6364" y="-6" relative="1" as="geometry">
                        <mxPoint x="1160.5" y="1052.5" as="sourcePoint"/>
                        <mxPoint x="1320.5" y="1052.5" as="targetPoint"/>
                        <mxPoint as="offset"/>
                    </mxGeometry>
                </mxCell>
                <mxCell id="XZn1DH3PBJOx24A4Sl1q-501" value="1" style="endArrow=open;html=1;endSize=12;startArrow=diamondThin;startSize=14;startFill=1;edgeStyle=orthogonalEdgeStyle;align=left;verticalAlign=bottom;rounded=0;labelBackgroundColor=none;fontColor=default;" parent="XZn1DH3PBJOx24A4Sl1q-373" source="XZn1DH3PBJOx24A4Sl1q-471" target="XZn1DH3PBJOx24A4Sl1q-481" edge="1">
                    <mxGeometry x="-0.7373" y="-3" relative="1" as="geometry">
                        <mxPoint x="1258" y="1085" as="sourcePoint"/>
                        <mxPoint x="1110" y="1085" as="targetPoint"/>
                        <mxPoint as="offset"/>
                    </mxGeometry>
                </mxCell>
                <mxCell id="XZn1DH3PBJOx24A4Sl1q-483" value="" style="orthogonalLoop=1;jettySize=auto;html=1;endArrow=none;endFill=0;startArrow=block;startFill=0;rounded=0;dashed=1;endSize=12;startSize=12;labelBackgroundColor=none;fontColor=default;" parent="XZn1DH3PBJOx24A4Sl1q-373" source="XZn1DH3PBJOx24A4Sl1q-484" target="XZn1DH3PBJOx24A4Sl1q-486" edge="1">
                    <mxGeometry relative="1" as="geometry">
                        <mxPoint x="997.586776859504" y="1145" as="sourcePoint"/>
                    </mxGeometry>
                </mxCell>
                <mxCell id="XZn1DH3PBJOx24A4Sl1q-502" value="4096" style="endArrow=open;html=1;endSize=12;startArrow=diamondThin;startSize=14;startFill=1;edgeStyle=orthogonalEdgeStyle;align=left;verticalAlign=bottom;rounded=0;labelBackgroundColor=none;fontColor=default;" parent="XZn1DH3PBJOx24A4Sl1q-373" source="XZn1DH3PBJOx24A4Sl1q-467" target="XZn1DH3PBJOx24A4Sl1q-471" edge="1">
                    <mxGeometry x="-0.1538" y="2" relative="1" as="geometry">
                        <mxPoint x="1071.5" y="957.5" as="sourcePoint"/>
                        <mxPoint x="954.5" y="1006.5" as="targetPoint"/>
                        <mxPoint as="offset"/>
                    </mxGeometry>
                </mxCell>
                <mxCell id="XZn1DH3PBJOx24A4Sl1q-504" value="World" style="swimlane;fontStyle=1;align=center;verticalAlign=top;childLayout=stackLayout;horizontal=1;startSize=26;horizontalStack=0;resizeParent=1;resizeLast=0;collapsible=1;marginBottom=0;rounded=0;shadow=0;strokeWidth=1;labelBackgroundColor=none;" parent="XZn1DH3PBJOx24A4Sl1q-373" vertex="1">
                    <mxGeometry x="754.5" y="244" width="227" height="223" as="geometry">
                        <mxRectangle x="230" y="140" width="160" height="26" as="alternateBounds"/>
                    </mxGeometry>
                </mxCell>
                <mxCell id="XZn1DH3PBJOx24A4Sl1q-505" value="- clock: int&#10;- previous_update_ms: int&#10;" style="text;align=left;verticalAlign=top;spacingLeft=4;spacingRight=4;overflow=hidden;rotatable=0;points=[[0,0.5],[1,0.5]];portConstraint=eastwest;labelBackgroundColor=none;" parent="XZn1DH3PBJOx24A4Sl1q-504" vertex="1">
                    <mxGeometry y="26" width="227" height="43" as="geometry"/>
                </mxCell>
                <mxCell id="XZn1DH3PBJOx24A4Sl1q-506" value="" style="line;html=1;strokeWidth=1;align=left;verticalAlign=middle;spacingTop=-1;spacingLeft=3;spacingRight=3;rotatable=0;labelPosition=right;points=[];portConstraint=eastwest;labelBackgroundColor=none;" parent="XZn1DH3PBJOx24A4Sl1q-504" vertex="1">
                    <mxGeometry y="69" width="227" height="12" as="geometry"/>
                </mxCell>
                <mxCell id="XZn1DH3PBJOx24A4Sl1q-507" value="- rigidbody_step()&#10;- ca_step()&#10;- particle_step()&#10;+ check_for_update(int)&#10;+ set_cell_by_pixel(int, int, Element)&#10;+ get_cell_by_pixel(int, int): Cell&#10;+ place_object(cells: Cell[1..*], bool)&#10;+ update(EventBus)&#10;+ render(EventBus)" style="text;align=left;verticalAlign=top;spacingLeft=4;spacingRight=4;overflow=hidden;rotatable=0;points=[[0,0.5],[1,0.5]];portConstraint=eastwest;labelBackgroundColor=none;" parent="XZn1DH3PBJOx24A4Sl1q-504" vertex="1">
                    <mxGeometry y="81" width="227" height="142" as="geometry"/>
                </mxCell>
                <mxCell id="XZn1DH3PBJOx24A4Sl1q-508" value="ChunkPos" style="swimlane;fontStyle=1;align=center;verticalAlign=top;childLayout=stackLayout;horizontal=1;startSize=26;horizontalStack=0;resizeParent=1;resizeLast=0;collapsible=1;marginBottom=0;rounded=0;shadow=0;strokeWidth=1;labelBackgroundColor=none;" parent="XZn1DH3PBJOx24A4Sl1q-373" vertex="1">
                    <mxGeometry x="1307" y="409" width="188" height="106" as="geometry">
                        <mxRectangle x="230" y="140" width="160" height="26" as="alternateBounds"/>
                    </mxGeometry>
                </mxCell>
                <mxCell id="XZn1DH3PBJOx24A4Sl1q-509" value="+ x: int&#10;+ y: int" style="text;align=left;verticalAlign=top;spacingLeft=4;spacingRight=4;overflow=hidden;rotatable=0;points=[[0,0.5],[1,0.5]];portConstraint=eastwest;labelBackgroundColor=none;" parent="XZn1DH3PBJOx24A4Sl1q-508" vertex="1">
                    <mxGeometry y="26" width="188" height="39" as="geometry"/>
                </mxCell>
                <mxCell id="XZn1DH3PBJOx24A4Sl1q-510" value="" style="line;html=1;strokeWidth=1;align=left;verticalAlign=middle;spacingTop=-1;spacingLeft=3;spacingRight=3;rotatable=0;labelPosition=right;points=[];portConstraint=eastwest;labelBackgroundColor=none;" parent="XZn1DH3PBJOx24A4Sl1q-508" vertex="1">
                    <mxGeometry y="65" width="188" height="12" as="geometry"/>
                </mxCell>
                <mxCell id="XZn1DH3PBJOx24A4Sl1q-511" value="+ add(ChunkPos): ChunkPos" style="text;align=left;verticalAlign=top;spacingLeft=4;spacingRight=4;overflow=hidden;rotatable=0;points=[[0,0.5],[1,0.5]];portConstraint=eastwest;labelBackgroundColor=none;" parent="XZn1DH3PBJOx24A4Sl1q-508" vertex="1">
                    <mxGeometry y="77" width="188" height="26" as="geometry"/>
                </mxCell>
                <mxCell id="XZn1DH3PBJOx24A4Sl1q-512" value="ChunkMap" style="rounded=0;whiteSpace=wrap;html=1;fontStyle=1;labelBackgroundColor=none;" parent="XZn1DH3PBJOx24A4Sl1q-373" vertex="1">
                    <mxGeometry x="1096" y="446" width="120" height="36" as="geometry"/>
                </mxCell>
                <mxCell id="XZn1DH3PBJOx24A4Sl1q-513" value="" style="endArrow=none;html=1;edgeStyle=orthogonalEdgeStyle;rounded=0;entryX=0.5;entryY=0;entryDx=0;entryDy=0;labelBackgroundColor=none;fontColor=default;" parent="XZn1DH3PBJOx24A4Sl1q-373" source="XZn1DH3PBJOx24A4Sl1q-512" target="XZn1DH3PBJOx24A4Sl1q-467" edge="1">
                    <mxGeometry relative="1" as="geometry">
                        <mxPoint x="1665" y="1018" as="sourcePoint"/>
                        <mxPoint x="1823" y="1018" as="targetPoint"/>
                    </mxGeometry>
                </mxCell>
                <mxCell id="XZn1DH3PBJOx24A4Sl1q-514" value="values 0..*" style="edgeLabel;resizable=0;html=1;align=left;verticalAlign=bottom;labelBackgroundColor=none;" parent="XZn1DH3PBJOx24A4Sl1q-513" connectable="0" vertex="1">
                    <mxGeometry x="-1" relative="1" as="geometry">
                        <mxPoint x="-25" y="70" as="offset"/>
                    </mxGeometry>
                </mxCell>
                <mxCell id="XZn1DH3PBJOx24A4Sl1q-515" value="" style="endArrow=none;html=1;edgeStyle=orthogonalEdgeStyle;rounded=0;exitX=1;exitY=0.5;exitDx=0;exitDy=0;labelBackgroundColor=none;fontColor=default;" parent="XZn1DH3PBJOx24A4Sl1q-373" source="XZn1DH3PBJOx24A4Sl1q-512" target="XZn1DH3PBJOx24A4Sl1q-508" edge="1">
                    <mxGeometry relative="1" as="geometry">
                        <mxPoint x="1348" y="564.96" as="sourcePoint"/>
                        <mxPoint x="1258" y="384.96000000000004" as="targetPoint"/>
                    </mxGeometry>
                </mxCell>
                <mxCell id="XZn1DH3PBJOx24A4Sl1q-516" value="keys 0..*" style="edgeLabel;resizable=0;html=1;align=left;verticalAlign=bottom;labelBackgroundColor=none;" parent="XZn1DH3PBJOx24A4Sl1q-515" connectable="0" vertex="1">
                    <mxGeometry x="-1" relative="1" as="geometry">
                        <mxPoint x="23" y="9" as="offset"/>
                    </mxGeometry>
                </mxCell>
                <mxCell id="XZn1DH3PBJOx24A4Sl1q-517" value="ChunkApi" style="swimlane;fontStyle=1;align=center;verticalAlign=top;childLayout=stackLayout;horizontal=1;startSize=26;horizontalStack=0;resizeParent=1;resizeLast=0;collapsible=1;marginBottom=0;rounded=0;shadow=0;strokeWidth=1;labelBackgroundColor=none;" parent="XZn1DH3PBJOx24A4Sl1q-373" vertex="1">
                    <mxGeometry x="774" y="570" width="188" height="222" as="geometry">
                        <mxRectangle x="230" y="140" width="160" height="26" as="alternateBounds"/>
                    </mxGeometry>
                </mxCell>
                <mxCell id="XZn1DH3PBJOx24A4Sl1q-518" value="+ cell_position_x: int&#10;+ cell_position_y: int&#10;+ clock: int&#10;" style="text;align=left;verticalAlign=top;spacingLeft=4;spacingRight=4;overflow=hidden;rotatable=0;points=[[0,0.5],[1,0.5]];portConstraint=eastwest;labelBackgroundColor=none;" parent="XZn1DH3PBJOx24A4Sl1q-517" vertex="1">
                    <mxGeometry y="26" width="188" height="53" as="geometry"/>
                </mxCell>
                <mxCell id="XZn1DH3PBJOx24A4Sl1q-519" value="" style="line;html=1;strokeWidth=1;align=left;verticalAlign=middle;spacingTop=-1;spacingLeft=3;spacingRight=3;rotatable=0;labelPosition=right;points=[];portConstraint=eastwest;labelBackgroundColor=none;" parent="XZn1DH3PBJOx24A4Sl1q-517" vertex="1">
                    <mxGeometry y="79" width="188" height="12" as="geometry"/>
                </mxCell>
                <mxCell id="XZn1DH3PBJOx24A4Sl1q-520" value="+ get(int, int): Cell&#10;+ set(int, int, Cell)&#10;+ match(int, int, Element)&#10;+ swap(int, int)&#10;+ update(Cell)&#10;+ random_direction()&#10;+ random_int(int)&#10;+ once_in(int)&#10;&#10;" style="text;align=left;verticalAlign=top;spacingLeft=4;spacingRight=4;overflow=hidden;rotatable=0;points=[[0,0.5],[1,0.5]];portConstraint=eastwest;labelBackgroundColor=none;" parent="XZn1DH3PBJOx24A4Sl1q-517" vertex="1">
                    <mxGeometry y="91" width="188" height="131" as="geometry"/>
                </mxCell>
                <mxCell id="XZn1DH3PBJOx24A4Sl1q-521" value="Uses" style="endArrow=open;endSize=12;dashed=1;html=1;rounded=0;edgeStyle=orthogonalEdgeStyle;labelBackgroundColor=none;fontColor=default;" parent="XZn1DH3PBJOx24A4Sl1q-373" target="XZn1DH3PBJOx24A4Sl1q-467" edge="1">
                    <mxGeometry width="160" relative="1" as="geometry">
                        <mxPoint x="962" y="676" as="sourcePoint"/>
                        <mxPoint x="1060.48" y="674" as="targetPoint"/>
                        <Array as="points"/>
                    </mxGeometry>
                </mxCell>
                <mxCell id="XZn1DH3PBJOx24A4Sl1q-522" value="Uses" style="endArrow=open;endSize=12;dashed=1;html=1;rounded=0;edgeStyle=orthogonalEdgeStyle;exitX=0.5;exitY=0;exitDx=0;exitDy=0;labelBackgroundColor=none;fontColor=default;" parent="XZn1DH3PBJOx24A4Sl1q-373" source="XZn1DH3PBJOx24A4Sl1q-517" target="XZn1DH3PBJOx24A4Sl1q-504" edge="1">
                    <mxGeometry x="-0.2389" width="160" relative="1" as="geometry">
                        <mxPoint x="1256" y="511" as="sourcePoint"/>
                        <mxPoint x="1437" y="628" as="targetPoint"/>
                        <mxPoint as="offset"/>
                    </mxGeometry>
                </mxCell>
                <mxCell id="XZn1DH3PBJOx24A4Sl1q-523" value="PhysicsEngine" style="swimlane;fontStyle=1;align=center;verticalAlign=top;childLayout=stackLayout;horizontal=1;startSize=26;horizontalStack=0;resizeParent=1;resizeLast=0;collapsible=1;marginBottom=0;rounded=0;shadow=0;strokeWidth=1;labelBackgroundColor=none;" parent="XZn1DH3PBJOx24A4Sl1q-373" vertex="1">
                    <mxGeometry x="1015" y="127" width="188" height="70" as="geometry">
                        <mxRectangle x="230" y="140" width="160" height="26" as="alternateBounds"/>
                    </mxGeometry>
                </mxCell>
                <mxCell id="XZn1DH3PBJOx24A4Sl1q-524" value="+ particle_step()&#10;+ rigidbody_step()&#10;" style="text;align=left;verticalAlign=top;spacingLeft=4;spacingRight=4;overflow=hidden;rotatable=0;points=[[0,0.5],[1,0.5]];portConstraint=eastwest;labelBackgroundColor=none;" parent="XZn1DH3PBJOx24A4Sl1q-523" vertex="1">
                    <mxGeometry y="26" width="188" height="44" as="geometry"/>
                </mxCell>
                <mxCell id="XZn1DH3PBJOx24A4Sl1q-525" value="Rigidbody" style="swimlane;fontStyle=1;align=center;verticalAlign=top;childLayout=stackLayout;horizontal=1;startSize=26;horizontalStack=0;resizeParent=1;resizeLast=0;collapsible=1;marginBottom=0;rounded=0;shadow=0;strokeWidth=1;labelBackgroundColor=none;" parent="XZn1DH3PBJOx24A4Sl1q-373" vertex="1">
                    <mxGeometry x="1015" y="235" width="188" height="108" as="geometry">
                        <mxRectangle x="230" y="140" width="160" height="26" as="alternateBounds"/>
                    </mxGeometry>
                </mxCell>
                <mxCell id="XZn1DH3PBJOx24A4Sl1q-526" value="- width: int&#10;- height: int&#10;- texture: Texture" style="text;align=left;verticalAlign=top;spacingLeft=4;spacingRight=4;overflow=hidden;rotatable=0;points=[[0,0.5],[1,0.5]];portConstraint=eastwest;labelBackgroundColor=none;" parent="XZn1DH3PBJOx24A4Sl1q-525" vertex="1">
                    <mxGeometry y="26" width="188" height="82" as="geometry"/>
                </mxCell>
                <mxCell id="XZn1DH3PBJOx24A4Sl1q-527" value="RigidbodyPoint" style="swimlane;fontStyle=1;align=center;verticalAlign=top;childLayout=stackLayout;horizontal=1;startSize=26;horizontalStack=0;resizeParent=1;resizeLast=0;collapsible=1;marginBottom=0;rounded=0;shadow=0;strokeWidth=1;labelBackgroundColor=none;" parent="XZn1DH3PBJOx24A4Sl1q-373" vertex="1">
                    <mxGeometry x="1258" y="235" width="188" height="108" as="geometry">
                        <mxRectangle x="230" y="140" width="160" height="26" as="alternateBounds"/>
                    </mxGeometry>
                </mxCell>
                <mxCell id="XZn1DH3PBJOx24A4Sl1q-528" value="- cell: Cell&#10;- texture_point: Vector2&#10;- world_coords_x: int&#10;- world_coords_y: int&#10;&#10;" style="text;align=left;verticalAlign=top;spacingLeft=4;spacingRight=4;overflow=hidden;rotatable=0;points=[[0,0.5],[1,0.5]];portConstraint=eastwest;labelBackgroundColor=none;" parent="XZn1DH3PBJOx24A4Sl1q-527" vertex="1">
                    <mxGeometry y="26" width="188" height="82" as="geometry"/>
                </mxCell>
                <mxCell id="XZn1DH3PBJOx24A4Sl1q-529" value="Vector2" style="swimlane;fontStyle=1;align=center;verticalAlign=top;childLayout=stackLayout;horizontal=1;startSize=26;horizontalStack=0;resizeParent=1;resizeLast=0;collapsible=1;marginBottom=0;rounded=0;shadow=0;strokeWidth=1;labelBackgroundColor=none;" parent="XZn1DH3PBJOx24A4Sl1q-373" vertex="1">
                    <mxGeometry x="1498" y="253.5" width="87" height="71" as="geometry">
                        <mxRectangle x="230" y="140" width="160" height="26" as="alternateBounds"/>
                    </mxGeometry>
                </mxCell>
                <mxCell id="XZn1DH3PBJOx24A4Sl1q-530" value="+ x: float&#10;+ y: float" style="text;align=left;verticalAlign=top;spacingLeft=4;spacingRight=4;overflow=hidden;rotatable=0;points=[[0,0.5],[1,0.5]];portConstraint=eastwest;labelBackgroundColor=none;" parent="XZn1DH3PBJOx24A4Sl1q-529" vertex="1">
                    <mxGeometry y="26" width="87" height="45" as="geometry"/>
                </mxCell>
                <mxCell id="XZn1DH3PBJOx24A4Sl1q-531" value="4..*" style="endArrow=open;html=1;endSize=12;startArrow=diamondThin;startSize=14;startFill=1;edgeStyle=orthogonalEdgeStyle;align=left;verticalAlign=bottom;rounded=0;labelBackgroundColor=none;fontColor=default;" parent="XZn1DH3PBJOx24A4Sl1q-373" source="XZn1DH3PBJOx24A4Sl1q-525" target="XZn1DH3PBJOx24A4Sl1q-527" edge="1">
                    <mxGeometry x="-0.7083" y="5" relative="1" as="geometry">
                        <mxPoint x="1486" y="310" as="sourcePoint"/>
                        <mxPoint x="1646" y="310" as="targetPoint"/>
                        <mxPoint as="offset"/>
                    </mxGeometry>
                </mxCell>
                <mxCell id="XZn1DH3PBJOx24A4Sl1q-532" value="1" style="endArrow=open;html=1;endSize=12;startArrow=diamondThin;startSize=14;startFill=1;edgeStyle=orthogonalEdgeStyle;align=left;verticalAlign=bottom;rounded=0;labelBackgroundColor=none;fontColor=default;" parent="XZn1DH3PBJOx24A4Sl1q-373" source="XZn1DH3PBJOx24A4Sl1q-527" target="XZn1DH3PBJOx24A4Sl1q-529" edge="1">
                    <mxGeometry x="-0.5385" y="8" relative="1" as="geometry">
                        <mxPoint x="1485" y="206" as="sourcePoint"/>
                        <mxPoint x="1645" y="206" as="targetPoint"/>
                        <mxPoint as="offset"/>
                    </mxGeometry>
                </mxCell>
                <mxCell id="XZn1DH3PBJOx24A4Sl1q-503" style="edgeStyle=orthogonalEdgeStyle;rounded=0;orthogonalLoop=1;jettySize=auto;html=1;labelBackgroundColor=none;fontColor=default;" parent="XZn1DH3PBJOx24A4Sl1q-373" source="XZn1DH3PBJOx24A4Sl1q-504" target="XZn1DH3PBJOx24A4Sl1q-512" edge="1">
                    <mxGeometry relative="1" as="geometry"/>
                </mxCell>
                <mxCell id="XZn1DH3PBJOx24A4Sl1q-533" value="1" style="endArrow=open;html=1;endSize=12;startArrow=diamondThin;startSize=14;startFill=0;edgeStyle=orthogonalEdgeStyle;align=left;verticalAlign=bottom;rounded=0;exitX=0.993;exitY=0.074;exitDx=0;exitDy=0;exitPerimeter=0;labelBackgroundColor=none;fontColor=default;" parent="XZn1DH3PBJOx24A4Sl1q-373" source="XZn1DH3PBJOx24A4Sl1q-467" target="XZn1DH3PBJOx24A4Sl1q-508" edge="1">
                    <mxGeometry x="-0.8837" y="4" relative="1" as="geometry">
                        <mxPoint x="1366" y="668" as="sourcePoint"/>
                        <mxPoint x="1366" y="746" as="targetPoint"/>
                        <mxPoint as="offset"/>
                    </mxGeometry>
                </mxCell>
                <mxCell id="XZn1DH3PBJOx24A4Sl1q-534" value="Particle" style="swimlane;fontStyle=1;align=center;verticalAlign=top;childLayout=stackLayout;horizontal=1;startSize=26;horizontalStack=0;resizeParent=1;resizeLast=0;collapsible=1;marginBottom=0;rounded=0;shadow=0;strokeWidth=1;labelBackgroundColor=none;" parent="XZn1DH3PBJOx24A4Sl1q-373" vertex="1">
                    <mxGeometry x="1301" y="96" width="188" height="122" as="geometry">
                        <mxRectangle x="230" y="140" width="160" height="26" as="alternateBounds"/>
                    </mxGeometry>
                </mxCell>
                <mxCell id="XZn1DH3PBJOx24A4Sl1q-535" value="- color: int[4]&#10;- x: float&#10;- y: float&#10;- dx: float&#10;- dy: float" style="text;align=left;verticalAlign=top;spacingLeft=4;spacingRight=4;overflow=hidden;rotatable=0;points=[[0,0.5],[1,0.5]];portConstraint=eastwest;labelBackgroundColor=none;" parent="XZn1DH3PBJOx24A4Sl1q-534" vertex="1">
                    <mxGeometry y="26" width="188" height="83" as="geometry"/>
                </mxCell>
                <mxCell id="XZn1DH3PBJOx24A4Sl1q-536" value="0..*" style="endArrow=open;html=1;endSize=12;startArrow=diamondThin;startSize=14;startFill=1;edgeStyle=orthogonalEdgeStyle;align=left;verticalAlign=bottom;rounded=0;exitX=0.997;exitY=0.07;exitDx=0;exitDy=0;exitPerimeter=0;labelBackgroundColor=none;fontColor=default;" parent="XZn1DH3PBJOx24A4Sl1q-373" source="XZn1DH3PBJOx24A4Sl1q-524" target="XZn1DH3PBJOx24A4Sl1q-534" edge="1">
                    <mxGeometry x="-0.7345" y="1" relative="1" as="geometry">
                        <mxPoint x="1362" y="235" as="sourcePoint"/>
                        <mxPoint x="1459" y="235" as="targetPoint"/>
                        <mxPoint as="offset"/>
                    </mxGeometry>
                </mxCell>
                <mxCell id="XZn1DH3PBJOx24A4Sl1q-537" value="0..*" style="endArrow=open;html=1;endSize=12;startArrow=diamondThin;startSize=14;startFill=1;edgeStyle=orthogonalEdgeStyle;align=left;verticalAlign=bottom;rounded=0;labelBackgroundColor=none;fontColor=default;" parent="XZn1DH3PBJOx24A4Sl1q-373" source="XZn1DH3PBJOx24A4Sl1q-523" target="XZn1DH3PBJOx24A4Sl1q-525" edge="1">
                    <mxGeometry x="0.0526" y="8" relative="1" as="geometry">
                        <mxPoint x="1500" y="246" as="sourcePoint"/>
                        <mxPoint x="1597" y="246" as="targetPoint"/>
                        <mxPoint as="offset"/>
                        <Array as="points">
                            <mxPoint x="1109" y="311"/>
                        </Array>
                    </mxGeometry>
                </mxCell>
                <mxCell id="XZn1DH3PBJOx24A4Sl1q-538" value="1" style="endArrow=open;html=1;endSize=12;startArrow=diamondThin;startSize=14;startFill=1;edgeStyle=orthogonalEdgeStyle;align=left;verticalAlign=bottom;rounded=0;exitX=0.5;exitY=0;exitDx=0;exitDy=0;labelBackgroundColor=none;fontColor=default;" parent="XZn1DH3PBJOx24A4Sl1q-373" source="XZn1DH3PBJOx24A4Sl1q-504" target="XZn1DH3PBJOx24A4Sl1q-523" edge="1">
                    <mxGeometry x="-0.8881" y="16" relative="1" as="geometry">
                        <mxPoint x="1222" y="204" as="sourcePoint"/>
                        <mxPoint x="1317" y="321" as="targetPoint"/>
                        <mxPoint as="offset"/>
                        <Array as="points">
                            <mxPoint x="868" y="165"/>
                        </Array>
                    </mxGeometry>
                </mxCell>
                <mxCell id="XZn1DH3PBJOx24A4Sl1q-539" value="EventBus" style="swimlane;fontStyle=1;align=center;verticalAlign=top;childLayout=stackLayout;horizontal=1;startSize=26;horizontalStack=0;resizeParent=1;resizeLast=0;collapsible=1;marginBottom=0;rounded=0;shadow=0;strokeWidth=1;labelBackgroundColor=none;" parent="XZn1DH3PBJOx24A4Sl1q-373" vertex="1">
                    <mxGeometry x="461" y="302.5" width="221" height="106" as="geometry">
                        <mxRectangle x="230" y="140" width="160" height="26" as="alternateBounds"/>
                    </mxGeometry>
                </mxCell>
                <mxCell id="XZn1DH3PBJOx24A4Sl1q-540" value="- cell_count: int" style="text;align=left;verticalAlign=top;spacingLeft=4;spacingRight=4;overflow=hidden;rotatable=0;points=[[0,0.5],[1,0.5]];portConstraint=eastwest;labelBackgroundColor=none;" parent="XZn1DH3PBJOx24A4Sl1q-539" vertex="1">
                    <mxGeometry y="26" width="221" height="21" as="geometry"/>
                </mxCell>
                <mxCell id="XZn1DH3PBJOx24A4Sl1q-541" value="" style="line;html=1;strokeWidth=1;align=left;verticalAlign=middle;spacingTop=-1;spacingLeft=3;spacingRight=3;rotatable=0;labelPosition=right;points=[];portConstraint=eastwest;labelBackgroundColor=none;" parent="XZn1DH3PBJOx24A4Sl1q-539" vertex="1">
                    <mxGeometry y="47" width="221" height="12" as="geometry"/>
                </mxCell>
                <mxCell id="XZn1DH3PBJOx24A4Sl1q-542" value="+ register_handler(Event_Handler)&#10;+ dispatch_event(Event)&#10;" style="text;align=left;verticalAlign=top;spacingLeft=4;spacingRight=4;overflow=hidden;rotatable=0;points=[[0,0.5],[1,0.5]];portConstraint=eastwest;labelBackgroundColor=none;" parent="XZn1DH3PBJOx24A4Sl1q-539" vertex="1">
                    <mxGeometry y="59" width="221" height="47" as="geometry"/>
                </mxCell>
                <mxCell id="XZn1DH3PBJOx24A4Sl1q-543" value="&lt;&lt;interface&gt;&gt;&#10;Event" style="swimlane;fontStyle=1;align=center;verticalAlign=top;childLayout=stackLayout;horizontal=1;startSize=40;horizontalStack=0;resizeParent=1;resizeLast=0;collapsible=1;marginBottom=0;rounded=0;shadow=0;strokeWidth=1;labelBackgroundColor=none;" parent="XZn1DH3PBJOx24A4Sl1q-373" vertex="1">
                    <mxGeometry x="507" y="467" width="129" height="68" as="geometry">
                        <mxRectangle x="230" y="140" width="160" height="26" as="alternateBounds"/>
                    </mxGeometry>
                </mxCell>
                <mxCell id="XZn1DH3PBJOx24A4Sl1q-544" value="- data: any" style="text;align=left;verticalAlign=top;spacingLeft=4;spacingRight=4;overflow=hidden;rotatable=0;points=[[0,0.5],[1,0.5]];portConstraint=eastwest;labelBackgroundColor=none;" parent="XZn1DH3PBJOx24A4Sl1q-543" vertex="1">
                    <mxGeometry y="40" width="129" height="28" as="geometry"/>
                </mxCell>
                <mxCell id="XZn1DH3PBJOx24A4Sl1q-545" value="&lt;&lt;interface&gt;&gt;&#10;EventHandler" style="swimlane;fontStyle=1;align=center;verticalAlign=top;childLayout=stackLayout;horizontal=1;startSize=44;horizontalStack=0;resizeParent=1;resizeLast=0;collapsible=1;marginBottom=0;rounded=0;shadow=0;strokeWidth=1;labelBackgroundColor=none;" parent="XZn1DH3PBJOx24A4Sl1q-373" vertex="1">
                    <mxGeometry x="477.5" y="157" width="188" height="78" as="geometry">
                        <mxRectangle x="230" y="140" width="160" height="26" as="alternateBounds"/>
                    </mxGeometry>
                </mxCell>
                <mxCell id="XZn1DH3PBJOx24A4Sl1q-546" value="+ handle_event(Event)&#10;" style="text;align=left;verticalAlign=top;spacingLeft=4;spacingRight=4;overflow=hidden;rotatable=0;points=[[0,0.5],[1,0.5]];portConstraint=eastwest;labelBackgroundColor=none;" parent="XZn1DH3PBJOx24A4Sl1q-545" vertex="1">
                    <mxGeometry y="44" width="188" height="31" as="geometry"/>
                </mxCell>
                <mxCell id="XZn1DH3PBJOx24A4Sl1q-547" value="0..*" style="endArrow=open;html=1;endSize=12;startArrow=diamondThin;startSize=14;startFill=1;edgeStyle=orthogonalEdgeStyle;align=left;verticalAlign=bottom;rounded=0;exitX=0.5;exitY=0;exitDx=0;exitDy=0;labelBackgroundColor=none;fontColor=default;" parent="XZn1DH3PBJOx24A4Sl1q-373" source="XZn1DH3PBJOx24A4Sl1q-539" target="XZn1DH3PBJOx24A4Sl1q-545" edge="1">
                    <mxGeometry x="-0.819" y="-5" relative="1" as="geometry">
                        <mxPoint x="745" y="304" as="sourcePoint"/>
                        <mxPoint x="892" y="225" as="targetPoint"/>
                        <mxPoint x="1" as="offset"/>
                    </mxGeometry>
                </mxCell>
                <mxCell id="XZn1DH3PBJOx24A4Sl1q-548" value="interacts" style="endArrow=none;html=1;endSize=12;startArrow=none;startSize=14;startFill=0;edgeStyle=orthogonalEdgeStyle;align=left;verticalAlign=bottom;rounded=0;endFill=0;dashed=1;labelBackgroundColor=none;fontColor=default;" parent="XZn1DH3PBJOx24A4Sl1q-373" source="XZn1DH3PBJOx24A4Sl1q-504" target="XZn1DH3PBJOx24A4Sl1q-539" edge="1">
                    <mxGeometry x="0.6414" y="10" relative="1" as="geometry">
                        <mxPoint x="537.5" y="303" as="sourcePoint"/>
                        <mxPoint x="537.5" y="237" as="targetPoint"/>
                        <mxPoint as="offset"/>
                    </mxGeometry>
                </mxCell>
                <mxCell id="XZn1DH3PBJOx24A4Sl1q-549" value="manages" style="endArrow=none;html=1;endSize=12;startArrow=none;startSize=14;startFill=0;edgeStyle=orthogonalEdgeStyle;align=left;verticalAlign=bottom;rounded=0;endFill=0;dashed=1;labelBackgroundColor=none;fontColor=default;" parent="XZn1DH3PBJOx24A4Sl1q-373" source="XZn1DH3PBJOx24A4Sl1q-543" target="XZn1DH3PBJOx24A4Sl1q-539" edge="1">
                    <mxGeometry x="-0.3162" y="27" relative="1" as="geometry">
                        <mxPoint x="868" y="366" as="sourcePoint"/>
                        <mxPoint x="692" y="366" as="targetPoint"/>
                        <mxPoint x="1" as="offset"/>
                    </mxGeometry>
                </mxCell>
                <mxCell id="XZn1DH3PBJOx24A4Sl1q-550" value="GUI" style="swimlane;fontStyle=1;align=center;verticalAlign=top;childLayout=stackLayout;horizontal=1;startSize=26;horizontalStack=0;resizeParent=1;resizeLast=0;collapsible=1;marginBottom=0;rounded=0;shadow=0;strokeWidth=1;labelBackgroundColor=none;" parent="XZn1DH3PBJOx24A4Sl1q-373" vertex="1">
                    <mxGeometry x="197" y="164" width="175" height="106" as="geometry">
                        <mxRectangle x="230" y="140" width="160" height="26" as="alternateBounds"/>
                    </mxGeometry>
                </mxCell>
                <mxCell id="XZn1DH3PBJOx24A4Sl1q-551" value="- textures: Texture[0..*]" style="text;align=left;verticalAlign=top;spacingLeft=4;spacingRight=4;overflow=hidden;rotatable=0;points=[[0,0.5],[1,0.5]];portConstraint=eastwest;labelBackgroundColor=none;" parent="XZn1DH3PBJOx24A4Sl1q-550" vertex="1">
                    <mxGeometry y="26" width="175" height="21" as="geometry"/>
                </mxCell>
                <mxCell id="XZn1DH3PBJOx24A4Sl1q-552" value="" style="line;html=1;strokeWidth=1;align=left;verticalAlign=middle;spacingTop=-1;spacingLeft=3;spacingRight=3;rotatable=0;labelPosition=right;points=[];portConstraint=eastwest;labelBackgroundColor=none;" parent="XZn1DH3PBJOx24A4Sl1q-550" vertex="1">
                    <mxGeometry y="47" width="175" height="12" as="geometry"/>
                </mxCell>
                <mxCell id="XZn1DH3PBJOx24A4Sl1q-553" value="+ render()&#10;+ update_textures(EventBus)&#10;" style="text;align=left;verticalAlign=top;spacingLeft=4;spacingRight=4;overflow=hidden;rotatable=0;points=[[0,0.5],[1,0.5]];portConstraint=eastwest;labelBackgroundColor=none;" parent="XZn1DH3PBJOx24A4Sl1q-550" vertex="1">
                    <mxGeometry y="59" width="175" height="47" as="geometry"/>
                </mxCell>
                <mxCell id="XZn1DH3PBJOx24A4Sl1q-554" value="interacts" style="endArrow=none;html=1;endSize=12;startArrow=none;startSize=14;startFill=0;edgeStyle=orthogonalEdgeStyle;align=left;verticalAlign=bottom;rounded=0;endFill=0;dashed=1;entryX=0;entryY=0.5;entryDx=0;entryDy=0;labelBackgroundColor=none;fontColor=default;" parent="XZn1DH3PBJOx24A4Sl1q-373" source="XZn1DH3PBJOx24A4Sl1q-550" target="XZn1DH3PBJOx24A4Sl1q-539" edge="1">
                    <mxGeometry x="0.263" y="-22" relative="1" as="geometry">
                        <mxPoint x="868" y="366" as="sourcePoint"/>
                        <mxPoint x="692" y="366" as="targetPoint"/>
                        <mxPoint as="offset"/>
                    </mxGeometry>
                </mxCell>
                <mxCell id="XZn1DH3PBJOx24A4Sl1q-555" value="KeyboardInput" style="swimlane;fontStyle=1;align=center;verticalAlign=top;childLayout=stackLayout;horizontal=1;startSize=26;horizontalStack=0;resizeParent=1;resizeLast=0;collapsible=1;marginBottom=0;rounded=0;shadow=0;strokeWidth=1;labelBackgroundColor=none;" parent="XZn1DH3PBJOx24A4Sl1q-373" vertex="1">
                    <mxGeometry x="197" y="393" width="175" height="125" as="geometry">
                        <mxRectangle x="230" y="140" width="160" height="26" as="alternateBounds"/>
                    </mxGeometry>
                </mxCell>
                <mxCell id="XZn1DH3PBJOx24A4Sl1q-556" value="- player_directions: bool[4]&#10;- buttons: bool[0..*]&#10;" style="text;align=left;verticalAlign=top;spacingLeft=4;spacingRight=4;overflow=hidden;rotatable=0;points=[[0,0.5],[1,0.5]];portConstraint=eastwest;labelBackgroundColor=none;" parent="XZn1DH3PBJOx24A4Sl1q-555" vertex="1">
                    <mxGeometry y="26" width="175" height="40" as="geometry"/>
                </mxCell>
                <mxCell id="XZn1DH3PBJOx24A4Sl1q-557" value="" style="line;html=1;strokeWidth=1;align=left;verticalAlign=middle;spacingTop=-1;spacingLeft=3;spacingRight=3;rotatable=0;labelPosition=right;points=[];portConstraint=eastwest;labelBackgroundColor=none;" parent="XZn1DH3PBJOx24A4Sl1q-555" vertex="1">
                    <mxGeometry y="66" width="175" height="12" as="geometry"/>
                </mxCell>
                <mxCell id="XZn1DH3PBJOx24A4Sl1q-558" value="+ handle_input()&#10;+ update(EventBus)&#10;" style="text;align=left;verticalAlign=top;spacingLeft=4;spacingRight=4;overflow=hidden;rotatable=0;points=[[0,0.5],[1,0.5]];portConstraint=eastwest;labelBackgroundColor=none;" parent="XZn1DH3PBJOx24A4Sl1q-555" vertex="1">
                    <mxGeometry y="78" width="175" height="47" as="geometry"/>
                </mxCell>
                <mxCell id="XZn1DH3PBJOx24A4Sl1q-559" value="interacts" style="endArrow=none;html=1;endSize=12;startArrow=none;startSize=14;startFill=0;edgeStyle=orthogonalEdgeStyle;align=left;verticalAlign=bottom;rounded=0;endFill=0;dashed=1;labelBackgroundColor=none;fontColor=default;" parent="XZn1DH3PBJOx24A4Sl1q-373" source="XZn1DH3PBJOx24A4Sl1q-555" target="XZn1DH3PBJOx24A4Sl1q-539" edge="1">
                    <mxGeometry x="-0.1423" y="23" relative="1" as="geometry">
                        <mxPoint x="382" y="227" as="sourcePoint"/>
                        <mxPoint x="471" y="365" as="targetPoint"/>
                        <mxPoint as="offset"/>
                    </mxGeometry>
                </mxCell>
                <mxCell id="XZn1DH3PBJOx24A4Sl1q-616" value="Use case diagram" style="swimlane;fontSize=16;labelBackgroundColor=none;" parent="1" vertex="1">
                    <mxGeometry x="-3209" y="-1006" width="622" height="430" as="geometry"/>
                </mxCell>
                <mxCell id="XZn1DH3PBJOx24A4Sl1q-617" value="Player" style="shape=umlActor;verticalLabelPosition=bottom;verticalAlign=top;html=1;outlineConnect=0;fontSize=16;labelBackgroundColor=none;" parent="XZn1DH3PBJOx24A4Sl1q-616" vertex="1">
                    <mxGeometry x="25" y="235" width="30" height="60" as="geometry"/>
                </mxCell>
                <mxCell id="XZn1DH3PBJOx24A4Sl1q-618" value="Sandforge" style="swimlane;fontSize=16;labelBackgroundColor=none;" parent="XZn1DH3PBJOx24A4Sl1q-616" vertex="1">
                    <mxGeometry x="127" y="59" width="355" height="323" as="geometry"/>
                </mxCell>
                <mxCell id="XZn1DH3PBJOx24A4Sl1q-619" value="Explore world" style="ellipse;whiteSpace=wrap;html=1;fontSize=16;labelBackgroundColor=none;" parent="XZn1DH3PBJOx24A4Sl1q-618" vertex="1">
                    <mxGeometry x="38.5" y="33" width="120" height="45" as="geometry"/>
                </mxCell>
                <mxCell id="XZn1DH3PBJOx24A4Sl1q-620" value="Modify terrain" style="ellipse;whiteSpace=wrap;html=1;fontSize=16;labelBackgroundColor=none;" parent="XZn1DH3PBJOx24A4Sl1q-618" vertex="1">
                    <mxGeometry x="38.5" y="113" width="120" height="45" as="geometry"/>
                </mxCell>
                <mxCell id="XZn1DH3PBJOx24A4Sl1q-621" value="Use items" style="ellipse;whiteSpace=wrap;html=1;fontSize=16;labelBackgroundColor=none;" parent="XZn1DH3PBJOx24A4Sl1q-618" vertex="1">
                    <mxGeometry x="38.5" y="268" width="120" height="45" as="geometry"/>
                </mxCell>
                <mxCell id="XZn1DH3PBJOx24A4Sl1q-622" style="edgeStyle=none;curved=1;rounded=0;orthogonalLoop=1;jettySize=auto;html=1;fontSize=12;startSize=8;endSize=8;entryX=1;entryY=0.5;entryDx=0;entryDy=0;labelBackgroundColor=none;fontColor=default;" parent="XZn1DH3PBJOx24A4Sl1q-618" source="XZn1DH3PBJOx24A4Sl1q-623" target="XZn1DH3PBJOx24A4Sl1q-619" edge="1">
                    <mxGeometry relative="1" as="geometry"/>
                </mxCell>
                <mxCell id="XZn1DH3PBJOx24A4Sl1q-623" value="Generate unique world" style="ellipse;whiteSpace=wrap;html=1;fontSize=16;labelBackgroundColor=none;" parent="XZn1DH3PBJOx24A4Sl1q-618" vertex="1">
                    <mxGeometry x="199.5" y="33" width="120" height="45" as="geometry"/>
                </mxCell>
                <mxCell id="XZn1DH3PBJOx24A4Sl1q-624" value="Interact with UI" style="ellipse;whiteSpace=wrap;html=1;fontSize=16;labelBackgroundColor=none;" parent="XZn1DH3PBJOx24A4Sl1q-618" vertex="1">
                    <mxGeometry x="35.5" y="187" width="120" height="45" as="geometry"/>
                </mxCell>
                <mxCell id="XZn1DH3PBJOx24A4Sl1q-625" value="Attack player" style="ellipse;whiteSpace=wrap;html=1;fontSize=16;labelBackgroundColor=none;" parent="XZn1DH3PBJOx24A4Sl1q-618" vertex="1">
                    <mxGeometry x="199.5" y="113" width="120" height="45" as="geometry"/>
                </mxCell>
                <mxCell id="XZn1DH3PBJOx24A4Sl1q-626" value="Wander around" style="ellipse;whiteSpace=wrap;html=1;fontSize=16;labelBackgroundColor=none;" parent="XZn1DH3PBJOx24A4Sl1q-618" vertex="1">
                    <mxGeometry x="199.5" y="194" width="120" height="45" as="geometry"/>
                </mxCell>
                <mxCell id="XZn1DH3PBJOx24A4Sl1q-627" style="edgeStyle=none;curved=1;rounded=0;orthogonalLoop=1;jettySize=auto;html=1;fontSize=12;startSize=8;endSize=8;entryX=0;entryY=0.5;entryDx=0;entryDy=0;labelBackgroundColor=none;fontColor=default;" parent="XZn1DH3PBJOx24A4Sl1q-616" source="XZn1DH3PBJOx24A4Sl1q-617" target="XZn1DH3PBJOx24A4Sl1q-619" edge="1">
                    <mxGeometry relative="1" as="geometry"/>
                </mxCell>
                <mxCell id="XZn1DH3PBJOx24A4Sl1q-628" style="edgeStyle=none;curved=1;rounded=0;orthogonalLoop=1;jettySize=auto;html=1;fontSize=12;startSize=8;endSize=8;entryX=0;entryY=0.5;entryDx=0;entryDy=0;labelBackgroundColor=none;fontColor=default;" parent="XZn1DH3PBJOx24A4Sl1q-616" source="XZn1DH3PBJOx24A4Sl1q-617" target="XZn1DH3PBJOx24A4Sl1q-620" edge="1">
                    <mxGeometry relative="1" as="geometry"/>
                </mxCell>
                <mxCell id="XZn1DH3PBJOx24A4Sl1q-629" style="edgeStyle=none;curved=1;rounded=0;orthogonalLoop=1;jettySize=auto;html=1;fontSize=12;startSize=8;endSize=8;entryX=0;entryY=0.5;entryDx=0;entryDy=0;labelBackgroundColor=none;fontColor=default;" parent="XZn1DH3PBJOx24A4Sl1q-616" source="XZn1DH3PBJOx24A4Sl1q-617" target="XZn1DH3PBJOx24A4Sl1q-621" edge="1">
                    <mxGeometry relative="1" as="geometry"/>
                </mxCell>
                <mxCell id="XZn1DH3PBJOx24A4Sl1q-630" style="edgeStyle=none;curved=1;rounded=0;orthogonalLoop=1;jettySize=auto;html=1;fontSize=12;startSize=8;endSize=8;entryX=0;entryY=0.5;entryDx=0;entryDy=0;labelBackgroundColor=none;fontColor=default;" parent="XZn1DH3PBJOx24A4Sl1q-616" source="XZn1DH3PBJOx24A4Sl1q-617" target="XZn1DH3PBJOx24A4Sl1q-624" edge="1">
                    <mxGeometry relative="1" as="geometry"/>
                </mxCell>
                <mxCell id="XZn1DH3PBJOx24A4Sl1q-631" style="edgeStyle=none;curved=1;rounded=0;orthogonalLoop=1;jettySize=auto;html=1;fontSize=12;startSize=8;endSize=8;entryX=1;entryY=0.5;entryDx=0;entryDy=0;labelBackgroundColor=none;fontColor=default;" parent="XZn1DH3PBJOx24A4Sl1q-616" source="XZn1DH3PBJOx24A4Sl1q-632" target="XZn1DH3PBJOx24A4Sl1q-623" edge="1">
                    <mxGeometry relative="1" as="geometry"/>
                </mxCell>
                <mxCell id="XZn1DH3PBJOx24A4Sl1q-632" value="Game manager" style="shape=umlActor;verticalLabelPosition=bottom;verticalAlign=top;html=1;outlineConnect=0;fontSize=16;labelBackgroundColor=none;" parent="XZn1DH3PBJOx24A4Sl1q-616" vertex="1">
                    <mxGeometry x="535" y="72.5" width="30" height="60" as="geometry"/>
                </mxCell>
                <mxCell id="XZn1DH3PBJOx24A4Sl1q-633" style="edgeStyle=none;curved=1;rounded=0;orthogonalLoop=1;jettySize=auto;html=1;entryX=1;entryY=0.5;entryDx=0;entryDy=0;fontSize=12;startSize=8;endSize=8;labelBackgroundColor=none;fontColor=default;" parent="XZn1DH3PBJOx24A4Sl1q-616" source="XZn1DH3PBJOx24A4Sl1q-635" target="XZn1DH3PBJOx24A4Sl1q-625" edge="1">
                    <mxGeometry relative="1" as="geometry"/>
                </mxCell>
                <mxCell id="XZn1DH3PBJOx24A4Sl1q-634" style="edgeStyle=none;curved=1;rounded=0;orthogonalLoop=1;jettySize=auto;html=1;entryX=1;entryY=0.5;entryDx=0;entryDy=0;fontSize=12;startSize=8;endSize=8;labelBackgroundColor=none;fontColor=default;" parent="XZn1DH3PBJOx24A4Sl1q-616" source="XZn1DH3PBJOx24A4Sl1q-635" target="XZn1DH3PBJOx24A4Sl1q-626" edge="1">
                    <mxGeometry relative="1" as="geometry"/>
                </mxCell>
                <mxCell id="XZn1DH3PBJOx24A4Sl1q-635" value="Enemies" style="shape=umlActor;verticalLabelPosition=bottom;verticalAlign=top;html=1;outlineConnect=0;fontSize=16;labelBackgroundColor=none;" parent="XZn1DH3PBJOx24A4Sl1q-616" vertex="1">
                    <mxGeometry x="535" y="197" width="30" height="60" as="geometry"/>
                </mxCell>
                <mxCell id="XZn1DH3PBJOx24A4Sl1q-638" style="edgeStyle=none;curved=1;rounded=0;orthogonalLoop=1;jettySize=auto;html=1;entryX=0;entryY=0.5;entryDx=0;entryDy=0;fontSize=12;startSize=8;endSize=8;endArrow=none;endFill=0;labelBackgroundColor=none;fontColor=default;" parent="1" source="XZn1DH3PBJOx24A4Sl1q-636" target="XZn1DH3PBJOx24A4Sl1q-673" edge="1">
                    <mxGeometry relative="1" as="geometry"/>
                </mxCell>
                <mxCell id="XZn1DH3PBJOx24A4Sl1q-636" value="Player" style="shape=umlActor;verticalLabelPosition=bottom;verticalAlign=top;html=1;outlineConnect=0;fontSize=16;labelBackgroundColor=none;" parent="1" vertex="1">
                    <mxGeometry x="-3230" y="-1402" width="30" height="60" as="geometry"/>
                </mxCell>
                <mxCell id="XZn1DH3PBJOx24A4Sl1q-645" style="edgeStyle=none;rounded=0;orthogonalLoop=1;jettySize=auto;html=1;fontSize=12;startSize=8;endSize=8;labelBackgroundColor=none;fontColor=default;exitX=1;exitY=0.5;exitDx=0;exitDy=0;endArrow=box;endFill=0;startArrow=box;startFill=0;" parent="1" source="XZn1DH3PBJOx24A4Sl1q-637" target="XZn1DH3PBJOx24A4Sl1q-640" edge="1">
                    <mxGeometry relative="1" as="geometry">
                        <Array as="points">
                            <mxPoint x="-2800" y="-1374"/>
                            <mxPoint x="-2800" y="-1448"/>
                        </Array>
                    </mxGeometry>
                </mxCell>
                <mxCell id="XZn1DH3PBJOx24A4Sl1q-646" style="edgeStyle=none;rounded=0;orthogonalLoop=1;jettySize=auto;html=1;entryX=0;entryY=0.5;entryDx=0;entryDy=0;fontSize=12;startSize=8;endSize=8;exitX=1;exitY=0.5;exitDx=0;exitDy=0;endArrow=box;endFill=0;startArrow=box;startFill=0;" parent="1" source="XZn1DH3PBJOx24A4Sl1q-637" target="XZn1DH3PBJOx24A4Sl1q-642" edge="1">
                    <mxGeometry relative="1" as="geometry"/>
                </mxCell>
                <mxCell id="XZn1DH3PBJOx24A4Sl1q-637" value="&lt;u&gt;:UserController&lt;/u&gt;" style="rounded=0;whiteSpace=wrap;html=1;fontSize=16;labelBackgroundColor=none;" parent="1" vertex="1">
                    <mxGeometry x="-2958" y="-1401" width="120" height="54" as="geometry"/>
                </mxCell>
                <mxCell id="XZn1DH3PBJOx24A4Sl1q-640" value="&lt;u&gt;:GameManager&lt;/u&gt;" style="rounded=0;whiteSpace=wrap;html=1;fontSize=16;labelBackgroundColor=none;" parent="1" vertex="1">
                    <mxGeometry x="-2740" y="-1480" width="130" height="64" as="geometry"/>
                </mxCell>
                <mxCell id="XZn1DH3PBJOx24A4Sl1q-652" style="edgeStyle=none;rounded=0;orthogonalLoop=1;jettySize=auto;html=1;fontSize=12;startSize=8;endSize=8;endArrow=box;endFill=0;startArrow=box;startFill=0;entryX=0;entryY=0.5;entryDx=0;entryDy=0;" parent="1" source="XZn1DH3PBJOx24A4Sl1q-642" target="XZn1DH3PBJOx24A4Sl1q-651" edge="1">
                    <mxGeometry relative="1" as="geometry">
                        <mxPoint x="-2500" y="-1419" as="targetPoint"/>
                    </mxGeometry>
                </mxCell>
                <mxCell id="XZn1DH3PBJOx24A4Sl1q-642" value="&lt;u&gt;:GameEngine&lt;/u&gt;" style="rounded=0;whiteSpace=wrap;html=1;fontSize=16;labelBackgroundColor=none;" parent="1" vertex="1">
                    <mxGeometry x="-2740" y="-1406" width="130" height="64" as="geometry"/>
                </mxCell>
                <mxCell id="XZn1DH3PBJOx24A4Sl1q-647" value="&lt;u&gt;:InventorySystem&lt;/u&gt;" style="rounded=0;whiteSpace=wrap;html=1;fontSize=16;labelBackgroundColor=none;" parent="1" vertex="1">
                    <mxGeometry x="-2740" y="-1330" width="130" height="64" as="geometry"/>
                </mxCell>
                <mxCell id="XZn1DH3PBJOx24A4Sl1q-650" style="edgeStyle=none;rounded=0;orthogonalLoop=1;jettySize=auto;html=1;entryX=0;entryY=0.5;entryDx=0;entryDy=0;fontSize=12;startSize=8;endSize=8;exitX=1;exitY=0.5;exitDx=0;exitDy=0;endArrow=box;endFill=0;startArrow=box;startFill=0;" parent="1" source="XZn1DH3PBJOx24A4Sl1q-637" target="XZn1DH3PBJOx24A4Sl1q-647" edge="1">
                    <mxGeometry relative="1" as="geometry">
                        <mxPoint x="-2828" y="-1364" as="sourcePoint"/>
                        <mxPoint x="-2730" y="-1320" as="targetPoint"/>
                        <Array as="points">
                            <mxPoint x="-2800" y="-1374"/>
                            <mxPoint x="-2800" y="-1298"/>
                        </Array>
                    </mxGeometry>
                </mxCell>
                <mxCell id="XZn1DH3PBJOx24A4Sl1q-659" style="edgeStyle=none;rounded=1;hachureGap=4;orthogonalLoop=1;jettySize=auto;html=1;fontFamily=Architects Daughter;fontSource=https%3A%2F%2Ffonts.googleapis.com%2Fcss%3Ffamily%3DArchitects%2BDaughter;fontSize=16;startSize=8;endSize=8;endArrow=box;endFill=0;startArrow=box;startFill=0;dashed=1;" parent="1" source="XZn1DH3PBJOx24A4Sl1q-651" target="XZn1DH3PBJOx24A4Sl1q-658" edge="1">
                    <mxGeometry relative="1" as="geometry"/>
                </mxCell>
                <mxCell id="XZn1DH3PBJOx24A4Sl1q-662" style="edgeStyle=none;curved=1;rounded=0;orthogonalLoop=1;jettySize=auto;html=1;fontSize=12;startSize=8;endSize=8;endArrow=box;endFill=0;startArrow=box;startFill=0;dashed=1;" parent="1" source="XZn1DH3PBJOx24A4Sl1q-651" target="XZn1DH3PBJOx24A4Sl1q-661" edge="1">
                    <mxGeometry relative="1" as="geometry"/>
                </mxCell>
                <mxCell id="XZn1DH3PBJOx24A4Sl1q-651" value="&lt;u&gt;:WorldSimulation&lt;/u&gt;" style="rounded=0;whiteSpace=wrap;html=1;fontSize=16;labelBackgroundColor=none;" parent="1" vertex="1">
                    <mxGeometry x="-2489" y="-1406" width="130" height="64" as="geometry"/>
                </mxCell>
                <mxCell id="XZn1DH3PBJOx24A4Sl1q-658" value="&lt;u&gt;:ChunkManager&lt;/u&gt;" style="rounded=0;whiteSpace=wrap;html=1;fontSize=16;labelBackgroundColor=none;" parent="1" vertex="1">
                    <mxGeometry x="-2489" y="-1530" width="130" height="64" as="geometry"/>
                </mxCell>
                <mxCell id="XZn1DH3PBJOx24A4Sl1q-661" value="&lt;u&gt;:EntitiesManager&lt;/u&gt;" style="rounded=0;whiteSpace=wrap;html=1;fontSize=16;labelBackgroundColor=none;" parent="1" vertex="1">
                    <mxGeometry x="-2489" y="-1280" width="130" height="64" as="geometry"/>
                </mxCell>
                <mxCell id="XZn1DH3PBJOx24A4Sl1q-669" value="" style="rounded=0;whiteSpace=wrap;html=1;fontSize=16;fillColor=#000000;" parent="1" vertex="1">
                    <mxGeometry x="-2428" y="-1341" width="8" height="8" as="geometry"/>
                </mxCell>
                <mxCell id="XZn1DH3PBJOx24A4Sl1q-670" value="" style="rounded=0;whiteSpace=wrap;html=1;fontSize=16;fillColor=#000000;" parent="1" vertex="1">
                    <mxGeometry x="-2428" y="-1289" width="8" height="8" as="geometry"/>
                </mxCell>
                <mxCell id="XZn1DH3PBJOx24A4Sl1q-671" value="" style="rounded=0;whiteSpace=wrap;html=1;fontSize=16;fillColor=#D4D4D4;" parent="1" vertex="1">
                    <mxGeometry x="-2428" y="-1415" width="8" height="8" as="geometry"/>
                </mxCell>
                <mxCell id="XZn1DH3PBJOx24A4Sl1q-672" value="" style="rounded=0;whiteSpace=wrap;html=1;fontSize=16;fillColor=#CFCFCF;gradientColor=none;" parent="1" vertex="1">
                    <mxGeometry x="-2428" y="-1465" width="8" height="8" as="geometry"/>
                </mxCell>
                <mxCell id="XZn1DH3PBJOx24A4Sl1q-674" style="edgeStyle=none;curved=1;rounded=0;orthogonalLoop=1;jettySize=auto;html=1;fontSize=12;startSize=8;endSize=8;endArrow=box;endFill=0;startArrow=box;startFill=0;" parent="1" source="XZn1DH3PBJOx24A4Sl1q-673" target="XZn1DH3PBJOx24A4Sl1q-637" edge="1">
                    <mxGeometry relative="1" as="geometry"/>
                </mxCell>
                <mxCell id="XZn1DH3PBJOx24A4Sl1q-673" value="&lt;u&gt;:GUI&lt;/u&gt;" style="rounded=0;whiteSpace=wrap;html=1;fontSize=16;labelBackgroundColor=none;" parent="1" vertex="1">
                    <mxGeometry x="-3130" y="-1401" width="120" height="54" as="geometry"/>
                </mxCell>
                <mxCell id="XZn1DH3PBJOx24A4Sl1q-677" value="&amp;nbsp;&amp;nbsp; Control layer" style="swimlane;whiteSpace=wrap;html=1;fontSize=16;labelBackgroundColor=none;align=left;" parent="1" vertex="1">
                    <mxGeometry x="356.5" y="-1018" width="217" height="161" as="geometry"/>
                </mxCell>
                <mxCell id="XZn1DH3PBJOx24A4Sl1q-689" value="&lt;i&gt;&amp;lt;&amp;lt;component&amp;gt;&amp;gt;&lt;/i&gt;&lt;br&gt;&lt;div&gt;UserController&lt;/div&gt;" style="rounded=1;whiteSpace=wrap;html=1;fontSize=16;fillColor=#d5e8d4;strokeColor=#82b366;" parent="XZn1DH3PBJOx24A4Sl1q-677" vertex="1">
                    <mxGeometry x="36.5" y="45" width="144" height="78" as="geometry"/>
                </mxCell>
                <mxCell id="XZn1DH3PBJOx24A4Sl1q-693" value="&amp;nbsp;&amp;nbsp; Logic layer" style="swimlane;whiteSpace=wrap;html=1;fontSize=16;labelBackgroundColor=none;align=left;" parent="1" vertex="1">
                    <mxGeometry x="177" y="-769" width="576" height="156" as="geometry">
                        <mxRectangle x="185" y="-770" width="119" height="31" as="alternateBounds"/>
                    </mxGeometry>
                </mxCell>
                <mxCell id="XZn1DH3PBJOx24A4Sl1q-698" value="&lt;i&gt;&amp;lt;&amp;lt;component&amp;gt;&amp;gt;&lt;/i&gt;&lt;br&gt;&lt;div&gt;GameManager&lt;/div&gt;" style="rounded=1;whiteSpace=wrap;html=1;fontSize=16;fillColor=#d5e8d4;strokeColor=#82b366;" parent="XZn1DH3PBJOx24A4Sl1q-693" vertex="1">
                    <mxGeometry x="29" y="46" width="144" height="78" as="geometry"/>
                </mxCell>
                <mxCell id="XZn1DH3PBJOx24A4Sl1q-699" value="&lt;i&gt;&amp;lt;&amp;lt;component&amp;gt;&amp;gt;&lt;/i&gt;&lt;br&gt;&lt;div&gt;InventrorySystem&lt;/div&gt;" style="rounded=1;whiteSpace=wrap;html=1;fontSize=16;fillColor=#d5e8d4;strokeColor=#82b366;" parent="XZn1DH3PBJOx24A4Sl1q-693" vertex="1">
                    <mxGeometry x="216" y="49" width="144" height="78" as="geometry"/>
                </mxCell>
                <mxCell id="XZn1DH3PBJOx24A4Sl1q-700" value="&lt;i&gt;&amp;lt;&amp;lt;component&amp;gt;&amp;gt;&lt;/i&gt;&lt;br&gt;&lt;div&gt;Entities&lt;/div&gt;" style="rounded=1;whiteSpace=wrap;html=1;fontSize=16;fillColor=#d5e8d4;strokeColor=#82b366;" parent="XZn1DH3PBJOx24A4Sl1q-693" vertex="1">
                    <mxGeometry x="403" y="46" width="144" height="78" as="geometry"/>
                </mxCell>
                <mxCell id="XZn1DH3PBJOx24A4Sl1q-701" style="edgeStyle=none;curved=1;rounded=0;orthogonalLoop=1;jettySize=auto;html=1;entryX=0.5;entryY=0;entryDx=0;entryDy=0;fontSize=12;startSize=8;endSize=8;" parent="1" source="XZn1DH3PBJOx24A4Sl1q-677" target="XZn1DH3PBJOx24A4Sl1q-698" edge="1">
                    <mxGeometry relative="1" as="geometry"/>
                </mxCell>
                <mxCell id="XZn1DH3PBJOx24A4Sl1q-702" style="edgeStyle=none;curved=1;rounded=0;orthogonalLoop=1;jettySize=auto;html=1;entryX=0.5;entryY=0;entryDx=0;entryDy=0;fontSize=12;startSize=8;endSize=8;" parent="1" source="XZn1DH3PBJOx24A4Sl1q-677" target="XZn1DH3PBJOx24A4Sl1q-699" edge="1">
                    <mxGeometry relative="1" as="geometry"/>
                </mxCell>
                <mxCell id="XZn1DH3PBJOx24A4Sl1q-703" style="edgeStyle=none;curved=1;rounded=0;orthogonalLoop=1;jettySize=auto;html=1;entryX=0.5;entryY=0;entryDx=0;entryDy=0;fontSize=12;startSize=8;endSize=8;" parent="1" source="XZn1DH3PBJOx24A4Sl1q-677" target="XZn1DH3PBJOx24A4Sl1q-700" edge="1">
                    <mxGeometry relative="1" as="geometry"/>
                </mxCell>
                <mxCell id="XZn1DH3PBJOx24A4Sl1q-704" value="&amp;nbsp;&amp;nbsp; Data layer" style="swimlane;whiteSpace=wrap;html=1;fontSize=16;labelBackgroundColor=none;align=left;" parent="1" vertex="1">
                    <mxGeometry x="198" y="-518" width="552" height="347" as="geometry">
                        <mxRectangle x="185" y="-770" width="119" height="31" as="alternateBounds"/>
                    </mxGeometry>
                </mxCell>
                <mxCell id="XZn1DH3PBJOx24A4Sl1q-706" value="&lt;i&gt;&amp;lt;&amp;lt;component&amp;gt;&amp;gt;&lt;/i&gt;&lt;br&gt;WorldSimulation" style="rounded=1;whiteSpace=wrap;html=1;fontSize=16;fillColor=#d5e8d4;strokeColor=#82b366;" parent="XZn1DH3PBJOx24A4Sl1q-704" vertex="1">
                    <mxGeometry x="195" y="190" width="144" height="78" as="geometry"/>
                </mxCell>
                <mxCell id="XZn1DH3PBJOx24A4Sl1q-714" value="&lt;i&gt;&amp;lt;&amp;lt;component&amp;gt;&amp;gt;&lt;/i&gt;&lt;br&gt;AnimationManager" style="rounded=1;whiteSpace=wrap;html=1;fontSize=16;fillColor=#d5e8d4;strokeColor=#82b366;" parent="XZn1DH3PBJOx24A4Sl1q-704" vertex="1">
                    <mxGeometry x="382" y="190" width="144" height="78" as="geometry"/>
                </mxCell>
                <mxCell id="XZn1DH3PBJOx24A4Sl1q-705" value="&lt;i&gt;&amp;lt;&amp;lt;component&amp;gt;&amp;gt;&lt;/i&gt;&lt;br&gt;&lt;div&gt;ChunkGenerator&lt;/div&gt;" style="rounded=1;whiteSpace=wrap;html=1;fontSize=16;fillColor=#d5e8d4;strokeColor=#82b366;" parent="XZn1DH3PBJOx24A4Sl1q-704" vertex="1">
                    <mxGeometry x="35" y="58" width="144" height="78" as="geometry"/>
                </mxCell>
                <mxCell id="XZn1DH3PBJOx24A4Sl1q-716" style="edgeStyle=none;curved=1;rounded=0;orthogonalLoop=1;jettySize=auto;html=1;fontSize=12;startSize=8;endSize=8;" parent="XZn1DH3PBJOx24A4Sl1q-704" source="XZn1DH3PBJOx24A4Sl1q-705" target="XZn1DH3PBJOx24A4Sl1q-706" edge="1">
                    <mxGeometry relative="1" as="geometry"/>
                </mxCell>
                <mxCell id="XZn1DH3PBJOx24A4Sl1q-708" style="edgeStyle=none;curved=1;rounded=0;orthogonalLoop=1;jettySize=auto;html=1;fontSize=12;startSize=8;endSize=8;" parent="1" source="XZn1DH3PBJOx24A4Sl1q-698" target="XZn1DH3PBJOx24A4Sl1q-705" edge="1">
                    <mxGeometry relative="1" as="geometry"/>
                </mxCell>
                <mxCell id="XZn1DH3PBJOx24A4Sl1q-709" style="edgeStyle=none;curved=1;rounded=0;orthogonalLoop=1;jettySize=auto;html=1;fontSize=12;startSize=8;endSize=8;" parent="1" source="XZn1DH3PBJOx24A4Sl1q-700" target="XZn1DH3PBJOx24A4Sl1q-706" edge="1">
                    <mxGeometry relative="1" as="geometry"/>
                </mxCell>
                <mxCell id="XZn1DH3PBJOx24A4Sl1q-711" value="&amp;nbsp;&amp;nbsp; Representation layer" style="swimlane;whiteSpace=wrap;html=1;fontSize=16;labelBackgroundColor=none;align=left;" parent="1" vertex="1">
                    <mxGeometry x="262.75" y="-86" width="404.5" height="156" as="geometry">
                        <mxRectangle x="185" y="-770" width="119" height="31" as="alternateBounds"/>
                    </mxGeometry>
                </mxCell>
                <mxCell id="XZn1DH3PBJOx24A4Sl1q-712" value="&lt;i&gt;&amp;lt;&amp;lt;component&amp;gt;&amp;gt;&lt;/i&gt;&lt;br&gt;&lt;div&gt;WorldRenderer&lt;/div&gt;" style="rounded=1;whiteSpace=wrap;html=1;fontSize=16;fillColor=#d5e8d4;strokeColor=#82b366;" parent="XZn1DH3PBJOx24A4Sl1q-711" vertex="1">
                    <mxGeometry x="130.25" y="39" width="144" height="78" as="geometry"/>
                </mxCell>
                <mxCell id="XZn1DH3PBJOx24A4Sl1q-715" style="edgeStyle=none;curved=1;rounded=0;orthogonalLoop=1;jettySize=auto;html=1;fontSize=12;startSize=8;endSize=8;" parent="1" source="XZn1DH3PBJOx24A4Sl1q-700" target="XZn1DH3PBJOx24A4Sl1q-714" edge="1">
                    <mxGeometry relative="1" as="geometry"/>
                </mxCell>
                <mxCell id="XZn1DH3PBJOx24A4Sl1q-717" style="edgeStyle=none;curved=1;rounded=0;orthogonalLoop=1;jettySize=auto;html=1;fontSize=12;startSize=8;endSize=8;" parent="1" source="XZn1DH3PBJOx24A4Sl1q-699" target="XZn1DH3PBJOx24A4Sl1q-706" edge="1">
                    <mxGeometry relative="1" as="geometry"/>
                </mxCell>
                <mxCell id="XZn1DH3PBJOx24A4Sl1q-718" style="edgeStyle=none;curved=1;rounded=0;orthogonalLoop=1;jettySize=auto;html=1;fontSize=12;startSize=8;endSize=8;" parent="1" source="XZn1DH3PBJOx24A4Sl1q-714" target="XZn1DH3PBJOx24A4Sl1q-712" edge="1">
                    <mxGeometry relative="1" as="geometry"/>
                </mxCell>
                <mxCell id="XZn1DH3PBJOx24A4Sl1q-719" style="edgeStyle=none;curved=1;rounded=0;orthogonalLoop=1;jettySize=auto;html=1;fontSize=12;startSize=8;endSize=8;" parent="1" source="XZn1DH3PBJOx24A4Sl1q-706" target="XZn1DH3PBJOx24A4Sl1q-712" edge="1">
                    <mxGeometry relative="1" as="geometry"/>
                </mxCell>
                <mxCell id="XZn1DH3PBJOx24A4Sl1q-729" style="edgeStyle=orthogonalEdgeStyle;orthogonalLoop=1;jettySize=auto;html=1;fontSize=12;startSize=8;endSize=8;exitX=1;exitY=0.5;exitDx=0;exitDy=0;curved=1;" parent="1" source="XZn1DH3PBJOx24A4Sl1q-787" target="XZn1DH3PBJOx24A4Sl1q-725" edge="1">
                    <mxGeometry relative="1" as="geometry"/>
                </mxCell>
                <mxCell id="XZn1DH3PBJOx24A4Sl1q-759" style="edgeStyle=none;curved=1;rounded=0;orthogonalLoop=1;jettySize=auto;html=1;fontSize=12;startSize=8;endSize=8;" parent="1" source="XZn1DH3PBJOx24A4Sl1q-721" target="XZn1DH3PBJOx24A4Sl1q-757" edge="1">
                    <mxGeometry relative="1" as="geometry"/>
                </mxCell>
                <mxCell id="XZn1DH3PBJOx24A4Sl1q-780" style="edgeStyle=orthogonalEdgeStyle;shape=connector;curved=1;rounded=1;orthogonalLoop=1;jettySize=auto;html=1;entryX=0.002;entryY=0.587;entryDx=0;entryDy=0;labelBackgroundColor=default;strokeColor=default;align=center;verticalAlign=middle;fontFamily=Helvetica;fontSize=12;fontColor=default;endArrow=classic;startSize=8;endSize=8;exitX=0.5;exitY=1;exitDx=0;exitDy=0;entryPerimeter=0;" parent="1" source="XZn1DH3PBJOx24A4Sl1q-721" target="XZn1DH3PBJOx24A4Sl1q-778" edge="1">
                    <mxGeometry relative="1" as="geometry"/>
                </mxCell>
                <mxCell id="XZn1DH3PBJOx24A4Sl1q-785" style="edgeStyle=orthogonalEdgeStyle;shape=connector;curved=1;rounded=1;orthogonalLoop=1;jettySize=auto;html=1;labelBackgroundColor=default;strokeColor=default;align=center;verticalAlign=middle;fontFamily=Helvetica;fontSize=16;fontColor=default;endArrow=classic;startSize=8;endSize=8;entryX=0;entryY=0.5;entryDx=0;entryDy=0;" parent="1" source="XZn1DH3PBJOx24A4Sl1q-721" target="XZn1DH3PBJOx24A4Sl1q-783" edge="1">
                    <mxGeometry relative="1" as="geometry"/>
                </mxCell>
                <mxCell id="XZn1DH3PBJOx24A4Sl1q-789" style="edgeStyle=orthogonalEdgeStyle;shape=connector;curved=1;rounded=1;orthogonalLoop=1;jettySize=auto;html=1;labelBackgroundColor=default;strokeColor=default;align=center;verticalAlign=middle;fontFamily=Helvetica;fontSize=16;fontColor=default;endArrow=classic;startSize=8;endSize=8;exitX=1;exitY=0.5;exitDx=0;exitDy=0;entryX=0.5;entryY=1;entryDx=0;entryDy=0;" parent="1" source="XZn1DH3PBJOx24A4Sl1q-721" target="XZn1DH3PBJOx24A4Sl1q-787" edge="1">
                    <mxGeometry relative="1" as="geometry">
                        <mxPoint x="-2816" y="-2537" as="sourcePoint"/>
                        <mxPoint x="-2890" y="-2410" as="targetPoint"/>
                    </mxGeometry>
                </mxCell>
                <mxCell id="XZn1DH3PBJOx24A4Sl1q-721" value="WorldSimulation" style="rounded=1;whiteSpace=wrap;html=1;fontSize=16;labelBackgroundColor=none;fillColor=#d5e8d4;strokeColor=#82b366;" parent="1" vertex="1">
                    <mxGeometry x="-3307" y="-2324" width="254" height="74" as="geometry"/>
                </mxCell>
                <mxCell id="XZn1DH3PBJOx24A4Sl1q-723" value="&lt;font face=&quot;Times New Roman&quot; size=&quot;1&quot;&gt;&lt;span id=&quot;docs-internal-guid-cb6289fb-7fff-0d29-23c6-56a2298a4d61&quot; style=&quot;color: rgb(0, 0, 0); background-color: transparent; font-weight: 400; font-style: normal; font-variant: normal; text-decoration: none; vertical-align: baseline; font-size: 14px;&quot;&gt;The entirety of the game environment where the player interacts and explores. It consists of interconnected Chunks, and different physics systems&lt;/span&gt;&lt;/font&gt;" style="text;html=1;strokeColor=none;fillColor=none;align=center;verticalAlign=middle;whiteSpace=wrap;rounded=0;fontSize=16;" parent="1" vertex="1">
                    <mxGeometry x="-3288.25" y="-2434" width="216.5" height="102" as="geometry"/>
                </mxCell>
                <mxCell id="XZn1DH3PBJOx24A4Sl1q-732" style="edgeStyle=orthogonalEdgeStyle;orthogonalLoop=1;jettySize=auto;html=1;fontSize=12;startSize=8;endSize=8;curved=1;" parent="1" source="XZn1DH3PBJOx24A4Sl1q-725" target="XZn1DH3PBJOx24A4Sl1q-730" edge="1">
                    <mxGeometry relative="1" as="geometry"/>
                </mxCell>
                <mxCell id="XZn1DH3PBJOx24A4Sl1q-725" value="Chunk" style="rounded=1;whiteSpace=wrap;html=1;fontSize=16;labelBackgroundColor=none;fillColor=#d5e8d4;strokeColor=#82b366;" parent="1" vertex="1">
                    <mxGeometry x="-2917" y="-2765.25" width="257" height="41.5" as="geometry"/>
                </mxCell>
                <mxCell id="XZn1DH3PBJOx24A4Sl1q-727" value="&lt;div style=&quot;font-size: 14px;&quot; align=&quot;center&quot;&gt;&lt;font style=&quot;font-size: 14px;&quot; face=&quot;Times New Roman&quot;&gt;Represents a portion of the World that is procedurally generated and updated dynamically as the player explores&lt;/font&gt;&lt;font style=&quot;font-size: 14px;&quot; face=&quot;Times New Roman&quot;&gt;&lt;br&gt;&lt;/font&gt;&lt;/div&gt;" style="text;html=1;strokeColor=none;fillColor=none;align=center;verticalAlign=middle;whiteSpace=wrap;rounded=0;fontSize=16;" parent="1" vertex="1">
                    <mxGeometry x="-2900.5" y="-2837.25" width="224" height="72" as="geometry"/>
                </mxCell>
                <mxCell id="XZn1DH3PBJOx24A4Sl1q-738" style="edgeStyle=orthogonalEdgeStyle;orthogonalLoop=1;jettySize=auto;html=1;entryX=0;entryY=0.5;entryDx=0;entryDy=0;fontSize=12;startSize=8;endSize=8;exitX=0.5;exitY=1;exitDx=0;exitDy=0;curved=1;" parent="1" source="XZn1DH3PBJOx24A4Sl1q-730" target="XZn1DH3PBJOx24A4Sl1q-733" edge="1">
                    <mxGeometry relative="1" as="geometry">
                        <mxPoint x="-2670" y="-2710.14" as="sourcePoint"/>
                    </mxGeometry>
                </mxCell>
                <mxCell id="XZn1DH3PBJOx24A4Sl1q-730" value="Cell" style="rounded=1;whiteSpace=wrap;html=1;fontSize=16;labelBackgroundColor=none;fillColor=#d5e8d4;strokeColor=#82b366;" parent="1" vertex="1">
                    <mxGeometry x="-2610" y="-2770" width="240" height="52.5" as="geometry"/>
                </mxCell>
                <mxCell id="XZn1DH3PBJOx24A4Sl1q-731" value="&lt;font style=&quot;font-size: 14px;&quot; face=&quot;Times New Roman&quot;&gt;Cell is an individual unit inside Chunk. They store their MatterType, several registers and flags that define its state&lt;/font&gt;" style="text;html=1;strokeColor=none;fillColor=none;align=center;verticalAlign=middle;whiteSpace=wrap;rounded=0;fontSize=16;" parent="1" vertex="1">
                    <mxGeometry x="-2605" y="-2857.5" width="224" height="72" as="geometry"/>
                </mxCell>
                <mxCell id="XZn1DH3PBJOx24A4Sl1q-751" value="" style="edgeStyle=orthogonalEdgeStyle;orthogonalLoop=1;jettySize=auto;html=1;fontSize=12;startSize=8;endSize=8;exitX=1;exitY=0.5;exitDx=0;exitDy=0;curved=1;" parent="1" source="XZn1DH3PBJOx24A4Sl1q-733" target="XZn1DH3PBJOx24A4Sl1q-750" edge="1">
                    <mxGeometry relative="1" as="geometry"/>
                </mxCell>
                <mxCell id="XZn1DH3PBJOx24A4Sl1q-753" value="" style="edgeStyle=orthogonalEdgeStyle;orthogonalLoop=1;jettySize=auto;html=1;fontSize=12;startSize=8;endSize=8;exitX=1;exitY=0.5;exitDx=0;exitDy=0;curved=1;entryX=0;entryY=0.5;entryDx=0;entryDy=0;" parent="1" source="XZn1DH3PBJOx24A4Sl1q-733" target="XZn1DH3PBJOx24A4Sl1q-752" edge="1">
                    <mxGeometry relative="1" as="geometry"/>
                </mxCell>
                <mxCell id="XZn1DH3PBJOx24A4Sl1q-733" value="MatterType" style="rounded=1;whiteSpace=wrap;html=1;fontSize=16;labelBackgroundColor=none;fillColor=#d5e8d4;strokeColor=#82b366;" parent="1" vertex="1">
                    <mxGeometry x="-2595" y="-2572.64" width="245" height="38.64" as="geometry"/>
                </mxCell>
                <mxCell id="XZn1DH3PBJOx24A4Sl1q-749" value="" style="edgeStyle=orthogonalEdgeStyle;orthogonalLoop=1;jettySize=auto;html=1;fontSize=12;startSize=8;endSize=8;entryX=0;entryY=0.5;entryDx=0;entryDy=0;exitX=1;exitY=0.5;exitDx=0;exitDy=0;curved=1;" parent="1" source="XZn1DH3PBJOx24A4Sl1q-733" target="XZn1DH3PBJOx24A4Sl1q-755" edge="1">
                    <mxGeometry relative="1" as="geometry"/>
                </mxCell>
                <mxCell id="XZn1DH3PBJOx24A4Sl1q-748" value="" style="edgeStyle=orthogonalEdgeStyle;orthogonalLoop=1;jettySize=auto;html=1;fontSize=12;startSize=8;endSize=8;entryX=0;entryY=0.5;entryDx=0;entryDy=0;exitX=1;exitY=0.5;exitDx=0;exitDy=0;curved=1;" parent="1" source="XZn1DH3PBJOx24A4Sl1q-733" target="XZn1DH3PBJOx24A4Sl1q-746" edge="1">
                    <mxGeometry relative="1" as="geometry"/>
                </mxCell>
                <mxCell id="XZn1DH3PBJOx24A4Sl1q-734" value="&lt;font style=&quot;font-size: 14px;&quot; face=&quot;Times New Roman&quot;&gt;Enum that defines the physical properties of Cell, and dictate its CA rules. &lt;br&gt;&lt;/font&gt;" style="text;html=1;strokeColor=none;fillColor=none;align=center;verticalAlign=middle;whiteSpace=wrap;rounded=0;fontSize=16;" parent="1" vertex="1">
                    <mxGeometry x="-2587" y="-2630" width="235.5" height="62" as="geometry"/>
                </mxCell>
                <mxCell id="XZn1DH3PBJOx24A4Sl1q-756" value="" style="group;fillColor=#dae8fc;strokeColor=#6c8ebf;" parent="1" vertex="1" connectable="0">
                    <mxGeometry x="-2250" y="-2672.64" width="100" height="238.64" as="geometry"/>
                </mxCell>
                <mxCell id="XZn1DH3PBJOx24A4Sl1q-750" value="Liquid" style="rounded=1;whiteSpace=wrap;html=1;fontSize=16;labelBackgroundColor=none;fillColor=#dae8fc;strokeColor=#6c8ebf;" parent="XZn1DH3PBJOx24A4Sl1q-756" vertex="1">
                    <mxGeometry y="65.70484581497797" width="100" height="38.89726872246696" as="geometry"/>
                </mxCell>
                <mxCell id="XZn1DH3PBJOx24A4Sl1q-752" value="Gas" style="rounded=1;whiteSpace=wrap;html=1;fontSize=16;labelBackgroundColor=none;fillColor=#dae8fc;strokeColor=#6c8ebf;" parent="XZn1DH3PBJOx24A4Sl1q-756" vertex="1">
                    <mxGeometry y="130.88405286343612" width="100" height="38.89726872246696" as="geometry"/>
                </mxCell>
                <mxCell id="XZn1DH3PBJOx24A4Sl1q-746" value="Powder" style="rounded=1;whiteSpace=wrap;html=1;fontSize=16;labelBackgroundColor=none;fillColor=#dae8fc;strokeColor=#6c8ebf;" parent="XZn1DH3PBJOx24A4Sl1q-756" vertex="1">
                    <mxGeometry width="100" height="38.89726872246696" as="geometry"/>
                </mxCell>
                <mxCell id="XZn1DH3PBJOx24A4Sl1q-755" value="Static" style="rounded=1;whiteSpace=wrap;html=1;fontSize=16;labelBackgroundColor=none;fillColor=#dae8fc;strokeColor=#6c8ebf;" parent="XZn1DH3PBJOx24A4Sl1q-756" vertex="1">
                    <mxGeometry y="199.74273127753304" width="100" height="38.89726872246696" as="geometry"/>
                </mxCell>
                <mxCell id="XZn1DH3PBJOx24A4Sl1q-757" value="Entity" style="rounded=1;whiteSpace=wrap;html=1;fontSize=16;labelBackgroundColor=none;fillColor=#d5e8d4;strokeColor=#82b366;" parent="1" vertex="1">
                    <mxGeometry x="-2828" y="-2304" width="248" height="34" as="geometry"/>
                </mxCell>
                <mxCell id="XZn1DH3PBJOx24A4Sl1q-758" value="&lt;font style=&quot;font-size: 14px;&quot; face=&quot;Times New Roman&quot;&gt;Represent characters, objects, or creatures within the game world that the player can interact with. &lt;br&gt;&lt;/font&gt;" style="text;html=1;strokeColor=none;fillColor=none;align=center;verticalAlign=middle;whiteSpace=wrap;rounded=0;fontSize=16;" parent="1" vertex="1">
                    <mxGeometry x="-2816" y="-2401" width="224" height="72" as="geometry"/>
                </mxCell>
                <mxCell id="XZn1DH3PBJOx24A4Sl1q-760" value="" style="edgeStyle=orthogonalEdgeStyle;orthogonalLoop=1;jettySize=auto;html=1;fontSize=12;startSize=8;endSize=8;curved=1;" parent="1" source="XZn1DH3PBJOx24A4Sl1q-757" target="XZn1DH3PBJOx24A4Sl1q-765" edge="1">
                    <mxGeometry relative="1" as="geometry">
                        <mxPoint x="-1968" y="-2551" as="sourcePoint"/>
                    </mxGeometry>
                </mxCell>
                <mxCell id="XZn1DH3PBJOx24A4Sl1q-761" value="" style="edgeStyle=orthogonalEdgeStyle;orthogonalLoop=1;jettySize=auto;html=1;fontSize=12;startSize=8;endSize=8;curved=1;entryX=0;entryY=0.5;entryDx=0;entryDy=0;" parent="1" source="XZn1DH3PBJOx24A4Sl1q-757" target="XZn1DH3PBJOx24A4Sl1q-766" edge="1">
                    <mxGeometry relative="1" as="geometry">
                        <mxPoint x="-1968" y="-2551" as="sourcePoint"/>
                    </mxGeometry>
                </mxCell>
                <mxCell id="XZn1DH3PBJOx24A4Sl1q-763" value="" style="edgeStyle=orthogonalEdgeStyle;orthogonalLoop=1;jettySize=auto;html=1;fontSize=12;startSize=8;endSize=8;entryX=0;entryY=0.5;entryDx=0;entryDy=0;curved=1;" parent="1" source="XZn1DH3PBJOx24A4Sl1q-757" target="XZn1DH3PBJOx24A4Sl1q-767" edge="1">
                    <mxGeometry relative="1" as="geometry">
                        <mxPoint x="-1968" y="-2551" as="sourcePoint"/>
                    </mxGeometry>
                </mxCell>
                <mxCell id="XZn1DH3PBJOx24A4Sl1q-765" value="Enemies" style="rounded=1;whiteSpace=wrap;html=1;fontSize=16;labelBackgroundColor=none;fillColor=#dae8fc;strokeColor=#6c8ebf;" parent="1" vertex="1">
                    <mxGeometry x="-2499" y="-2299.68" width="134" height="26.63" as="geometry"/>
                </mxCell>
                <mxCell id="XZn1DH3PBJOx24A4Sl1q-766" value="Interactable elements" style="rounded=1;whiteSpace=wrap;html=1;fontSize=16;labelBackgroundColor=none;fillColor=#dae8fc;strokeColor=#6c8ebf;" parent="1" vertex="1">
                    <mxGeometry x="-2505" y="-2230.598678414097" width="146" height="47.43171806167401" as="geometry"/>
                </mxCell>
                <mxCell id="XZn1DH3PBJOx24A4Sl1q-767" value="Player" style="rounded=1;whiteSpace=wrap;html=1;fontSize=16;labelBackgroundColor=none;fillColor=#dae8fc;strokeColor=#6c8ebf;" parent="1" vertex="1">
                    <mxGeometry x="-2499" y="-2379.68" width="134" height="26.39" as="geometry"/>
                </mxCell>
                <mxCell id="XZn1DH3PBJOx24A4Sl1q-778" value="Rigidbody" style="rounded=1;whiteSpace=wrap;html=1;fontSize=16;labelBackgroundColor=none;fillColor=#d5e8d4;strokeColor=#82b366;" parent="1" vertex="1">
                    <mxGeometry x="-2831" y="-2165" width="251" height="40" as="geometry"/>
                </mxCell>
                <mxCell id="XZn1DH3PBJOx24A4Sl1q-782" value="&lt;font face=&quot;Times New Roman&quot;&gt;Represents object that have realistic physics that is calculated by external engine&lt;br&gt;&lt;/font&gt;" style="text;html=1;strokeColor=none;fillColor=none;align=center;verticalAlign=middle;whiteSpace=wrap;rounded=0;fontSize=16;" parent="1" vertex="1">
                    <mxGeometry x="-2816" y="-2245" width="224" height="72" as="geometry"/>
                </mxCell>
                <mxCell id="XZn1DH3PBJOx24A4Sl1q-784" style="edgeStyle=orthogonalEdgeStyle;shape=connector;curved=1;rounded=1;orthogonalLoop=1;jettySize=auto;html=1;labelBackgroundColor=default;strokeColor=default;align=center;verticalAlign=middle;fontFamily=Helvetica;fontSize=16;fontColor=default;endArrow=classic;startSize=8;endSize=8;exitX=1;exitY=0.5;exitDx=0;exitDy=0;" parent="1" source="XZn1DH3PBJOx24A4Sl1q-783" target="XZn1DH3PBJOx24A4Sl1q-778" edge="1">
                    <mxGeometry relative="1" as="geometry"/>
                </mxCell>
                <mxCell id="XZn1DH3PBJOx24A4Sl1q-783" value="PhysicsEngine" style="rounded=1;whiteSpace=wrap;html=1;fontSize=16;labelBackgroundColor=none;fillColor=#d5e8d4;strokeColor=#82b366;" parent="1" vertex="1">
                    <mxGeometry x="-3100" y="-2053" width="250" height="40" as="geometry"/>
                </mxCell>
                <mxCell id="XZn1DH3PBJOx24A4Sl1q-786" value="&lt;font face=&quot;Times New Roman&quot;&gt;An external physics engine that is responsible for rigidbodies and colliders (Rapier engine)&lt;br&gt;&lt;/font&gt;" style="text;html=1;strokeColor=none;fillColor=none;align=center;verticalAlign=middle;whiteSpace=wrap;rounded=0;fontSize=16;" parent="1" vertex="1">
                    <mxGeometry x="-3085" y="-2125" width="224" height="72" as="geometry"/>
                </mxCell>
                <mxCell id="XZn1DH3PBJOx24A4Sl1q-793" style="edgeStyle=orthogonalEdgeStyle;shape=connector;curved=1;rounded=1;orthogonalLoop=1;jettySize=auto;html=1;labelBackgroundColor=default;strokeColor=default;align=center;verticalAlign=middle;fontFamily=Helvetica;fontSize=16;fontColor=default;endArrow=classic;startSize=8;endSize=8;" parent="1" source="XZn1DH3PBJOx24A4Sl1q-787" target="XZn1DH3PBJOx24A4Sl1q-790" edge="1">
                    <mxGeometry relative="1" as="geometry"/>
                </mxCell>
                <mxCell id="XZn1DH3PBJOx24A4Sl1q-787" value="ChunkManager" style="rounded=1;whiteSpace=wrap;html=1;fontSize=16;labelBackgroundColor=none;fillColor=#d5e8d4;strokeColor=#82b366;" parent="1" vertex="1">
                    <mxGeometry x="-3010" y="-2523.68" width="260" height="43.68" as="geometry"/>
                </mxCell>
                <mxCell id="XZn1DH3PBJOx24A4Sl1q-788" value="&lt;font style=&quot;font-size: 14px;&quot; face=&quot;Times New Roman&quot;&gt;Respo&lt;/font&gt;&lt;font style=&quot;font-size: 14px;&quot; face=&quot;Times New Roman&quot;&gt;nsible&lt;/font&gt;&lt;font style=&quot;font-size: 14px;&quot; face=&quot;Times New Roman&quot;&gt;&lt;font style=&quot;font-size: 14px;&quot;&gt; for management and creation of chunks&lt;/font&gt;&lt;/font&gt;&lt;font style=&quot;font-size: 14px;&quot; face=&quot;Times New Roman&quot;&gt;&lt;br&gt;&lt;/font&gt;" style="text;html=1;strokeColor=none;fillColor=none;align=center;verticalAlign=middle;whiteSpace=wrap;rounded=0;fontSize=16;" parent="1" vertex="1">
                    <mxGeometry x="-2991.25" y="-2580" width="216.5" height="51" as="geometry"/>
                </mxCell>
                <mxCell id="XZn1DH3PBJOx24A4Sl1q-795" style="edgeStyle=orthogonalEdgeStyle;shape=connector;curved=1;rounded=1;orthogonalLoop=1;jettySize=auto;html=1;entryX=0;entryY=0.5;entryDx=0;entryDy=0;labelBackgroundColor=default;strokeColor=default;align=center;verticalAlign=middle;fontFamily=Helvetica;fontSize=16;fontColor=default;endArrow=classic;startSize=8;endSize=8;" parent="1" source="XZn1DH3PBJOx24A4Sl1q-790" target="XZn1DH3PBJOx24A4Sl1q-725" edge="1">
                    <mxGeometry relative="1" as="geometry"/>
                </mxCell>
                <mxCell id="XZn1DH3PBJOx24A4Sl1q-790" value="ChunkGenerator" style="rounded=1;whiteSpace=wrap;html=1;fontSize=16;labelBackgroundColor=none;fillColor=#d5e8d4;strokeColor=#82b366;" parent="1" vertex="1">
                    <mxGeometry x="-3325.75" y="-2643" width="255.75" height="43" as="geometry"/>
                </mxCell>
                <mxCell id="XZn1DH3PBJOx24A4Sl1q-792" value="&lt;font style=&quot;font-size: 14px;&quot; face=&quot;Times New Roman&quot;&gt;Combination of different generation algorithms that are responsible for creating complete world chunks&lt;br&gt;&lt;/font&gt;" style="text;html=1;strokeColor=none;fillColor=none;align=center;verticalAlign=middle;whiteSpace=wrap;rounded=0;fontSize=16;" parent="1" vertex="1">
                    <mxGeometry x="-3310.75" y="-2720" width="224" height="72" as="geometry"/>
                </mxCell>
                <mxCell id="XZn1DH3PBJOx24A4Sl1q-799" value="&lt;div style=&quot;font-size: 13px;&quot;&gt;&lt;font style=&quot;font-size: 13px;&quot; face=&quot;Times New Roman&quot;&gt;item that player&lt;/font&gt;&lt;/div&gt;&lt;div style=&quot;font-size: 13px;&quot;&gt;&lt;font style=&quot;font-size: 13px;&quot; face=&quot;Times New Roman&quot;&gt;is currently holding&lt;/font&gt;&lt;/div&gt;" style="edgeStyle=orthogonalEdgeStyle;shape=connector;curved=1;rounded=1;orthogonalLoop=1;jettySize=auto;html=1;labelBackgroundColor=default;strokeColor=default;align=center;verticalAlign=middle;fontFamily=Helvetica;fontSize=16;fontColor=default;endArrow=classic;startSize=8;endSize=8;entryX=0;entryY=0.5;entryDx=0;entryDy=0;" parent="1" source="XZn1DH3PBJOx24A4Sl1q-797" target="XZn1DH3PBJOx24A4Sl1q-721" edge="1">
                    <mxGeometry relative="1" as="geometry">
                        <Array as="points">
                            <mxPoint x="-3330" y="-2028"/>
                            <mxPoint x="-3330" y="-2287"/>
                        </Array>
                    </mxGeometry>
                </mxCell>
                <mxCell id="XZn1DH3PBJOx24A4Sl1q-797" value="InventorySystem" style="rounded=1;whiteSpace=wrap;html=1;fontSize=16;labelBackgroundColor=none;fillColor=#d5e8d4;strokeColor=#82b366;" parent="1" vertex="1">
                    <mxGeometry x="-3625" y="-2048.9300000000003" width="250" height="42.68" as="geometry"/>
                </mxCell>
                <mxCell id="XZn1DH3PBJOx24A4Sl1q-798" value="&lt;font style=&quot;font-size: 14px;&quot; face=&quot;Times New Roman&quot;&gt;Storage of different items types of items that can be used by player&lt;br style=&quot;font-size: 14px;&quot;&gt;&lt;/font&gt;" style="text;html=1;strokeColor=none;fillColor=none;align=center;verticalAlign=middle;whiteSpace=wrap;rounded=0;fontSize=14;" parent="1" vertex="1">
                    <mxGeometry x="-3606.25" y="-2096.25" width="216.5" height="42" as="geometry"/>
                </mxCell>
                <mxCell id="XZn1DH3PBJOx24A4Sl1q-809" style="edgeStyle=orthogonalEdgeStyle;shape=connector;curved=1;rounded=1;orthogonalLoop=1;jettySize=auto;html=1;labelBackgroundColor=default;strokeColor=default;align=center;verticalAlign=middle;fontFamily=Helvetica;fontSize=16;fontColor=default;endArrow=classic;startSize=8;endSize=8;" parent="1" source="XZn1DH3PBJOx24A4Sl1q-801" target="XZn1DH3PBJOx24A4Sl1q-805" edge="1">
                    <mxGeometry relative="1" as="geometry"/>
                </mxCell>
                <mxCell id="XZn1DH3PBJOx24A4Sl1q-810" value="&lt;font style=&quot;font-size: 13px;&quot;&gt;player movement&lt;/font&gt;" style="edgeLabel;html=1;align=center;verticalAlign=middle;resizable=0;points=[];fontSize=13;fontFamily=Times New Roman;fontColor=default;" parent="XZn1DH3PBJOx24A4Sl1q-809" vertex="1" connectable="0">
                    <mxGeometry x="0.047" y="-1" relative="1" as="geometry">
                        <mxPoint x="6" y="-63" as="offset"/>
                    </mxGeometry>
                </mxCell>
                <mxCell id="XZn1DH3PBJOx24A4Sl1q-816" style="edgeStyle=orthogonalEdgeStyle;shape=connector;curved=1;rounded=1;orthogonalLoop=1;jettySize=auto;html=1;entryX=0;entryY=0.5;entryDx=0;entryDy=0;labelBackgroundColor=default;strokeColor=default;align=center;verticalAlign=middle;fontFamily=Helvetica;fontSize=16;fontColor=default;endArrow=classic;startSize=8;endSize=8;" parent="1" source="XZn1DH3PBJOx24A4Sl1q-801" target="XZn1DH3PBJOx24A4Sl1q-803" edge="1">
                    <mxGeometry relative="1" as="geometry"/>
                </mxCell>
                <mxCell id="XZn1DH3PBJOx24A4Sl1q-817" value="pause game" style="edgeLabel;html=1;align=center;verticalAlign=middle;resizable=0;points=[];fontSize=13;fontFamily=Times New Roman;fontColor=default;" parent="XZn1DH3PBJOx24A4Sl1q-816" vertex="1" connectable="0">
                    <mxGeometry x="0.1007" y="1" relative="1" as="geometry">
                        <mxPoint x="37" y="1" as="offset"/>
                    </mxGeometry>
                </mxCell>
                <mxCell id="XZn1DH3PBJOx24A4Sl1q-818" style="edgeStyle=orthogonalEdgeStyle;shape=connector;curved=1;rounded=1;orthogonalLoop=1;jettySize=auto;html=1;entryX=0;entryY=0.5;entryDx=0;entryDy=0;labelBackgroundColor=default;strokeColor=default;align=center;verticalAlign=middle;fontFamily=Helvetica;fontSize=16;fontColor=default;endArrow=classic;startSize=8;endSize=8;" parent="1" source="XZn1DH3PBJOx24A4Sl1q-801" target="XZn1DH3PBJOx24A4Sl1q-797" edge="1">
                    <mxGeometry relative="1" as="geometry"/>
                </mxCell>
                <mxCell id="XZn1DH3PBJOx24A4Sl1q-819" value="item usage" style="edgeLabel;html=1;align=center;verticalAlign=middle;resizable=0;points=[];fontSize=13;fontFamily=Times New Roman;fontColor=default;" parent="XZn1DH3PBJOx24A4Sl1q-818" vertex="1" connectable="0">
                    <mxGeometry x="0.1041" relative="1" as="geometry">
                        <mxPoint x="84" y="1" as="offset"/>
                    </mxGeometry>
                </mxCell>
                <mxCell id="XZn1DH3PBJOx24A4Sl1q-801" value="CharacterController" style="rounded=1;whiteSpace=wrap;html=1;fontSize=16;labelBackgroundColor=none;fillColor=#d5e8d4;strokeColor=#82b366;" parent="1" vertex="1">
                    <mxGeometry x="-4053" y="-2182" width="190" height="44" as="geometry"/>
                </mxCell>
                <mxCell id="XZn1DH3PBJOx24A4Sl1q-802" value="&lt;font face=&quot;Times New Roman&quot;&gt;Manages and sorts player input&lt;br&gt;&lt;/font&gt;" style="text;html=1;strokeColor=none;fillColor=none;align=center;verticalAlign=middle;whiteSpace=wrap;rounded=0;fontSize=16;" parent="1" vertex="1">
                    <mxGeometry x="-4070" y="-2222" width="224" height="40" as="geometry"/>
                </mxCell>
                <mxCell id="XZn1DH3PBJOx24A4Sl1q-803" value="GameManager" style="rounded=1;whiteSpace=wrap;html=1;fontSize=16;labelBackgroundColor=none;fillColor=#d5e8d4;strokeColor=#82b366;" parent="1" vertex="1">
                    <mxGeometry x="-3616" y="-2180" width="210" height="44.5" as="geometry"/>
                </mxCell>
                <mxCell id="XZn1DH3PBJOx24A4Sl1q-804" value="&lt;font face=&quot;Times New Roman&quot; style=&quot;font-size: 14px;&quot;&gt;Holds player's parameters and current game and world state&lt;br style=&quot;font-size: 14px;&quot;&gt;&lt;/font&gt;" style="text;html=1;strokeColor=none;fillColor=none;align=center;verticalAlign=middle;whiteSpace=wrap;rounded=0;fontSize=14;" parent="1" vertex="1">
                    <mxGeometry x="-3622.5" y="-2223.17" width="223" height="40" as="geometry"/>
                </mxCell>
                <mxCell id="XZn1DH3PBJOx24A4Sl1q-811" style="edgeStyle=orthogonalEdgeStyle;shape=connector;curved=1;rounded=1;orthogonalLoop=1;jettySize=auto;html=1;labelBackgroundColor=default;strokeColor=default;align=center;verticalAlign=middle;fontFamily=Helvetica;fontSize=16;fontColor=default;endArrow=classic;startSize=8;endSize=8;" parent="1" source="XZn1DH3PBJOx24A4Sl1q-805" target="XZn1DH3PBJOx24A4Sl1q-721" edge="1">
                    <mxGeometry relative="1" as="geometry"/>
                </mxCell>
                <mxCell id="XZn1DH3PBJOx24A4Sl1q-812" style="edgeStyle=orthogonalEdgeStyle;shape=connector;rounded=1;orthogonalLoop=1;jettySize=auto;html=1;entryX=0;entryY=0.5;entryDx=0;entryDy=0;labelBackgroundColor=default;strokeColor=default;align=center;verticalAlign=middle;fontFamily=Helvetica;fontSize=16;fontColor=default;endArrow=classic;startSize=8;endSize=8;exitX=1;exitY=0.5;exitDx=0;exitDy=0;" parent="1" source="XZn1DH3PBJOx24A4Sl1q-805" target="XZn1DH3PBJOx24A4Sl1q-807" edge="1">
                    <mxGeometry relative="1" as="geometry"/>
                </mxCell>
                <mxCell id="XZn1DH3PBJOx24A4Sl1q-813" style="edgeStyle=orthogonalEdgeStyle;shape=connector;rounded=1;orthogonalLoop=1;jettySize=auto;html=1;entryX=0;entryY=0.5;entryDx=0;entryDy=0;labelBackgroundColor=default;strokeColor=default;align=center;verticalAlign=middle;fontFamily=Helvetica;fontSize=16;fontColor=default;endArrow=classic;startSize=8;endSize=8;" parent="1" source="XZn1DH3PBJOx24A4Sl1q-805" target="XZn1DH3PBJOx24A4Sl1q-808" edge="1">
                    <mxGeometry relative="1" as="geometry"/>
                </mxCell>
                <mxCell id="XZn1DH3PBJOx24A4Sl1q-805" value="GameEngine" style="rounded=1;whiteSpace=wrap;html=1;fontSize=16;labelBackgroundColor=none;fillColor=#d5e8d4;strokeColor=#82b366;" parent="1" vertex="1">
                    <mxGeometry x="-3840" y="-2309" width="210" height="44" as="geometry"/>
                </mxCell>
                <mxCell id="XZn1DH3PBJOx24A4Sl1q-806" value="&lt;font face=&quot;Times New Roman&quot; style=&quot;font-size: 14px;&quot;&gt;Manages many game's subsystems&lt;br style=&quot;font-size: 14px;&quot;&gt;&lt;/font&gt;" style="text;html=1;strokeColor=none;fillColor=none;align=center;verticalAlign=middle;whiteSpace=wrap;rounded=0;fontSize=14;" parent="1" vertex="1">
                    <mxGeometry x="-3847" y="-2349" width="224" height="40" as="geometry"/>
                </mxCell>
                <mxCell id="XZn1DH3PBJOx24A4Sl1q-807" value="AudioSystem" style="rounded=1;whiteSpace=wrap;html=1;fontSize=16;labelBackgroundColor=none;fillColor=#d5e8d4;strokeColor=#82b366;" parent="1" vertex="1">
                    <mxGeometry x="-3520" y="-2444.68" width="170" height="43.68" as="geometry"/>
                </mxCell>
                <mxCell id="XZn1DH3PBJOx24A4Sl1q-808" value="RenderSystem" style="rounded=1;whiteSpace=wrap;html=1;fontSize=16;labelBackgroundColor=none;fillColor=#d5e8d4;strokeColor=#82b366;" parent="1" vertex="1">
                    <mxGeometry x="-3520" y="-2379.68" width="170" height="44.68" as="geometry"/>
                </mxCell>
                <mxCell id="EmUaQzbzAnPs78ngRSip-1" value="Class diagram" style="swimlane;fontSize=16;labelBackgroundColor=none;" parent="1" vertex="1">
                    <mxGeometry x="795" y="470" width="1215" height="777" as="geometry"/>
                </mxCell>
                <mxCell id="EmUaQzbzAnPs78ngRSip-2" value=":Game" style="shape=umlLifeline;perimeter=lifelinePerimeter;whiteSpace=wrap;html=1;container=1;collapsible=0;recursiveResize=0;outlineConnect=0;rounded=1;shadow=0;comic=0;labelBackgroundColor=none;strokeWidth=1;fontFamily=Verdana;fontSize=12;align=center;" parent="EmUaQzbzAnPs78ngRSip-1" vertex="1">
                    <mxGeometry x="365" y="110" width="100" height="580" as="geometry"/>
                </mxCell>
                <mxCell id="EmUaQzbzAnPs78ngRSip-3" value="" style="html=1;points=[];perimeter=orthogonalPerimeter;rounded=0;shadow=0;comic=0;labelBackgroundColor=none;strokeWidth=1;fontFamily=Verdana;fontSize=12;align=center;" parent="EmUaQzbzAnPs78ngRSip-2" vertex="1">
                    <mxGeometry x="45" y="130" width="10" height="100" as="geometry"/>
                </mxCell>
                <mxCell id="EmUaQzbzAnPs78ngRSip-4" value="updateState()" style="html=1;verticalAlign=bottom;endArrow=block;labelBackgroundColor=none;fontFamily=Verdana;fontSize=12;edgeStyle=elbowEdgeStyle;elbow=vertical;rounded=0;exitX=1.133;exitY=0.101;exitDx=0;exitDy=0;exitPerimeter=0;fontColor=default;" parent="EmUaQzbzAnPs78ngRSip-2" target="EmUaQzbzAnPs78ngRSip-8" edge="1">
                    <mxGeometry x="0.0059" relative="1" as="geometry">
                        <mxPoint x="54.99999999999993" y="210.11" as="sourcePoint"/>
                        <mxPoint x="204.67" y="210.00333333333344" as="targetPoint"/>
                        <mxPoint as="offset"/>
                    </mxGeometry>
                </mxCell>
                <mxCell id="EmUaQzbzAnPs78ngRSip-5" value="itemInteraction()" style="html=1;verticalAlign=bottom;endArrow=block;labelBackgroundColor=none;fontFamily=Verdana;fontSize=12;edgeStyle=elbowEdgeStyle;elbow=vertical;rounded=0;fontColor=default;" parent="EmUaQzbzAnPs78ngRSip-2" target="EmUaQzbzAnPs78ngRSip-10" edge="1">
                    <mxGeometry x="0.0026" relative="1" as="geometry">
                        <mxPoint x="55" y="179.71000000000004" as="sourcePoint"/>
                        <Array as="points">
                            <mxPoint x="220" y="179.71000000000004"/>
                        </Array>
                        <mxPoint x="345" y="179.71000000000004" as="targetPoint"/>
                        <mxPoint as="offset"/>
                    </mxGeometry>
                </mxCell>
                <mxCell id="EmUaQzbzAnPs78ngRSip-6" value="stored items" style="html=1;verticalAlign=bottom;endArrow=open;dashed=1;endSize=8;labelBackgroundColor=none;fontFamily=Verdana;fontSize=12;edgeStyle=elbowEdgeStyle;elbow=vertical;rounded=0;fontColor=default;" parent="EmUaQzbzAnPs78ngRSip-2" edge="1">
                    <mxGeometry relative="1" as="geometry">
                        <mxPoint x="-180.18965517241395" y="289.99655172413816" as="targetPoint"/>
                        <mxPoint x="264.9999999999998" y="289.99655172413816" as="sourcePoint"/>
                    </mxGeometry>
                </mxCell>
                <mxCell id="EmUaQzbzAnPs78ngRSip-7" value=":GameState" style="shape=umlLifeline;perimeter=lifelinePerimeter;whiteSpace=wrap;html=1;container=1;collapsible=0;recursiveResize=0;outlineConnect=0;rounded=1;shadow=0;comic=0;labelBackgroundColor=none;strokeWidth=1;fontFamily=Verdana;fontSize=12;align=center;" parent="EmUaQzbzAnPs78ngRSip-1" vertex="1">
                    <mxGeometry x="475" y="110" width="100" height="580" as="geometry"/>
                </mxCell>
                <mxCell id="EmUaQzbzAnPs78ngRSip-8" value="" style="html=1;points=[];perimeter=orthogonalPerimeter;rounded=0;shadow=0;comic=0;labelBackgroundColor=none;strokeWidth=1;fontFamily=Verdana;fontSize=12;align=center;" parent="EmUaQzbzAnPs78ngRSip-7" vertex="1">
                    <mxGeometry x="46" y="190" width="10" height="80" as="geometry"/>
                </mxCell>
                <mxCell id="EmUaQzbzAnPs78ngRSip-9" value=":InventorySystem" style="shape=umlLifeline;perimeter=lifelinePerimeter;whiteSpace=wrap;html=1;container=1;collapsible=0;recursiveResize=0;outlineConnect=0;rounded=1;shadow=0;comic=0;labelBackgroundColor=none;strokeWidth=1;fontFamily=Verdana;fontSize=12;align=center;" parent="EmUaQzbzAnPs78ngRSip-1" vertex="1">
                    <mxGeometry x="585" y="110" width="100" height="580" as="geometry"/>
                </mxCell>
                <mxCell id="EmUaQzbzAnPs78ngRSip-10" value="" style="html=1;points=[];perimeter=orthogonalPerimeter;rounded=0;shadow=0;comic=0;labelBackgroundColor=none;strokeWidth=1;fontFamily=Verdana;fontSize=12;align=center;" parent="EmUaQzbzAnPs78ngRSip-9" vertex="1">
                    <mxGeometry x="45" y="160" width="10" height="150" as="geometry"/>
                </mxCell>
                <mxCell id="EmUaQzbzAnPs78ngRSip-11" value=":EntitiyManager" style="shape=umlLifeline;perimeter=lifelinePerimeter;whiteSpace=wrap;html=1;container=1;collapsible=0;recursiveResize=0;outlineConnect=0;rounded=1;shadow=0;comic=0;labelBackgroundColor=none;strokeWidth=1;fontFamily=Verdana;fontSize=12;align=center;" parent="EmUaQzbzAnPs78ngRSip-1" vertex="1">
                    <mxGeometry x="696" y="110" width="100" height="580" as="geometry"/>
                </mxCell>
                <mxCell id="EmUaQzbzAnPs78ngRSip-12" value="" style="html=1;points=[];perimeter=orthogonalPerimeter;rounded=0;shadow=0;comic=0;labelBackgroundColor=none;strokeWidth=1;fontFamily=Verdana;fontSize=12;align=center;" parent="EmUaQzbzAnPs78ngRSip-11" vertex="1">
                    <mxGeometry x="45" y="130" width="10" height="350" as="geometry"/>
                </mxCell>
                <mxCell id="EmUaQzbzAnPs78ngRSip-13" value="updateVel()" style="html=1;verticalAlign=bottom;endArrow=block;labelBackgroundColor=none;fontFamily=Verdana;fontSize=12;elbow=vertical;edgeStyle=orthogonalEdgeStyle;rounded=1;fontColor=default;" parent="EmUaQzbzAnPs78ngRSip-11" source="EmUaQzbzAnPs78ngRSip-12" target="EmUaQzbzAnPs78ngRSip-14" edge="1">
                    <mxGeometry x="0.6211" y="-7" relative="1" as="geometry">
                        <mxPoint x="55" y="160" as="sourcePoint"/>
                        <mxPoint x="60.333333333333485" y="208.33333333333348" as="targetPoint"/>
                        <Array as="points">
                            <mxPoint x="136" y="197"/>
                            <mxPoint x="136" y="230"/>
                        </Array>
                        <mxPoint as="offset"/>
                    </mxGeometry>
                </mxCell>
                <mxCell id="EmUaQzbzAnPs78ngRSip-14" value="" style="html=1;points=[];perimeter=orthogonalPerimeter;rounded=0;shadow=0;comic=0;labelBackgroundColor=none;strokeWidth=1;fontFamily=Verdana;fontSize=12;align=center;" parent="EmUaQzbzAnPs78ngRSip-11" vertex="1">
                    <mxGeometry x="50" y="220" width="10" height="20" as="geometry"/>
                </mxCell>
                <mxCell id="EmUaQzbzAnPs78ngRSip-15" value="screen texture" style="html=1;verticalAlign=bottom;endArrow=open;dashed=1;endSize=8;labelBackgroundColor=none;fontFamily=Verdana;fontSize=12;edgeStyle=elbowEdgeStyle;elbow=vertical;rounded=0;fontColor=default;" parent="EmUaQzbzAnPs78ngRSip-11" edge="1">
                    <mxGeometry relative="1" as="geometry">
                        <mxPoint x="-511.18965517241395" y="500.0013793103451" as="targetPoint"/>
                        <mxPoint x="394" y="500.0013793103451" as="sourcePoint"/>
                    </mxGeometry>
                </mxCell>
                <mxCell id="EmUaQzbzAnPs78ngRSip-16" value=":WorldSimulation" style="shape=umlLifeline;perimeter=lifelinePerimeter;whiteSpace=wrap;html=1;container=1;collapsible=0;recursiveResize=0;outlineConnect=0;rounded=1;shadow=0;comic=0;labelBackgroundColor=none;strokeWidth=1;fontFamily=Verdana;fontSize=12;align=center;" parent="EmUaQzbzAnPs78ngRSip-1" vertex="1">
                    <mxGeometry x="815" y="110" width="100" height="580" as="geometry"/>
                </mxCell>
                <mxCell id="EmUaQzbzAnPs78ngRSip-17" value="" style="html=1;points=[];perimeter=orthogonalPerimeter;rounded=0;shadow=0;comic=0;labelBackgroundColor=none;strokeWidth=1;fontFamily=Verdana;fontSize=12;align=center;" parent="EmUaQzbzAnPs78ngRSip-16" vertex="1">
                    <mxGeometry x="45" y="220" width="10" height="220" as="geometry"/>
                </mxCell>
                <mxCell id="EmUaQzbzAnPs78ngRSip-18" value="update" style="html=1;verticalAlign=bottom;endArrow=block;labelBackgroundColor=none;fontFamily=Verdana;fontSize=12;elbow=vertical;edgeStyle=orthogonalEdgeStyle;rounded=1;fontColor=default;" parent="EmUaQzbzAnPs78ngRSip-16" source="EmUaQzbzAnPs78ngRSip-17" target="EmUaQzbzAnPs78ngRSip-19" edge="1">
                    <mxGeometry x="0.7185" y="-7" relative="1" as="geometry">
                        <mxPoint x="55" y="240" as="sourcePoint"/>
                        <mxPoint x="60.333333333333485" y="288.3333333333335" as="targetPoint"/>
                        <Array as="points">
                            <mxPoint x="110" y="260"/>
                            <mxPoint x="110" y="290"/>
                        </Array>
                        <mxPoint as="offset"/>
                    </mxGeometry>
                </mxCell>
                <mxCell id="EmUaQzbzAnPs78ngRSip-19" value="" style="html=1;points=[];perimeter=orthogonalPerimeter;rounded=0;shadow=0;comic=0;labelBackgroundColor=none;strokeWidth=1;fontFamily=Verdana;fontSize=12;align=center;" parent="EmUaQzbzAnPs78ngRSip-16" vertex="1">
                    <mxGeometry x="50" y="280" width="10" height="80" as="geometry"/>
                </mxCell>
                <mxCell id="EmUaQzbzAnPs78ngRSip-20" value="setActiveEntities()" style="html=1;verticalAlign=bottom;endArrow=block;labelBackgroundColor=none;fontFamily=Verdana;fontSize=12;rounded=0;fontColor=default;" parent="EmUaQzbzAnPs78ngRSip-16" source="EmUaQzbzAnPs78ngRSip-12" edge="1">
                    <mxGeometry relative="1" as="geometry">
                        <mxPoint x="-85" y="250" as="sourcePoint"/>
                        <mxPoint x="45" y="250" as="targetPoint"/>
                    </mxGeometry>
                </mxCell>
                <mxCell id="EmUaQzbzAnPs78ngRSip-21" value=":WorldGenerator" style="shape=umlLifeline;perimeter=lifelinePerimeter;whiteSpace=wrap;html=1;container=1;collapsible=0;recursiveResize=0;outlineConnect=0;rounded=1;shadow=0;comic=0;labelBackgroundColor=none;strokeWidth=1;fontFamily=Verdana;fontSize=12;align=center;" parent="EmUaQzbzAnPs78ngRSip-1" vertex="1">
                    <mxGeometry x="935" y="110" width="100" height="580" as="geometry"/>
                </mxCell>
                <mxCell id="EmUaQzbzAnPs78ngRSip-22" value="" style="html=1;points=[];perimeter=orthogonalPerimeter;rounded=0;shadow=0;comic=0;labelBackgroundColor=none;strokeWidth=1;fontFamily=Verdana;fontSize=12;align=center;" parent="EmUaQzbzAnPs78ngRSip-21" vertex="1">
                    <mxGeometry x="45" y="326" width="10" height="80" as="geometry"/>
                </mxCell>
                <mxCell id="EmUaQzbzAnPs78ngRSip-23" value="chunk at (x, y)" style="html=1;verticalAlign=bottom;endArrow=open;dashed=1;endSize=8;labelBackgroundColor=none;fontFamily=Verdana;fontSize=12;edgeStyle=elbowEdgeStyle;elbow=vertical;rounded=0;fontColor=default;" parent="EmUaQzbzAnPs78ngRSip-21" target="EmUaQzbzAnPs78ngRSip-17" edge="1">
                    <mxGeometry relative="1" as="geometry">
                        <mxPoint x="-85" y="390" as="targetPoint"/>
                        <mxPoint x="45" y="390" as="sourcePoint"/>
                    </mxGeometry>
                </mxCell>
                <mxCell id="EmUaQzbzAnPs78ngRSip-24" value=":UserController" style="shape=umlLifeline;perimeter=lifelinePerimeter;whiteSpace=wrap;html=1;container=1;collapsible=0;recursiveResize=0;outlineConnect=0;rounded=1;shadow=0;comic=0;labelBackgroundColor=none;strokeWidth=1;fontFamily=Verdana;fontSize=12;align=center;" parent="EmUaQzbzAnPs78ngRSip-1" vertex="1">
                    <mxGeometry x="255" y="110" width="100" height="580" as="geometry"/>
                </mxCell>
                <mxCell id="EmUaQzbzAnPs78ngRSip-25" value="" style="html=1;points=[];perimeter=orthogonalPerimeter;rounded=0;shadow=0;comic=0;labelBackgroundColor=none;strokeWidth=1;fontFamily=Verdana;fontSize=12;align=center;" parent="EmUaQzbzAnPs78ngRSip-24" vertex="1">
                    <mxGeometry x="45" y="100" width="10" height="100" as="geometry"/>
                </mxCell>
                <mxCell id="EmUaQzbzAnPs78ngRSip-26" value="&lt;div&gt;[out of borders]&lt;/div&gt;&lt;div&gt;newChunk(x, y)&lt;/div&gt;" style="html=1;verticalAlign=bottom;endArrow=block;labelBackgroundColor=none;fontFamily=Verdana;fontSize=12;elbow=vertical;edgeStyle=orthogonalEdgeStyle;curved=1;rounded=0;fontColor=default;" parent="EmUaQzbzAnPs78ngRSip-1" source="EmUaQzbzAnPs78ngRSip-19" target="EmUaQzbzAnPs78ngRSip-22" edge="1">
                    <mxGeometry x="-0.0019" relative="1" as="geometry">
                        <mxPoint x="1030" y="470" as="sourcePoint"/>
                        <mxPoint x="1035" y="520" as="targetPoint"/>
                        <Array as="points">
                            <mxPoint x="925" y="450"/>
                            <mxPoint x="925" y="450"/>
                        </Array>
                        <mxPoint as="offset"/>
                    </mxGeometry>
                </mxCell>
                <mxCell id="EmUaQzbzAnPs78ngRSip-27" value=":WorldRenderer" style="shape=umlLifeline;perimeter=lifelinePerimeter;whiteSpace=wrap;html=1;container=1;collapsible=0;recursiveResize=0;outlineConnect=0;rounded=1;shadow=0;comic=0;labelBackgroundColor=none;strokeWidth=1;fontFamily=Verdana;fontSize=12;align=center;" parent="EmUaQzbzAnPs78ngRSip-1" vertex="1">
                    <mxGeometry x="1045" y="110" width="100" height="580" as="geometry"/>
                </mxCell>
                <mxCell id="EmUaQzbzAnPs78ngRSip-28" value="" style="html=1;points=[];perimeter=orthogonalPerimeter;rounded=0;shadow=0;comic=0;labelBackgroundColor=none;strokeWidth=1;fontFamily=Verdana;fontSize=12;align=center;" parent="EmUaQzbzAnPs78ngRSip-27" vertex="1">
                    <mxGeometry x="45" y="420" width="10" height="90" as="geometry"/>
                </mxCell>
                <mxCell id="EmUaQzbzAnPs78ngRSip-29" value="renderChunks()" style="html=1;verticalAlign=bottom;endArrow=block;labelBackgroundColor=none;fontFamily=Verdana;fontSize=12;elbow=vertical;edgeStyle=orthogonalEdgeStyle;curved=1;rounded=0;fontColor=default;" parent="EmUaQzbzAnPs78ngRSip-1" source="EmUaQzbzAnPs78ngRSip-17" target="EmUaQzbzAnPs78ngRSip-28" edge="1">
                    <mxGeometry relative="1" as="geometry">
                        <mxPoint x="1015" y="530" as="sourcePoint"/>
                        <mxPoint x="1295" y="530" as="targetPoint"/>
                        <Array as="points">
                            <mxPoint x="1035" y="540"/>
                            <mxPoint x="1035" y="540"/>
                        </Array>
                    </mxGeometry>
                </mxCell>
                <mxCell id="EmUaQzbzAnPs78ngRSip-30" value="renderEntities()" style="html=1;verticalAlign=bottom;endArrow=block;labelBackgroundColor=none;fontFamily=Verdana;fontSize=12;elbow=vertical;edgeStyle=orthogonalEdgeStyle;curved=1;rounded=0;fontColor=default;" parent="EmUaQzbzAnPs78ngRSip-1" source="EmUaQzbzAnPs78ngRSip-12" target="EmUaQzbzAnPs78ngRSip-28" edge="1">
                    <mxGeometry relative="1" as="geometry">
                        <mxPoint x="860" y="570" as="sourcePoint"/>
                        <mxPoint x="1140" y="570" as="targetPoint"/>
                        <Array as="points">
                            <mxPoint x="925" y="570"/>
                            <mxPoint x="925" y="570"/>
                        </Array>
                    </mxGeometry>
                </mxCell>
                <mxCell id="EmUaQzbzAnPs78ngRSip-31" value=":GUI" style="shape=umlLifeline;perimeter=lifelinePerimeter;whiteSpace=wrap;html=1;container=1;collapsible=0;recursiveResize=0;outlineConnect=0;rounded=1;shadow=0;comic=0;labelBackgroundColor=none;strokeWidth=1;fontFamily=Verdana;fontSize=12;align=center;" parent="EmUaQzbzAnPs78ngRSip-1" vertex="1">
                    <mxGeometry x="135" y="110" width="100" height="580" as="geometry"/>
                </mxCell>
                <mxCell id="EmUaQzbzAnPs78ngRSip-32" value="" style="html=1;points=[];perimeter=orthogonalPerimeter;rounded=0;shadow=0;comic=0;labelBackgroundColor=none;strokeWidth=1;fontFamily=Verdana;fontSize=12;align=center;" parent="EmUaQzbzAnPs78ngRSip-31" vertex="1">
                    <mxGeometry x="45" y="60" width="10" height="140" as="geometry"/>
                </mxCell>
                <mxCell id="EmUaQzbzAnPs78ngRSip-33" value="processInput()" style="html=1;verticalAlign=bottom;endArrow=block;entryX=0;entryY=0;labelBackgroundColor=none;fontFamily=Verdana;fontSize=12;edgeStyle=elbowEdgeStyle;elbow=vertical;rounded=0;fontColor=default;" parent="EmUaQzbzAnPs78ngRSip-1" source="EmUaQzbzAnPs78ngRSip-25" edge="1">
                    <mxGeometry relative="1" as="geometry">
                        <mxPoint x="280" y="250.23809523809496" as="sourcePoint"/>
                        <mxPoint x="410" y="250" as="targetPoint"/>
                    </mxGeometry>
                </mxCell>
                <mxCell id="EmUaQzbzAnPs78ngRSip-34" value="render()" style="html=1;verticalAlign=bottom;endArrow=block;labelBackgroundColor=none;fontFamily=Verdana;fontSize=12;elbow=vertical;edgeStyle=orthogonalEdgeStyle;rounded=1;fontColor=default;" parent="EmUaQzbzAnPs78ngRSip-1" source="EmUaQzbzAnPs78ngRSip-32" target="EmUaQzbzAnPs78ngRSip-35" edge="1">
                    <mxGeometry x="0.6434" y="-4" relative="1" as="geometry">
                        <mxPoint x="140" y="180" as="sourcePoint"/>
                        <mxPoint x="145.33333333333348" y="208.33333333333348" as="targetPoint"/>
                        <Array as="points">
                            <mxPoint x="244" y="179"/>
                            <mxPoint x="244" y="205"/>
                        </Array>
                        <mxPoint as="offset"/>
                    </mxGeometry>
                </mxCell>
                <mxCell id="EmUaQzbzAnPs78ngRSip-35" value="" style="html=1;points=[];perimeter=orthogonalPerimeter;rounded=0;shadow=0;comic=0;labelBackgroundColor=none;strokeWidth=1;fontFamily=Verdana;fontSize=12;align=center;" parent="EmUaQzbzAnPs78ngRSip-1" vertex="1">
                    <mxGeometry x="185" y="190" width="10" height="29" as="geometry"/>
                </mxCell>
                <mxCell id="EmUaQzbzAnPs78ngRSip-36" value="player stats" style="html=1;verticalAlign=bottom;endArrow=open;dashed=1;endSize=8;labelBackgroundColor=none;fontFamily=Verdana;fontSize=12;edgeStyle=elbowEdgeStyle;elbow=vertical;rounded=0;fontColor=default;" parent="EmUaQzbzAnPs78ngRSip-1" source="EmUaQzbzAnPs78ngRSip-8" target="EmUaQzbzAnPs78ngRSip-31" edge="1">
                    <mxGeometry relative="1" as="geometry">
                        <mxPoint x="-5.071428571428555" y="360.00285714285735" as="targetPoint"/>
                        <mxPoint x="570" y="360.00285714285735" as="sourcePoint"/>
                        <Array as="points">
                            <mxPoint x="495" y="370"/>
                        </Array>
                    </mxGeometry>
                </mxCell>
                <mxCell id="EmUaQzbzAnPs78ngRSip-37" value="movePlayer()" style="html=1;verticalAlign=bottom;endArrow=block;labelBackgroundColor=none;fontFamily=Verdana;fontSize=12;edgeStyle=elbowEdgeStyle;elbow=vertical;rounded=0;fontColor=default;" parent="EmUaQzbzAnPs78ngRSip-1" source="EmUaQzbzAnPs78ngRSip-3" target="EmUaQzbzAnPs78ngRSip-12" edge="1">
                    <mxGeometry x="0.0026" relative="1" as="geometry">
                        <mxPoint x="420" y="220" as="sourcePoint"/>
                        <Array as="points">
                            <mxPoint x="535" y="260"/>
                            <mxPoint x="424" y="220"/>
                        </Array>
                        <mxPoint x="549" y="220" as="targetPoint"/>
                        <mxPoint as="offset"/>
                    </mxGeometry>
                </mxCell>
                <mxCell id="EmUaQzbzAnPs78ngRSip-38" style="edgeStyle=orthogonalEdgeStyle;rounded=0;orthogonalLoop=1;jettySize=auto;html=1;labelBackgroundColor=none;fontColor=default;" parent="EmUaQzbzAnPs78ngRSip-1" source="EmUaQzbzAnPs78ngRSip-32" target="EmUaQzbzAnPs78ngRSip-25" edge="1">
                    <mxGeometry relative="1" as="geometry">
                        <mxPoint x="140" y="250" as="sourcePoint"/>
                        <mxPoint x="300" y="251.0114942528735" as="targetPoint"/>
                        <Array as="points">
                            <mxPoint x="275" y="240"/>
                            <mxPoint x="275" y="240"/>
                        </Array>
                    </mxGeometry>
                </mxCell>
                <mxCell id="EmUaQzbzAnPs78ngRSip-39" value="processInput()" style="edgeLabel;html=1;align=center;verticalAlign=middle;resizable=0;points=[];labelBackgroundColor=none;" parent="EmUaQzbzAnPs78ngRSip-38" vertex="1" connectable="0">
                    <mxGeometry x="-0.096" y="-1" relative="1" as="geometry">
                        <mxPoint x="6" y="-11" as="offset"/>
                    </mxGeometry>
                </mxCell>
                <mxCell id="EmUaQzbzAnPs78ngRSip-46" value="&lt;div&gt;Loading&amp;nbsp;&lt;/div&gt;&lt;div&gt;assets&lt;/div&gt;" style="shape=umlLifeline;perimeter=lifelinePerimeter;whiteSpace=wrap;html=1;container=1;collapsible=0;recursiveResize=0;outlineConnect=0;rounded=1;shadow=0;comic=0;labelBackgroundColor=none;strokeWidth=1;fontFamily=Verdana;fontSize=12;align=center;fillColor=#e1d5e7;strokeColor=#9673a6;" parent="1" vertex="1">
                    <mxGeometry x="1390" y="1360" width="70" height="580" as="geometry"/>
                </mxCell>
                <mxCell id="EmUaQzbzAnPs78ngRSip-47" value="" style="html=1;points=[];perimeter=orthogonalPerimeter;rounded=0;shadow=0;comic=0;labelBackgroundColor=none;strokeWidth=1;fontFamily=Verdana;fontSize=12;align=center;" parent="EmUaQzbzAnPs78ngRSip-46" vertex="1">
                    <mxGeometry x="30" y="60" width="10" height="90" as="geometry"/>
                </mxCell>
                <mxCell id="EmUaQzbzAnPs78ngRSip-62" style="edgeStyle=orthogonalEdgeStyle;rounded=0;orthogonalLoop=1;jettySize=auto;html=1;fontFamily=Verdana;fontSize=12;fontColor=default;labelBackgroundColor=none;entryX=1;entryY=0.796;entryDx=0;entryDy=0;entryPerimeter=0;" parent="EmUaQzbzAnPs78ngRSip-46" source="EmUaQzbzAnPs78ngRSip-47" target="EmUaQzbzAnPs78ngRSip-47" edge="1">
                    <mxGeometry relative="1" as="geometry">
                        <Array as="points">
                            <mxPoint x="110" y="90"/>
                            <mxPoint x="110" y="132"/>
                        </Array>
                    </mxGeometry>
                </mxCell>
                <mxCell id="EmUaQzbzAnPs78ngRSip-63" value="&lt;div&gt;process&lt;/div&gt;&lt;div&gt;assets&lt;/div&gt;" style="edgeLabel;html=1;align=center;verticalAlign=middle;resizable=0;points=[];rounded=1;shadow=0;comic=0;strokeColor=#9673a6;strokeWidth=1;fontFamily=Verdana;fontSize=12;fontColor=default;labelBackgroundColor=default;fillColor=#e1d5e7;" parent="EmUaQzbzAnPs78ngRSip-62" vertex="1" connectable="0">
                    <mxGeometry x="-0.8065" relative="1" as="geometry">
                        <mxPoint x="17" y="19" as="offset"/>
                    </mxGeometry>
                </mxCell>
                <mxCell id="EmUaQzbzAnPs78ngRSip-65" value="start game" style="edgeLabel;html=1;align=center;verticalAlign=middle;resizable=0;points=[];rounded=1;shadow=0;comic=0;strokeColor=#9673a6;strokeWidth=1;fontFamily=Verdana;fontSize=12;fontColor=default;labelBackgroundColor=default;fillColor=#e1d5e7;" parent="EmUaQzbzAnPs78ngRSip-62" vertex="1" connectable="0">
                    <mxGeometry x="-0.8065" relative="1" as="geometry">
                        <mxPoint x="137" y="119" as="offset"/>
                    </mxGeometry>
                </mxCell>
                <mxCell id="EmUaQzbzAnPs78ngRSip-48" value="&lt;div&gt;Main&lt;/div&gt;&lt;div&gt;Menu&lt;/div&gt;" style="shape=umlLifeline;perimeter=lifelinePerimeter;whiteSpace=wrap;html=1;container=1;collapsible=0;recursiveResize=0;outlineConnect=0;rounded=1;shadow=0;comic=0;labelBackgroundColor=none;strokeWidth=1;fontFamily=Verdana;fontSize=12;align=center;fillColor=#e1d5e7;strokeColor=#9673a6;" parent="1" vertex="1">
                    <mxGeometry x="1500" y="1360" width="60" height="580" as="geometry"/>
                </mxCell>
                <mxCell id="EmUaQzbzAnPs78ngRSip-49" value="" style="html=1;points=[];perimeter=orthogonalPerimeter;rounded=0;shadow=0;comic=0;labelBackgroundColor=none;strokeWidth=1;fontFamily=Verdana;fontSize=12;align=center;" parent="EmUaQzbzAnPs78ngRSip-48" vertex="1">
                    <mxGeometry x="25" y="120" width="10" height="110" as="geometry"/>
                </mxCell>
                <mxCell id="EmUaQzbzAnPs78ngRSip-68" style="edgeStyle=orthogonalEdgeStyle;rounded=0;orthogonalLoop=1;jettySize=auto;html=1;fontFamily=Verdana;fontSize=12;fontColor=default;labelBackgroundColor=default;resizable=0;" parent="EmUaQzbzAnPs78ngRSip-48" source="EmUaQzbzAnPs78ngRSip-49" target="EmUaQzbzAnPs78ngRSip-49" edge="1">
                    <mxGeometry relative="1" as="geometry">
                        <Array as="points">
                            <mxPoint x="110" y="140"/>
                            <mxPoint x="110" y="190"/>
                        </Array>
                    </mxGeometry>
                </mxCell>
                <mxCell id="EmUaQzbzAnPs78ngRSip-70" value="&lt;div&gt;manage&lt;/div&gt;&lt;div&gt;settings&lt;/div&gt;" style="edgeLabel;html=1;align=center;verticalAlign=middle;resizable=0;points=[];rounded=1;shadow=0;comic=0;strokeColor=#9673a6;strokeWidth=1;fontFamily=Verdana;fontSize=12;fontColor=default;labelBackgroundColor=default;fillColor=#e1d5e7;gradientColor=none;" parent="EmUaQzbzAnPs78ngRSip-68" vertex="1" connectable="0">
                    <mxGeometry x="-0.7275" y="1" relative="1" as="geometry">
                        <mxPoint x="8" y="25" as="offset"/>
                    </mxGeometry>
                </mxCell>
                <mxCell id="EmUaQzbzAnPs78ngRSip-50" value="Game setup" style="shape=umlLifeline;perimeter=lifelinePerimeter;whiteSpace=wrap;html=1;container=1;collapsible=0;recursiveResize=0;outlineConnect=0;rounded=1;shadow=0;comic=0;labelBackgroundColor=none;strokeWidth=1;fontFamily=Verdana;fontSize=12;align=center;fillColor=#e1d5e7;strokeColor=#9673a6;" parent="1" vertex="1">
                    <mxGeometry x="1610" y="1360" width="60" height="570" as="geometry"/>
                </mxCell>
                <mxCell id="EmUaQzbzAnPs78ngRSip-71" style="edgeStyle=orthogonalEdgeStyle;rounded=0;orthogonalLoop=1;jettySize=auto;html=1;fontFamily=Verdana;fontSize=12;fontColor=default;labelBackgroundColor=default;resizable=0;exitX=0.767;exitY=0.104;exitDx=0;exitDy=0;exitPerimeter=0;" parent="EmUaQzbzAnPs78ngRSip-50" source="EmUaQzbzAnPs78ngRSip-51" target="EmUaQzbzAnPs78ngRSip-51" edge="1">
                    <mxGeometry relative="1" as="geometry">
                        <mxPoint x="75" y="210" as="sourcePoint"/>
                        <mxPoint x="75" y="230" as="targetPoint"/>
                        <Array as="points">
                            <mxPoint x="120" y="215"/>
                            <mxPoint x="120" y="250"/>
                        </Array>
                    </mxGeometry>
                </mxCell>
                <mxCell id="EmUaQzbzAnPs78ngRSip-72" value="&lt;div&gt;reset&amp;nbsp;&lt;/div&gt;&lt;div&gt;generation&lt;/div&gt;" style="edgeLabel;html=1;align=center;verticalAlign=middle;resizable=0;points=[];rounded=1;shadow=0;comic=0;strokeColor=#9673a6;strokeWidth=1;fontFamily=Verdana;fontSize=12;fontColor=default;labelBackgroundColor=default;fillColor=#e1d5e7;gradientColor=none;" parent="EmUaQzbzAnPs78ngRSip-71" vertex="1" connectable="0">
                    <mxGeometry x="-0.5905" relative="1" as="geometry">
                        <mxPoint x="9" y="15" as="offset"/>
                    </mxGeometry>
                </mxCell>
                <mxCell id="EmUaQzbzAnPs78ngRSip-51" value="" style="html=1;points=[];perimeter=orthogonalPerimeter;rounded=0;shadow=0;comic=0;labelBackgroundColor=none;strokeWidth=1;fontFamily=Verdana;fontSize=12;align=center;" parent="EmUaQzbzAnPs78ngRSip-50" vertex="1">
                    <mxGeometry x="25" y="210" width="10" height="130" as="geometry"/>
                </mxCell>
                <mxCell id="EmUaQzbzAnPs78ngRSip-52" value="&lt;div&gt;Level&lt;/div&gt;&lt;div&gt;setup&lt;/div&gt;" style="shape=umlLifeline;perimeter=lifelinePerimeter;whiteSpace=wrap;html=1;container=1;collapsible=0;recursiveResize=0;outlineConnect=0;rounded=1;shadow=0;comic=0;labelBackgroundColor=none;strokeWidth=1;fontFamily=Verdana;fontSize=12;align=center;fillColor=#e1d5e7;strokeColor=#9673a6;" parent="1" vertex="1">
                    <mxGeometry x="1720" y="1360" width="60" height="580" as="geometry"/>
                </mxCell>
                <mxCell id="EmUaQzbzAnPs78ngRSip-53" value="" style="html=1;points=[];perimeter=orthogonalPerimeter;rounded=0;shadow=0;comic=0;labelBackgroundColor=none;strokeWidth=1;fontFamily=Verdana;fontSize=12;align=center;" parent="EmUaQzbzAnPs78ngRSip-52" vertex="1">
                    <mxGeometry x="25" y="320" width="10" height="60" as="geometry"/>
                </mxCell>
                <mxCell id="EmUaQzbzAnPs78ngRSip-54" value="&lt;div&gt;Terrain&lt;/div&gt;&lt;div&gt;generation&lt;/div&gt;" style="shape=umlLifeline;perimeter=lifelinePerimeter;whiteSpace=wrap;html=1;container=1;collapsible=0;recursiveResize=0;outlineConnect=0;rounded=1;shadow=0;comic=0;labelBackgroundColor=none;strokeWidth=1;fontFamily=Verdana;fontSize=12;align=center;fillColor=#e1d5e7;strokeColor=#9673a6;" parent="1" vertex="1">
                    <mxGeometry x="1790" y="1360" width="110" height="580" as="geometry"/>
                </mxCell>
                <mxCell id="EmUaQzbzAnPs78ngRSip-55" value="" style="html=1;points=[];perimeter=orthogonalPerimeter;rounded=0;shadow=0;comic=0;labelBackgroundColor=none;strokeWidth=1;fontFamily=Verdana;fontSize=12;align=center;" parent="EmUaQzbzAnPs78ngRSip-54" vertex="1">
                    <mxGeometry x="50" y="360" width="10" height="90" as="geometry"/>
                </mxCell>
                <mxCell id="EmUaQzbzAnPs78ngRSip-79" style="edgeStyle=orthogonalEdgeStyle;rounded=0;orthogonalLoop=1;jettySize=auto;html=1;fontFamily=Verdana;fontSize=12;fontColor=default;labelBackgroundColor=default;resizable=0;" parent="EmUaQzbzAnPs78ngRSip-54" target="EmUaQzbzAnPs78ngRSip-53" edge="1">
                    <mxGeometry relative="1" as="geometry">
                        <mxPoint x="-35.02999999999906" y="330" as="sourcePoint"/>
                        <mxPoint x="-39.9955172413795" y="360" as="targetPoint"/>
                        <Array as="points">
                            <mxPoint x="40" y="330"/>
                            <mxPoint x="40" y="350"/>
                        </Array>
                    </mxGeometry>
                </mxCell>
                <mxCell id="EmUaQzbzAnPs78ngRSip-80" value="&lt;div&gt;read level&lt;/div&gt;" style="edgeLabel;html=1;align=center;verticalAlign=middle;resizable=0;points=[];rounded=1;shadow=0;comic=0;strokeColor=#9673a6;strokeWidth=1;fontFamily=Verdana;fontSize=12;fontColor=default;labelBackgroundColor=default;fillColor=#e1d5e7;gradientColor=none;" parent="EmUaQzbzAnPs78ngRSip-79" vertex="1" connectable="0">
                    <mxGeometry x="0.5955" y="1" relative="1" as="geometry">
                        <mxPoint x="7" y="-12" as="offset"/>
                    </mxGeometry>
                </mxCell>
                <mxCell id="EmUaQzbzAnPs78ngRSip-83" style="edgeStyle=orthogonalEdgeStyle;rounded=0;orthogonalLoop=1;jettySize=auto;html=1;fontFamily=Verdana;fontSize=12;fontColor=default;labelBackgroundColor=default;resizable=0;" parent="EmUaQzbzAnPs78ngRSip-54" source="EmUaQzbzAnPs78ngRSip-53" target="EmUaQzbzAnPs78ngRSip-55" edge="1">
                    <mxGeometry relative="1" as="geometry">
                        <mxPoint x="-29.99999999999909" y="440" as="sourcePoint"/>
                        <mxPoint x="230.0000000000009" y="440" as="targetPoint"/>
                        <Array as="points">
                            <mxPoint x="20" y="370"/>
                            <mxPoint x="20" y="370"/>
                        </Array>
                    </mxGeometry>
                </mxCell>
                <mxCell id="EmUaQzbzAnPs78ngRSip-56" value="Game" style="shape=umlLifeline;perimeter=lifelinePerimeter;whiteSpace=wrap;html=1;container=1;collapsible=0;recursiveResize=0;outlineConnect=0;rounded=1;shadow=0;comic=0;labelBackgroundColor=none;strokeWidth=1;fontFamily=Verdana;fontSize=12;align=center;fillColor=#e1d5e7;strokeColor=#9673a6;" parent="1" vertex="1">
                    <mxGeometry x="1920" y="1360" width="60" height="630" as="geometry"/>
                </mxCell>
                <mxCell id="EmUaQzbzAnPs78ngRSip-57" value="" style="html=1;points=[];perimeter=orthogonalPerimeter;rounded=0;shadow=0;comic=0;labelBackgroundColor=none;strokeWidth=1;fontFamily=Verdana;fontSize=12;align=center;" parent="EmUaQzbzAnPs78ngRSip-56" vertex="1">
                    <mxGeometry x="25" y="430" width="10" height="170" as="geometry"/>
                </mxCell>
                <mxCell id="EmUaQzbzAnPs78ngRSip-58" value="GameOver" style="shape=umlLifeline;perimeter=lifelinePerimeter;whiteSpace=wrap;html=1;container=1;collapsible=0;recursiveResize=0;outlineConnect=0;rounded=1;shadow=0;comic=0;labelBackgroundColor=none;strokeWidth=1;fontFamily=Verdana;fontSize=12;align=center;fillColor=#e1d5e7;strokeColor=#9673a6;" parent="1" vertex="1">
                    <mxGeometry x="2500" y="1360" width="140" height="580" as="geometry"/>
                </mxCell>
                <mxCell id="EmUaQzbzAnPs78ngRSip-59" value="" style="html=1;points=[];perimeter=orthogonalPerimeter;rounded=0;shadow=0;comic=0;labelBackgroundColor=none;strokeWidth=1;fontFamily=Verdana;fontSize=12;align=center;" parent="EmUaQzbzAnPs78ngRSip-58" vertex="1">
                    <mxGeometry x="65" y="60" width="10" height="140" as="geometry"/>
                </mxCell>
                <mxCell id="EmUaQzbzAnPs78ngRSip-60" style="edgeStyle=orthogonalEdgeStyle;rounded=0;orthogonalLoop=1;jettySize=auto;html=1;fontFamily=Verdana;fontSize=12;fontColor=default;labelBackgroundColor=none;" parent="1" source="EmUaQzbzAnPs78ngRSip-47" target="EmUaQzbzAnPs78ngRSip-49" edge="1">
                    <mxGeometry relative="1" as="geometry">
                        <Array as="points">
                            <mxPoint x="1520" y="1500"/>
                            <mxPoint x="1520" y="1500"/>
                        </Array>
                    </mxGeometry>
                </mxCell>
                <mxCell id="EmUaQzbzAnPs78ngRSip-78" style="edgeStyle=orthogonalEdgeStyle;rounded=0;orthogonalLoop=1;jettySize=auto;html=1;fontFamily=Verdana;fontSize=12;fontColor=default;labelBackgroundColor=default;resizable=0;" parent="1" source="EmUaQzbzAnPs78ngRSip-51" target="EmUaQzbzAnPs78ngRSip-53" edge="1">
                    <mxGeometry relative="1" as="geometry">
                        <Array as="points">
                            <mxPoint x="1690" y="1690"/>
                            <mxPoint x="1690" y="1690"/>
                        </Array>
                    </mxGeometry>
                </mxCell>
                <mxCell id="EmUaQzbzAnPs78ngRSip-64" style="edgeStyle=orthogonalEdgeStyle;rounded=0;orthogonalLoop=1;jettySize=auto;html=1;fontFamily=Verdana;fontSize=12;fontColor=default;labelBackgroundColor=default;resizable=0;" parent="1" source="EmUaQzbzAnPs78ngRSip-49" target="EmUaQzbzAnPs78ngRSip-51" edge="1">
                    <mxGeometry relative="1" as="geometry">
                        <mxPoint x="1525" y="1579.999999999999" as="sourcePoint"/>
                        <mxPoint x="1663" y="1579.999999999999" as="targetPoint"/>
                        <Array as="points">
                            <mxPoint x="1610" y="1580"/>
                            <mxPoint x="1610" y="1580"/>
                        </Array>
                    </mxGeometry>
                </mxCell>
                <mxCell id="EmUaQzbzAnPs78ngRSip-76" style="edgeStyle=orthogonalEdgeStyle;rounded=0;orthogonalLoop=1;jettySize=auto;html=1;fontFamily=Verdana;fontSize=12;fontColor=default;labelBackgroundColor=default;resizable=0;" parent="1" edge="1">
                    <mxGeometry relative="1" as="geometry">
                        <mxPoint x="1645" y="1650" as="sourcePoint"/>
                        <mxPoint x="1645" y="1670" as="targetPoint"/>
                        <Array as="points">
                            <mxPoint x="1730" y="1650"/>
                            <mxPoint x="1730" y="1670"/>
                        </Array>
                    </mxGeometry>
                </mxCell>
                <mxCell id="EmUaQzbzAnPs78ngRSip-77" value="&lt;div&gt;setup UI&lt;/div&gt;" style="edgeLabel;html=1;align=center;verticalAlign=middle;resizable=0;points=[];rounded=1;shadow=0;comic=0;strokeColor=#9673a6;strokeWidth=1;fontFamily=Verdana;fontSize=12;fontColor=default;labelBackgroundColor=default;fillColor=#e1d5e7;gradientColor=none;" parent="EmUaQzbzAnPs78ngRSip-76" vertex="1" connectable="0">
                    <mxGeometry x="0.5168" relative="1" as="geometry">
                        <mxPoint x="-1" y="-10" as="offset"/>
                    </mxGeometry>
                </mxCell>
                <mxCell id="EmUaQzbzAnPs78ngRSip-73" style="edgeStyle=orthogonalEdgeStyle;rounded=0;orthogonalLoop=1;jettySize=auto;html=1;fontFamily=Verdana;fontSize=12;fontColor=default;labelBackgroundColor=default;resizable=0;" parent="1" target="EmUaQzbzAnPs78ngRSip-51" edge="1">
                    <mxGeometry relative="1" as="geometry">
                        <mxPoint x="1645" y="1620" as="sourcePoint"/>
                        <mxPoint x="1645" y="1639" as="targetPoint"/>
                        <Array as="points">
                            <mxPoint x="1730" y="1620"/>
                            <mxPoint x="1730" y="1640"/>
                        </Array>
                    </mxGeometry>
                </mxCell>
                <mxCell id="EmUaQzbzAnPs78ngRSip-74" value="&lt;div&gt;spawn player&lt;/div&gt;" style="edgeLabel;html=1;align=center;verticalAlign=middle;resizable=0;points=[];rounded=1;shadow=0;comic=0;strokeColor=#9673a6;strokeWidth=1;fontFamily=Verdana;fontSize=12;fontColor=default;labelBackgroundColor=default;fillColor=#e1d5e7;gradientColor=none;" parent="EmUaQzbzAnPs78ngRSip-73" vertex="1" connectable="0">
                    <mxGeometry x="-0.6036" y="-2" relative="1" as="geometry">
                        <mxPoint x="5" y="7" as="offset"/>
                    </mxGeometry>
                </mxCell>
                <mxCell id="EmUaQzbzAnPs78ngRSip-86" style="edgeStyle=orthogonalEdgeStyle;rounded=0;orthogonalLoop=1;jettySize=auto;html=1;fontFamily=Verdana;fontSize=12;fontColor=default;labelBackgroundColor=default;resizable=0;" parent="1" source="EmUaQzbzAnPs78ngRSip-55" target="EmUaQzbzAnPs78ngRSip-57" edge="1">
                    <mxGeometry relative="1" as="geometry">
                        <Array as="points">
                            <mxPoint x="1910" y="1800"/>
                            <mxPoint x="1910" y="1800"/>
                        </Array>
                    </mxGeometry>
                </mxCell>
                <mxCell id="EmUaQzbzAnPs78ngRSip-87" value="generation &lt;br&gt;is finished" style="edgeLabel;html=1;align=center;verticalAlign=middle;resizable=0;points=[];rounded=1;shadow=0;comic=0;strokeColor=#9673a6;strokeWidth=1;fontFamily=Verdana;fontSize=12;fontColor=default;labelBackgroundColor=default;fillColor=#e1d5e7;gradientColor=none;" parent="EmUaQzbzAnPs78ngRSip-86" vertex="1" connectable="0">
                    <mxGeometry x="-0.2386" y="-1" relative="1" as="geometry">
                        <mxPoint x="10" y="-22" as="offset"/>
                    </mxGeometry>
                </mxCell>
            </root>
        </mxGraphModel>
    </diagram>
</mxfile>